{
classes = (
{
automatic = 1;
code = "A Aacute Abreve Acircumflex Adieresis Agrave Amacron Aogonek Aring Aringacute Atilde AE AEacute B C Cacute Ccaron Ccedilla Ccircumflex Cdotaccent D DZ DZcaron Eth Dcaron Dcroat Ddotbelow Dz Dzcaron E Eacute Ebreve Ecaron Ecircumflex Edieresis Edotaccent Edotbelow Egrave Emacron Eogonek Etilde F G Gbreve Gcircumflex Gcommaaccent Gdotaccent H Hbar Hcircumflex Hdotbelow I IJ Iacute Ibreve Icircumflex Idieresis Idotaccent Idotbelow Igrave Imacron Iogonek Itilde J Jcircumflex K Kcommaaccent L LJ Lacute Lcaron Lcommaaccent Ldot Lj Lslash M N NJ Nacute Ncaron Ncommaaccent Ndotaccent Eng Nj Ntilde O Oacute Obreve Ocircumflex Odieresis Odotbelow Ograve Ohungarumlaut Omacron Oogonek Oslash Oslashacute Otilde OE P Thorn Q R Racute Rcaron Rcommaaccent Rdotbelow S Sacute Scaron Scedilla Scircumflex Scommaaccent Sdotbelow Germandbls Schwa T Tbar Tcaron Tcedilla Tcommaaccent Tdotbelow U Uacute Ubreve Ucircumflex Udieresis Udotbelow Ugrave Uhungarumlaut Umacron Uogonek Uring Utilde V W Wacute Wcircumflex Wdieresis Wgrave X Y Yacute Ycircumflex Ydieresis Ygrave Ytilde Z Zacute Zcaron Zdotaccent Zdotbelow Iacute_J.loclNLD Y.loclGUA Yacute.loclGUA Ycircumflex.loclGUA Ydieresis.loclGUA Ygrave.loclGUA Ytilde.loclGUA Cacute.loclPLK Nacute.loclPLK Oacute.loclPLK Sacute.loclPLK Zacute.loclPLK Delta Omega";
name = Uppercase;
}
);
copyright = "Copyright (c) 2011-2015, Omnibus-Type (www.omnibus-type.com omnibus.type@gmail.com)";
customParameters = (
{
name = openTypeNameLicenseURL;
value = "http://scripts.sil.org/OFL";
},
{
name = openTypeNameLicense;
value = "This Font Software is licensed under the SIL Open Font License, Version 1.1. This license is available with a FAQ at: http://scripts.sil.org/OFL";
},
{
name = "Family Alignment Zones";
value = (
"{660, 20}",
"{510, 20}",
"{0, 20}",
);
},
{
name = vendorID;
value = OMNI;
},
{
name = fsType;
value = (
);
},
{
name = "Make morx table";
value = "1";
}
);
date = "2015-01-28 22:54:35 +0000";

glyphs = (
{
glyphname = A;
lastChange = "2015-01-28 23:09:48 +0000";
layers = (
{
anchors = (
{
name = ogonek;
position = "{501, 10}";
},
{
name = top;
position = "{253, 660}";
},
{
name = topcase;
position = "{253, 700}";
}
);
layerId = UUID0;
name = Light;
paths = (
{
closed = 1;
nodes = (
"183 660 LINE",
"0 0 LINE",
"110 0 LINE",
"149 168 LINE",
"345 168 LINE",
"385 0 LINE",
"502 0 LINE",
"331 660 LINE"
);
},
{
closed = 1;
nodes = (
"247 586 LINE",
"328 242 LINE",
"167 242 LINE"
);
}
);
width = 502;
},
{
anchors = (
{
name = ogonek;
position = "{600, 10}";
},
{
name = top;
position = "{294, 660}";
},
{
name = topcase;
position = "{296, 720}";
}
);
layerId = "7A18FD7C-8538-4E93-8010-D52488023CDD";
name = Regular;
paths = (
{
closed = 1;
nodes = (
"173 660 LINE",
"-7 0 LINE",
"123 0 LINE",
"159 158 LINE",
"333 158 LINE",
"370 0 LINE",
"587 0 LINE",
"420 660 LINE"
);
},
{
closed = 1;
nodes = (
"245 539 LINE",
"314 242 LINE",
"178 242 LINE"
);
}
);
width = 588;
},
{
anchors = (
{
name = ogonek;
position = "{633, 0}";
},
{
name = top;
position = "{316.188, 660}";
},
{
name = topcase;
position = "{319.271, 730.824}";
}
);
layerId = "508D1370-0BED-4DB0-A4B4-D9F3BBD09B88";
name = Bold;
paths = (
{
closed = 1;
nodes = (
"168 660 LINE",
"-11 0 LINE",
"130 0 LINE",
"164 153 LINE",
"327 153 LINE",
"362 0 LINE",
"633 0 LINE",
"468 660 LINE"
);
},
{
closed = 1;
nodes = (
"244 514 LINE",
"306 242 LINE",
"184 242 LINE"
);
}
);
width = 635;
}
);
leftKerningGroup = A;
rightKerningGroup = A;
unicode = 0041;
},
{
glyphname = Aogonek;
lastChange = "2015-01-28 23:09:48 +0000";
layers = (
{
components = (
{
name = A;
transform = "{1, 0, 0, 1, 0, 0}";
},
{
name = ogonek;
transform = "{1, 0, 0, 1, 338, 7}";
}
);
layerId = UUID0;
name = Light;
width = 502;
},
{
background = {
paths = (
{
closed = 1;
nodes = (
"173 660 LINE",
"-7 0 LINE",
"123 0 LINE",
"159 158 LINE",
"333 158 LINE",
"370 0 LINE",
"512 0 LINE",
"452 -35 OFFCURVE",
"400 -86 OFFCURVE",
"400 -155 CURVE SMOOTH",
"400 -231 OFFCURVE",
"472 -258 OFFCURVE",
"548 -258 CURVE SMOOTH",
"588 -258 OFFCURVE",
"656 -244 OFFCURVE",
"656 -204 CURVE SMOOTH",
"656 -186 OFFCURVE",
"644 -174 OFFCURVE",
"631 -166 CURVE",
"619 -184 OFFCURVE",
"588 -191 OFFCURVE",
"567 -191 CURVE SMOOTH",
"527 -191 OFFCURVE",
"506 -177 OFFCURVE",
"506 -137 CURVE SMOOTH",
"506 -86 OFFCURVE",
"542 -36 OFFCURVE",
"587 0 CURVE",
"420 660 LINE"
);
},
{
closed = 1;
nodes = (
"245 539 LINE",
"314 242 LINE",
"178 242 LINE"
);
}
);
};
components = (
{
name = A;
transform = "{1, 0, 0, 1, 0, 0}";
},
{
name = ogonek;
transform = "{1, 0, 0, 1, 381, -6}";
}
);
layerId = "7A18FD7C-8538-4E93-8010-D52488023CDD";
name = Regular;
width = 588;
},
{
components = (
{
name = A;
transform = "{1, 0, 0, 1, 0, 0}";
},
{
name = ogonek;
transform = "{1, 0, 0, 1, 384, -23}";
}
);
layerId = "508D1370-0BED-4DB0-A4B4-D9F3BBD09B88";
name = Bold;
width = 635;
}
);
leftKerningGroup = A;
leftMetricsKey = A;
rightKerningGroup = A;
unicode = 0104;
},
{
glyphname = Aringacute;
lastChange = "2015-01-28 23:09:48 +0000";
layers = (
{
components = (
{
name = A;
transform = "{1, 0, 0, 1, 0, 0}";
},
{
name = acute.case;
transform = "{1, 0, 0, 1, 167, 83}";
}
);
layerId = UUID0;
name = Light;
paths = (
{
closed = 1;
nodes = (
"313 626 OFFCURVE",
"358 658 OFFCURVE",
"358 710 CURVE SMOOTH",
"358 762 OFFCURVE",
"314 791 OFFCURVE",
"257 791 CURVE SMOOTH",
"201 791 OFFCURVE",
"157 762 OFFCURVE",
"157 710 CURVE SMOOTH",
"157 658 OFFCURVE",
"202 626 OFFCURVE",
"257 626 CURVE SMOOTH"
);
},
{
closed = 1;
nodes = (
"228 660 OFFCURVE",
"215 682 OFFCURVE",
"215 710 CURVE SMOOTH",
"215 736 OFFCURVE",
"229 757 OFFCURVE",
"257 757 CURVE SMOOTH",
"286 757 OFFCURVE",
"300 736 OFFCURVE",
"300 710 CURVE SMOOTH",
"300 682 OFFCURVE",
"287 660 OFFCURVE",
"257 660 CURVE SMOOTH"
);
}
);
width = 502;
},
{
components = (
{
name = A;
transform = "{1, 0, 0, 1, 0, 0}";
},
{
name = acute.case;
transform = "{1, 0, 0, 1, 181, 83}";
}
);
layerId = "7A18FD7C-8538-4E93-8010-D52488023CDD";
name = Regular;
paths = (
{
closed = 1;
nodes = (
"362 626 OFFCURVE",
"411 657 OFFCURVE",
"411 708 CURVE SMOOTH",
"411 759 OFFCURVE",
"363 787 OFFCURVE",
"296 787 CURVE SMOOTH",
"229 787 OFFCURVE",
"181 759 OFFCURVE",
"181 708 CURVE SMOOTH",
"181 657 OFFCURVE",
"230 626 OFFCURVE",
"296 626 CURVE SMOOTH"
);
},
{
closed = 1;
nodes = (
"264 660 OFFCURVE",
"251 681 OFFCURVE",
"251 708 CURVE SMOOTH",
"251 733 OFFCURVE",
"265 753 OFFCURVE",
"296 753 CURVE SMOOTH",
"327 753 OFFCURVE",
"341 733 OFFCURVE",
"341 708 CURVE SMOOTH",
"341 681 OFFCURVE",
"327 660 OFFCURVE",
"296 660 CURVE SMOOTH"
);
}
);
width = 588;
},
{
components = (
{
name = A;
transform = "{1, 0, 0, 1, 0, 0}";
},
{
name = acute.case;
transform = "{1, 0, 0, 1, 188.576, 83}";
}
);
layerId = "508D1370-0BED-4DB0-A4B4-D9F3BBD09B88";
name = Bold;
paths = (
{
closed = 1;
nodes = (
"389 626 OFFCURVE",
"440 656 OFFCURVE",
"440 707 CURVE SMOOTH",
"440 757 OFFCURVE",
"390 785 OFFCURVE",
"317 785 CURVE SMOOTH",
"244 785 OFFCURVE",
"194 757 OFFCURVE",
"194 707 CURVE SMOOTH",
"194 656 OFFCURVE",
"245 626 OFFCURVE",
"317 626 CURVE SMOOTH"
);
},
{
closed = 1;
nodes = (
"283 660 OFFCURVE",
"270 680 OFFCURVE",
"270 707 CURVE SMOOTH",
"270 731 OFFCURVE",
"284 751 OFFCURVE",
"317 751 CURVE SMOOTH",
"349 751 OFFCURVE",
"363 731 OFFCURVE",
"363 707 CURVE SMOOTH",
"363 680 OFFCURVE",
"349 660 OFFCURVE",
"317 660 CURVE SMOOTH"
);
}
);
width = 635;
}
);
leftKerningGroup = A;
leftMetricsKey = A;
rightKerningGroup = A;
rightMetricsKey = A;
unicode = 01FA;
},
{
glyphname = AE;
lastChange = "2015-01-28 23:09:48 +0000";
layers = (
{
anchors = (
{
name = top;
position = "{333, 660}";
}
);
layerId = UUID0;
name = Light;
paths = (
{
closed = 1;
nodes = (
"255 660 LINE",
"-46 0 LINE",
"64 0 LINE",
"134 168 LINE",
"310 168 LINE",
"310 0 LINE",
"637 0 LINE",
"644 74 LINE",
"426 74 LINE",
"426 302 LINE",
"600 302 LINE",
"600 376 LINE",
"426 376 LINE",
"426 586 LINE",
"630 586 LINE",
"630 660 LINE"
);
},
{
closed = 1;
nodes = (
"310 242 LINE",
"165 242 LINE",
"310 586 LINE"
);
}
);
width = 674;
},
{
anchors = (
{
name = top;
position = "{410, 660}";
}
);
layerId = "7A18FD7C-8538-4E93-8010-D52488023CDD";
name = Regular;
paths = (
{
closed = 1;
nodes = (
"276 660 LINE",
"-14 0 LINE",
"126 0 LINE",
"190 158 LINE",
"348 158 LINE",
"348 0 LINE",
"725 0 LINE",
"733 84 LINE",
"560 84 LINE",
"560 297 LINE",
"688 297 LINE",
"688 381 LINE",
"560 381 LINE",
"560 576 LINE",
"718 576 LINE",
"718 660 LINE"
);
},
{
closed = 1;
nodes = (
"348 242 LINE",
"224 242 LINE",
"348 559 LINE"
);
}
);
width = 734;
},
{
anchors = (
{
name = top;
position = "{451.671, 660}";
}
);
layerId = "508D1370-0BED-4DB0-A4B4-D9F3BBD09B88";
name = Bold;
paths = (
{
closed = 1;
nodes = (
"287 660 LINE",
"3 0 LINE",
"160 0 LINE",
"220 153 LINE",
"369 153 LINE",
"369 0 LINE",
"773 0 LINE",
"781 89 LINE",
"633 89 LINE",
"633 294 LINE",
"736 294 LINE",
"736 384 LINE",
"633 384 LINE",
"633 571 LINE",
"766 571 LINE",
"766 660 LINE"
);
},
{
closed = 1;
nodes = (
"369 242 LINE",
"256 242 LINE",
"369 544 LINE"
);
}
);
width = 766;
}
);
leftKerningGroup = AE;
rightMetricsKey = E;
unicode = 00C6;
},
{
glyphname = B;
lastChange = "2015-01-28 23:09:48 +0000";
layers = (
{
layerId = UUID0;
name = Light;
paths = (
{
closed = 1;
nodes = (
"464 631 OFFCURVE",
"370 664 OFFCURVE",
"247 664 CURVE SMOOTH",
"188 664 OFFCURVE",
"119 660 OFFCURVE",
"60 656 CURVE",
"60 5 LINE",
"120 -4 OFFCURVE",
"182 -10 OFFCURVE",
"243 -10 CURVE SMOOTH",
"382 -10 OFFCURVE",
"512 54 OFFCURVE",
"512 193 CURVE SMOOTH",
"512 284 OFFCURVE",
"465 351 OFFCURVE",
"375 369 CURVE",
"426 397 OFFCURVE",
"464 450 OFFCURVE",
"464 508 CURVE SMOOTH"
);
},
{
closed = 1;
nodes = (
"176 315 LINE",
"188 317 OFFCURVE",
"209 318 OFFCURVE",
"221 318 CURVE SMOOTH",
"327 318 OFFCURVE",
"389 296 OFFCURVE",
"389 190 CURVE SMOOTH",
"389 99 OFFCURVE",
"334 60 OFFCURVE",
"243 60 CURVE SMOOTH",
"219 60 OFFCURVE",
"200 62 OFFCURVE",
"176 66 CURVE"
);
},
{
closed = 1;
nodes = (
"176 589 LINE",
"196 592 OFFCURVE",
"220 594 OFFCURVE",
"240 594 CURVE SMOOTH",
"307 594 OFFCURVE",
"345 565 OFFCURVE",
"345 498 CURVE SMOOTH",
"345 420 OFFCURVE",
"305 386 OFFCURVE",
"227 386 CURVE SMOOTH",
"212 386 OFFCURVE",
"191 387 OFFCURVE",
"176 389 CURVE"
);
}
);
width = 539;
},
{
layerId = "7A18FD7C-8538-4E93-8010-D52488023CDD";
name = Regular;
paths = (
{
closed = 1;
nodes = (
"555 640 OFFCURVE",
"436 665 OFFCURVE",
"304 665 CURVE SMOOTH",
"224 665 OFFCURVE",
"130 660 OFFCURVE",
"50 653 CURVE",
"50 4 LINE",
"138 -5 OFFCURVE",
"217 -10 OFFCURVE",
"300 -10 CURVE SMOOTH",
"451 -10 OFFCURVE",
"608 42 OFFCURVE",
"608 193 CURVE SMOOTH",
"608 296 OFFCURVE",
"546 355 OFFCURVE",
"444 373 CURVE",
"508 392 OFFCURVE",
"555 442 OFFCURVE",
"555 508 CURVE SMOOTH"
);
},
{
closed = 1;
nodes = (
"262 316 LINE",
"271 317 OFFCURVE",
"281 318 OFFCURVE",
"290 318 CURVE SMOOTH",
"371 318 OFFCURVE",
"400 271 OFFCURVE",
"400 190 CURVE SMOOTH",
"400 119 OFFCURVE",
"375 64 OFFCURVE",
"304 64 CURVE SMOOTH",
"291 64 OFFCURVE",
"275 66 OFFCURVE",
"262 70 CURVE"
);
},
{
closed = 1;
nodes = (
"262 585 LINE",
"276 589 OFFCURVE",
"290 591 OFFCURVE",
"304 591 CURVE SMOOTH",
"361 591 OFFCURVE",
"382 555 OFFCURVE",
"382 498 CURVE SMOOTH",
"382 432 OFFCURVE",
"356 385 OFFCURVE",
"290 385 CURVE SMOOTH",
"281 385 OFFCURVE",
"271 386 OFFCURVE",
"262 388 CURVE"
);
}
);
width = 622;
},
{
layerId = "508D1370-0BED-4DB0-A4B4-D9F3BBD09B88";
name = Bold;
paths = (
{
closed = 1;
nodes = (
"604 645 OFFCURVE",
"472 666 OFFCURVE",
"335 666 CURVE SMOOTH",
"243 666 OFFCURVE",
"136 660 OFFCURVE",
"45 651 CURVE",
"45 3 LINE",
"148 -6 OFFCURVE",
"236 -10 OFFCURVE",
"331 -10 CURVE SMOOTH",
"488 -10 OFFCURVE",
"660 36 OFFCURVE",
"660 193 CURVE SMOOTH",
"660 302 OFFCURVE",
"590 357 OFFCURVE",
"481 375 CURVE",
"552 389 OFFCURVE",
"604 438 OFFCURVE",
"604 508 CURVE SMOOTH"
);
},
{
closed = 1;
nodes = (
"309 317 LINE",
"316 317 OFFCURVE",
"320 318 OFFCURVE",
"327 318 CURVE SMOOTH",
"395 318 OFFCURVE",
"406 257 OFFCURVE",
"406 190 CURVE SMOOTH",
"406 130 OFFCURVE",
"397 66 OFFCURVE",
"337 66 CURVE SMOOTH",
"330 66 OFFCURVE",
"316 68 OFFCURVE",
"309 72 CURVE"
);
},
{
closed = 1;
nodes = (
"309 583 LINE",
"319 587 OFFCURVE",
"328 589 OFFCURVE",
"339 589 CURVE SMOOTH",
"390 589 OFFCURVE",
"402 550 OFFCURVE",
"402 498 CURVE SMOOTH",
"402 438 OFFCURVE",
"384 384 OFFCURVE",
"324 384 CURVE SMOOTH",
"318 384 OFFCURVE",
"314 385 OFFCURVE",
"309 387 CURVE"
);
}
);
width = 667;
}
);
leftMetricsKey = H;
unicode = 0042;
},
{
glyphname = C;
lastChange = "2015-01-28 23:09:48 +0000";
layers = (
{
anchors = (
{
name = bottom;
position = "{294, 0}";
},
{
name = top;
position = "{288, 660}";
},
{
name = topcase;
position = "{284, 700}";
}
);
layerId = UUID0;
name = Light;
paths = (
{
closed = 1;
nodes = (
"341 610 OFFCURVE",
"365 576 OFFCURVE",
"365 519 CURVE SMOOTH",
"365 505 OFFCURVE",
"362 483 OFFCURVE",
"357 469 CURVE",
"370 457 OFFCURVE",
"392 453 OFFCURVE",
"409 453 CURVE SMOOTH",
"456 453 OFFCURVE",
"486 487 OFFCURVE",
"486 534 CURVE SMOOTH",
"486 642 OFFCURVE",
"401 680 OFFCURVE",
"293 680 CURVE SMOOTH",
"99 680 OFFCURVE",
"34 521 OFFCURVE",
"34 327 CURVE SMOOTH",
"34 132 OFFCURVE",
"91 -22 OFFCURVE",
"284 -22 CURVE SMOOTH",
"378 -22 OFFCURVE",
"475 26 OFFCURVE",
"475 120 CURVE SMOOTH",
"475 150 OFFCURVE",
"465 170 OFFCURVE",
"436 179 CURVE",
"415 111 OFFCURVE",
"365 69 OFFCURVE",
"294 69 CURVE SMOOTH",
"171 69 OFFCURVE",
"159 209 OFFCURVE",
"159 332 CURVE SMOOTH",
"159 447 OFFCURVE",
"169 610 OFFCURVE",
"284 610 CURVE SMOOTH"
);
}
);
width = 511;
},
{
anchors = (
{
name = bottom;
position = "{342, 0}";
},
{
name = top;
position = "{332, 660}";
},
{
name = topcase;
position = "{334, 700}";
}
);
layerId = "7A18FD7C-8538-4E93-8010-D52488023CDD";
name = Regular;
paths = (
{
closed = 1;
nodes = (
"391 606 OFFCURVE",
"401 551 OFFCURVE",
"401 494 CURVE SMOOTH",
"401 474 OFFCURVE",
"399 459 OFFCURVE",
"395 439 CURVE",
"411 434 OFFCURVE",
"432 432 OFFCURVE",
"447 432 CURVE SMOOTH",
"515 432 OFFCURVE",
"571 473 OFFCURVE",
"571 545 CURVE SMOOTH",
"571 652 OFFCURVE",
"455 680 OFFCURVE",
"348 680 CURVE SMOOTH",
"126 680 OFFCURVE",
"20 548 OFFCURVE",
"20 326 CURVE SMOOTH",
"20 132 OFFCURVE",
"114 -22 OFFCURVE",
"342 -22 CURVE SMOOTH",
"450 -22 OFFCURVE",
"573 28 OFFCURVE",
"573 136 CURVE SMOOTH",
"573 167 OFFCURVE",
"560 192 OFFCURVE",
"534 208 CURVE",
"503 154 OFFCURVE",
"460 124 OFFCURVE",
"398 124 CURVE SMOOTH",
"281 124 OFFCURVE",
"248 227 OFFCURVE",
"248 364 CURVE SMOOTH",
"248 447 OFFCURVE",
"251 606 OFFCURVE",
"334 606 CURVE SMOOTH"
);
}
);
width = 587;
},
{
anchors = (
{
name = bottom;
position = "{367.976, 0}";
},
{
name = top;
position = "{355.812, 660}";
},
{
name = topcase;
position = "{361.059, 700}";
}
);
layerId = "508D1370-0BED-4DB0-A4B4-D9F3BBD09B88";
name = Bold;
paths = (
{
closed = 1;
nodes = (
"418 604 OFFCURVE",
"420 537 OFFCURVE",
"420 480 CURVE SMOOTH",
"420 457 OFFCURVE",
"419 446 OFFCURVE",
"416 423 CURVE",
"433 422 OFFCURVE",
"454 421 OFFCURVE",
"468 421 CURVE SMOOTH",
"547 421 OFFCURVE",
"617 465 OFFCURVE",
"617 551 CURVE SMOOTH",
"617 657 OFFCURVE",
"484 680 OFFCURVE",
"378 680 CURVE SMOOTH",
"141 680 OFFCURVE",
"12 563 OFFCURVE",
"12 325 CURVE SMOOTH",
"12 132 OFFCURVE",
"126 -22 OFFCURVE",
"373 -22 CURVE SMOOTH",
"489 -22 OFFCURVE",
"626 29 OFFCURVE",
"626 145 CURVE SMOOTH",
"626 176 OFFCURVE",
"611 204 OFFCURVE",
"587 224 CURVE",
"551 177 OFFCURVE",
"511 154 OFFCURVE",
"454 154 CURVE SMOOTH",
"341 154 OFFCURVE",
"296 237 OFFCURVE",
"296 381 CURVE SMOOTH",
"296 447 OFFCURVE",
"295 604 OFFCURVE",
"361 604 CURVE SMOOTH"
);
}
);
width = 628;
}
);
leftKerningGroup = O;
leftMetricsKey = O;
unicode = 0043;
},
{
glyphname = D;
lastChange = "2015-01-28 23:09:48 +0000";
layers = (
{
anchors = (
{
name = bottom;
position = "{267, 0}";
},
{
name = center;
position = "{282, 330}";
},
{
name = top;
position = "{267, 664}";
},
{
name = topcase;
position = "{267, 700}";
}
);
layerId = UUID0;
name = Light;
paths = (
{
closed = 1;
nodes = (
"60 5 LINE",
"120 -4 OFFCURVE",
"182 -10 OFFCURVE",
"243 -10 CURVE SMOOTH",
"454 -10 OFFCURVE",
"529 135 OFFCURVE",
"529 346 CURVE SMOOTH",
"529 537 OFFCURVE",
"458 664 OFFCURVE",
"267 664 CURVE SMOOTH",
"208 664 OFFCURVE",
"119 660 OFFCURVE",
"60 656 CURVE"
);
},
{
closed = 1;
nodes = (
"219 60 OFFCURVE",
"200 62 OFFCURVE",
"176 66 CURVE",
"176 589 LINE",
"204 592 OFFCURVE",
"232 594 OFFCURVE",
"260 594 CURVE SMOOTH",
"386 594 OFFCURVE",
"408 458 OFFCURVE",
"408 332 CURVE SMOOTH",
"408 183 OFFCURVE",
"392 60 OFFCURVE",
"243 60 CURVE SMOOTH"
);
}
);
width = 563;
},
{
anchors = (
{
name = bottom;
position = "{306, 0}";
},
{
name = center;
position = "{331, 330}";
},
{
name = top;
position = "{315, 665}";
},
{
name = topcase;
position = "{314, 700}";
}
);
layerId = "7A18FD7C-8538-4E93-8010-D52488023CDD";
name = Regular;
paths = (
{
closed = 1;
nodes = (
"50 4 LINE",
"138 -5 OFFCURVE",
"217 -10 OFFCURVE",
"300 -10 CURVE SMOOTH",
"526 -10 OFFCURVE",
"642 113 OFFCURVE",
"642 339 CURVE SMOOTH",
"642 561 OFFCURVE",
"536 665 OFFCURVE",
"314 665 CURVE SMOOTH",
"234 665 OFFCURVE",
"130 660 OFFCURVE",
"50 653 CURVE"
);
},
{
closed = 1;
nodes = (
"296 64 OFFCURVE",
"280 66 OFFCURVE",
"262 71 CURVE",
"262 583 LINE",
"283 589 OFFCURVE",
"293 591 OFFCURVE",
"314 591 CURVE SMOOTH",
"402 591 OFFCURVE",
"414 454 OFFCURVE",
"414 333 CURVE SMOOTH",
"414 212 OFFCURVE",
"402 64 OFFCURVE",
"314 64 CURVE SMOOTH"
);
}
);
width = 662;
},
{
anchors = (
{
name = bottom;
position = "{327.106, 0}";
},
{
name = center;
position = "{357.518, 330}";
},
{
name = top;
position = "{340.976, 665.541}";
},
{
name = topcase;
position = "{339.435, 700}";
}
);
layerId = "508D1370-0BED-4DB0-A4B4-D9F3BBD09B88";
name = Bold;
paths = (
{
closed = 1;
nodes = (
"45 3 LINE",
"148 -6 OFFCURVE",
"236 -10 OFFCURVE",
"331 -10 CURVE SMOOTH",
"565 -10 OFFCURVE",
"703 101 OFFCURVE",
"703 335 CURVE SMOOTH",
"703 574 OFFCURVE",
"578 666 OFFCURVE",
"339 666 CURVE SMOOTH",
"248 666 OFFCURVE",
"136 660 OFFCURVE",
"45 651 CURVE"
);
},
{
closed = 1;
nodes = (
"338 66 OFFCURVE",
"323 68 OFFCURVE",
"309 74 CURVE",
"309 580 LINE",
"326 587 OFFCURVE",
"326 589 OFFCURVE",
"343 589 CURVE SMOOTH",
"411 589 OFFCURVE",
"417 452 OFFCURVE",
"417 334 CURVE SMOOTH",
"417 228 OFFCURVE",
"407 66 OFFCURVE",
"352 66 CURVE SMOOTH"
);
}
);
width = 716;
}
);
leftMetricsKey = H;
rightKerningGroup = O;
rightMetricsKey = O;
unicode = 0044;
},
{
glyphname = Eth;
lastChange = "2015-01-28 23:09:48 +0000";
layers = (
{
components = (
{
name = D;
transform = "{1, 0, 0, 1, 10, 0}";
}
);
layerId = UUID0;
name = Light;
paths = (
{
closed = 1;
nodes = (
"275 297 LINE SMOOTH",
"307 297 OFFCURVE",
"328 308 OFFCURVE",
"328 340 CURVE SMOOTH",
"328 351 OFFCURVE",
"326 367 OFFCURVE",
"320 377 CURVE",
"39 377 LINE SMOOTH",
"7 377 OFFCURVE",
"-14 366 OFFCURVE",
"-14 334 CURVE SMOOTH",
"-14 323 OFFCURVE",
"-12 307 OFFCURVE",
"-6 297 CURVE"
);
}
);
width = 573;
},
{
background = {
paths = (
{
closed = 1;
nodes = (
"526 -10 OFFCURVE",
"642 113 OFFCURVE",
"642 339 CURVE SMOOTH",
"642 561 OFFCURVE",
"536 665 OFFCURVE",
"314 665 CURVE SMOOTH",
"234 665 OFFCURVE",
"130 660 OFFCURVE",
"50 653 CURVE",
"50 4 LINE",
"138 -5 OFFCURVE",
"217 -10 OFFCURVE",
"300 -10 CURVE SMOOTH"
);
},
{
closed = 1;
nodes = (
"262 583 LINE",
"283 589 OFFCURVE",
"293 591 OFFCURVE",
"314 591 CURVE SMOOTH",
"402 591 OFFCURVE",
"414 454 OFFCURVE",
"414 333 CURVE SMOOTH",
"414 212 OFFCURVE",
"402 64 OFFCURVE",
"314 64 CURVE SMOOTH",
"296 64 OFFCURVE",
"280 66 OFFCURVE",
"262 71 CURVE"
);
}
);
};
components = (
{
name = D;
transform = "{1, 0, 0, 1, 0, 0}";
}
);
layerId = "7A18FD7C-8538-4E93-8010-D52488023CDD";
name = Regular;
paths = (
{
closed = 1;
nodes = (
"290 290 LINE SMOOTH",
"332 290 OFFCURVE",
"358 310 OFFCURVE",
"358 352 CURVE SMOOTH",
"358 359 OFFCURVE",
"357 373 OFFCURVE",
"354 382 CURVE",
"61 382 LINE SMOOTH",
"19 382 OFFCURVE",
"-7 362 OFFCURVE",
"-7 320 CURVE SMOOTH",
"-7 313 OFFCURVE",
"-6 299 OFFCURVE",
"-3 290 CURVE"
);
}
);
width = 662;
},
{
components = (
{
name = D;
transform = "{1, 0, 0, 1, -5.412, 0}";
}
);
layerId = "508D1370-0BED-4DB0-A4B4-D9F3BBD09B88";
name = Bold;
paths = (
{
closed = 1;
nodes = (
"298 286 LINE SMOOTH",
"346 286 OFFCURVE",
"374 311 OFFCURVE",
"374 358 CURVE SMOOTH",
"374 363 OFFCURVE",
"374 376 OFFCURVE",
"372 385 CURVE",
"73 385 LINE SMOOTH",
"25 385 OFFCURVE",
"-3 360 OFFCURVE",
"-3 312 CURVE SMOOTH",
"-3 308 OFFCURVE",
"-3 295 OFFCURVE",
"-1 286 CURVE"
);
}
);
width = 710;
}
);
rightKerningGroup = O;
rightMetricsKey = D;
unicode = 00D0;
},
{
glyphname = Dcroat;
lastChange = "2015-01-28 23:09:48 +0000";
layers = (
{
components = (
{
name = D;
transform = "{1, 0, 0, 1, 10, 0}";
}
);
layerId = UUID0;
name = Light;
paths = (
{
closed = 1;
nodes = (
"275 297 LINE SMOOTH",
"307 297 OFFCURVE",
"328 308 OFFCURVE",
"328 340 CURVE SMOOTH",
"328 351 OFFCURVE",
"326 367 OFFCURVE",
"320 377 CURVE",
"39 377 LINE SMOOTH",
"7 377 OFFCURVE",
"-14 366 OFFCURVE",
"-14 334 CURVE SMOOTH",
"-14 323 OFFCURVE",
"-12 307 OFFCURVE",
"-6 297 CURVE"
);
}
);
width = 573;
},
{
background = {
paths = (
{
closed = 1;
nodes = (
"526 -10 OFFCURVE",
"642 113 OFFCURVE",
"642 339 CURVE SMOOTH",
"642 561 OFFCURVE",
"536 665 OFFCURVE",
"314 665 CURVE SMOOTH",
"234 665 OFFCURVE",
"130 660 OFFCURVE",
"50 653 CURVE",
"50 4 LINE",
"138 -5 OFFCURVE",
"217 -10 OFFCURVE",
"300 -10 CURVE SMOOTH"
);
},
{
closed = 1;
nodes = (
"262 583 LINE",
"283 589 OFFCURVE",
"293 591 OFFCURVE",
"314 591 CURVE SMOOTH",
"402 591 OFFCURVE",
"414 454 OFFCURVE",
"414 333 CURVE SMOOTH",
"414 212 OFFCURVE",
"402 64 OFFCURVE",
"314 64 CURVE SMOOTH",
"296 64 OFFCURVE",
"280 66 OFFCURVE",
"262 71 CURVE"
);
}
);
};
components = (
{
name = D;
transform = "{1, 0, 0, 1, 0, 0}";
}
);
layerId = "7A18FD7C-8538-4E93-8010-D52488023CDD";
name = Regular;
paths = (
{
closed = 1;
nodes = (
"290 290 LINE SMOOTH",
"332 290 OFFCURVE",
"358 310 OFFCURVE",
"358 352 CURVE SMOOTH",
"358 359 OFFCURVE",
"356 373 OFFCURVE",
"353 382 CURVE",
"61 382 LINE SMOOTH",
"19 382 OFFCURVE",
"-7 362 OFFCURVE",
"-7 320 CURVE SMOOTH",
"-7 313 OFFCURVE",
"-6 299 OFFCURVE",
"-3 290 CURVE"
);
}
);
width = 662;
},
{
components = (
{
name = D;
transform = "{1, 0, 0, 1, -5.412, 0}";
}
);
layerId = "508D1370-0BED-4DB0-A4B4-D9F3BBD09B88";
name = Bold;
paths = (
{
closed = 1;
nodes = (
"298 286 LINE SMOOTH",
"346 286 OFFCURVE",
"374 311 OFFCURVE",
"374 358 CURVE SMOOTH",
"374 363 OFFCURVE",
"372 376 OFFCURVE",
"371 385 CURVE",
"73 385 LINE SMOOTH",
"25 385 OFFCURVE",
"-3 360 OFFCURVE",
"-3 312 CURVE SMOOTH",
"-3 308 OFFCURVE",
"-3 295 OFFCURVE",
"-1 286 CURVE"
);
}
);
width = 710;
}
);
leftMetricsKey = Eth;
rightKerningGroup = O;
rightMetricsKey = D;
unicode = 0110;
},
{
glyphname = E;
lastChange = "2015-01-28 23:09:48 +0000";
layers = (
{
anchors = (
{
name = bottom;
position = "{206, 0}";
},
{
name = ogonek;
position = "{403, 10}";
},
{
name = top;
position = "{229, 660}";
},
{
name = topcase;
position = "{227, 700}";
}
);
layerId = UUID0;
name = Light;
paths = (
{
closed = 1;
nodes = (
"60 660 LINE",
"60 0 LINE",
"401 0 LINE",
"408 74 LINE",
"176 74 LINE",
"176 302 LINE",
"364 302 LINE",
"364 376 LINE",
"176 376 LINE",
"176 586 LINE",
"394 586 LINE",
"394 660 LINE"
);
}
);
width = 438;
},
{
anchors = (
{
name = bottom;
position = "{228, 0}";
},
{
name = ogonek;
position = "{454, 10}";
},
{
name = top;
position = "{246, 660}";
},
{
name = topcase;
position = "{245, 700}";
}
);
layerId = "7A18FD7C-8538-4E93-8010-D52488023CDD";
name = Regular;
paths = (
{
closed = 1;
nodes = (
"50 660 LINE",
"50 0 LINE",
"447 0 LINE",
"455 84 LINE",
"262 84 LINE",
"262 297 LINE",
"410 297 LINE",
"410 381 LINE",
"262 381 LINE",
"262 576 LINE",
"440 576 LINE",
"440 660 LINE"
);
}
);
width = 456;
},
{
anchors = (
{
name = bottom;
position = "{239.906, 0}";
},
{
name = ogonek;
position = "{481.6, 10}";
},
{
name = top;
position = "{255.2, 660}";
},
{
name = topcase;
position = "{254.741, 700}";
}
);
layerId = "508D1370-0BED-4DB0-A4B4-D9F3BBD09B88";
name = Bold;
paths = (
{
closed = 1;
nodes = (
"45 660 LINE",
"45 0 LINE",
"472 0 LINE",
"480 89 LINE",
"309 89 LINE",
"309 294 LINE",
"435 294 LINE",
"435 384 LINE",
"309 384 LINE",
"309 571 LINE",
"465 571 LINE",
"465 660 LINE"
);
}
);
width = 466;
}
);
leftMetricsKey = H;
unicode = 0045;
},
{
glyphname = Eogonek;
lastChange = "2015-01-28 23:09:48 +0000";
layers = (
{
components = (
{
name = E;
transform = "{1, 0, 0, 1, 0, 0}";
},
{
name = ogonek;
transform = "{1, 0, 0, 1, 240, 7}";
}
);
layerId = UUID0;
name = Light;
width = 438;
},
{
background = {
paths = (
{
closed = 1;
nodes = (
"262 576 LINE",
"440 576 LINE",
"440 660 LINE",
"50 660 LINE",
"50 0 LINE",
"372 0 LINE",
"312 -35 OFFCURVE",
"260 -86 OFFCURVE",
"260 -155 CURVE SMOOTH",
"260 -231 OFFCURVE",
"332 -258 OFFCURVE",
"408 -258 CURVE SMOOTH",
"448 -258 OFFCURVE",
"516 -244 OFFCURVE",
"516 -204 CURVE SMOOTH",
"516 -186 OFFCURVE",
"504 -174 OFFCURVE",
"491 -166 CURVE",
"479 -184 OFFCURVE",
"448 -191 OFFCURVE",
"427 -191 CURVE SMOOTH",
"387 -191 OFFCURVE",
"366 -177 OFFCURVE",
"366 -137 CURVE SMOOTH",
"366 -86 OFFCURVE",
"402 -36 OFFCURVE",
"447 0 CURVE",
"455 84 LINE",
"262 84 LINE",
"262 297 LINE",
"410 297 LINE",
"410 381 LINE",
"262 381 LINE"
);
}
);
};
components = (
{
name = E;
transform = "{1, 0, 0, 1, 0, 0}";
},
{
name = ogonek;
transform = "{1, 0, 0, 1, 235, -6}";
}
);
layerId = "7A18FD7C-8538-4E93-8010-D52488023CDD";
name = Regular;
width = 456;
},
{
components = (
{
name = E;
transform = "{1, 0, 0, 1, 0, 0}";
},
{
name = ogonek;
transform = "{1, 0, 0, 1, 232.6, -13}";
}
);
layerId = "508D1370-0BED-4DB0-A4B4-D9F3BBD09B88";
name = Bold;
width = 466;
}
);
leftMetricsKey = E;
unicode = 0118;
},
{
glyphname = F;
lastChange = "2015-01-28 23:09:48 +0000";
layers = (
{
layerId = UUID0;
name = Light;
paths = (
{
closed = 1;
nodes = (
"60 660 LINE",
"60 0 LINE",
"176 0 LINE",
"176 288 LINE",
"364 288 LINE",
"364 362 LINE",
"176 362 LINE",
"176 586 LINE",
"394 586 LINE",
"394 660 LINE"
);
}
);
width = 417;
},
{
layerId = "7A18FD7C-8538-4E93-8010-D52488023CDD";
name = Regular;
paths = (
{
closed = 1;
nodes = (
"50 660 LINE",
"50 0 LINE",
"262 0 LINE",
"262 283 LINE",
"410 283 LINE",
"410 367 LINE",
"262 367 LINE",
"262 576 LINE",
"440 576 LINE",
"440 660 LINE"
);
}
);
width = 441;
},
{
layerId = "508D1370-0BED-4DB0-A4B4-D9F3BBD09B88";
name = Bold;
paths = (
{
closed = 1;
nodes = (
"45 660 LINE",
"45 0 LINE",
"309 0 LINE",
"309 280 LINE",
"435 280 LINE",
"435 370 LINE",
"309 370 LINE",
"309 571 LINE",
"465 571 LINE",
"465 660 LINE"
);
}
);
width = 454;
}
);
leftMetricsKey = H;
unicode = 0046;
},
{
glyphname = G;
lastChange = "2015-01-28 23:09:48 +0000";
layers = (
{
anchors = (
{
name = bottom;
position = "{317, 0}";
},
{
name = top;
position = "{293, 660}";
},
{
name = topcase;
position = "{295, 700}";
}
);
layerId = UUID0;
name = Light;
paths = (
{
closed = 1;
nodes = (
"352 610 OFFCURVE",
"382 576 OFFCURVE",
"382 519 CURVE SMOOTH",
"382 505 OFFCURVE",
"379 483 OFFCURVE",
"374 469 CURVE",
"387 457 OFFCURVE",
"409 453 OFFCURVE",
"426 453 CURVE SMOOTH",
"473 453 OFFCURVE",
"503 487 OFFCURVE",
"503 534 CURVE SMOOTH",
"503 642 OFFCURVE",
"412 680 OFFCURVE",
"304 680 CURVE SMOOTH",
"104 680 OFFCURVE",
"34 527 OFFCURVE",
"34 327 CURVE SMOOTH",
"34 125 OFFCURVE",
"97 -22 OFFCURVE",
"297 -22 CURVE SMOOTH",
"354 -22 OFFCURVE",
"440 -8 OFFCURVE",
"491 19 CURVE",
"491 20 LINE",
"491 317 LINE",
"383 303 LINE",
"387 69 LINE",
"359 59 OFFCURVE",
"330 55 OFFCURVE",
"300 55 CURVE SMOOTH",
"174 55 OFFCURVE",
"159 206 OFFCURVE",
"159 332 CURVE SMOOTH",
"159 453 OFFCURVE",
"175 610 OFFCURVE",
"295 610 CURVE SMOOTH"
);
}
);
width = 545;
},
{
anchors = (
{
name = bottom;
position = "{377, 0}";
},
{
name = top;
position = "{340, 660}";
},
{
name = topcase;
position = "{345, 700}";
}
);
layerId = "7A18FD7C-8538-4E93-8010-D52488023CDD";
name = Regular;
paths = (
{
closed = 1;
nodes = (
"403 606 OFFCURVE",
"421 553 OFFCURVE",
"421 494 CURVE SMOOTH",
"421 474 OFFCURVE",
"419 459 OFFCURVE",
"415 439 CURVE",
"431 434 OFFCURVE",
"452 432 OFFCURVE",
"467 432 CURVE SMOOTH",
"535 432 OFFCURVE",
"591 473 OFFCURVE",
"591 545 CURVE SMOOTH",
"591 657 OFFCURVE",
"470 680 OFFCURVE",
"358 680 CURVE SMOOTH",
"131 680 OFFCURVE",
"20 553 OFFCURVE",
"20 326 CURVE SMOOTH",
"20 132 OFFCURVE",
"114 -22 OFFCURVE",
"342 -22 CURVE SMOOTH",
"422 -22 OFFCURVE",
"502 -11 OFFCURVE",
"577 19 CURVE",
"577 21 LINE",
"577 317 LINE",
"422 303 LINE",
"429 111 LINE",
"414 106 OFFCURVE",
"394 103 OFFCURVE",
"377 103 CURVE SMOOTH",
"260 103 OFFCURVE",
"248 237 OFFCURVE",
"248 364 CURVE SMOOTH",
"248 452 OFFCURVE",
"256 606 OFFCURVE",
"344 606 CURVE SMOOTH"
);
}
);
width = 609;
},
{
anchors = (
{
name = bottom;
position = "{409.471, 0}";
},
{
name = top;
position = "{365.435, 660}";
},
{
name = topcase;
position = "{372.059, 700}";
}
);
layerId = "508D1370-0BED-4DB0-A4B4-D9F3BBD09B88";
name = Bold;
paths = (
{
closed = 1;
nodes = (
"431 604 OFFCURVE",
"442 541 OFFCURVE",
"442 480 CURVE SMOOTH",
"442 457 OFFCURVE",
"441 446 OFFCURVE",
"437 423 CURVE",
"455 422 OFFCURVE",
"475 421 OFFCURVE",
"489 421 CURVE SMOOTH",
"569 421 OFFCURVE",
"639 465 OFFCURVE",
"639 551 CURVE SMOOTH",
"639 665 OFFCURVE",
"501 680 OFFCURVE",
"387 680 CURVE SMOOTH",
"146 680 OFFCURVE",
"12 567 OFFCURVE",
"12 325 CURVE SMOOTH",
"12 136 OFFCURVE",
"123 -22 OFFCURVE",
"366 -22 CURVE SMOOTH",
"459 -22 OFFCURVE",
"536 -13 OFFCURVE",
"624 19 CURVE",
"624 22 LINE",
"624 317 LINE",
"443 303 LINE",
"452 134 LINE",
"444 131 OFFCURVE",
"429 129 OFFCURVE",
"419 129 CURVE SMOOTH",
"307 129 OFFCURVE",
"296 254 OFFCURVE",
"296 381 CURVE SMOOTH",
"296 451 OFFCURVE",
"300 604 OFFCURVE",
"371 604 CURVE SMOOTH"
);
}
);
width = 644;
}
);
leftKerningGroup = O;
leftMetricsKey = O;
unicode = 0047;
},
{
glyphname = H;
lastChange = "2015-01-28 23:09:48 +0000";
layers = (
{
anchors = (
{
name = bottom;
position = "{300, 0}";
},
{
name = center;
position = "{289, 330}";
},
{
name = top;
position = "{289, 660}";
}
);
layerId = UUID0;
name = Light;
paths = (
{
closed = 1;
nodes = (
"401 660 LINE",
"401 371 LINE",
"176 371 LINE",
"176 660 LINE",
"60 660 LINE",
"60 0 LINE",
"176 0 LINE",
"176 297 LINE",
"401 297 LINE",
"401 0 LINE",
"517 0 LINE",
"517 660 LINE"
);
}
);
width = 577;
},
{
anchors = (
{
name = bottom;
position = "{329, 0}";
},
{
name = center;
position = "{336, 330}";
},
{
name = top;
position = "{336, 660}";
}
);
layerId = "7A18FD7C-8538-4E93-8010-D52488023CDD";
name = Regular;
paths = (
{
closed = 1;
nodes = (
"410 660 LINE",
"410 376 LINE",
"262 376 LINE",
"262 660 LINE",
"50 660 LINE",
"50 0 LINE",
"262 0 LINE",
"262 292 LINE",
"410 292 LINE",
"410 0 LINE",
"622 0 LINE",
"622 660 LINE"
);
}
);
width = 672;
},
{
anchors = (
{
name = bottom;
position = "{367, 0}";
},
{
name = center;
position = "{361.435, 330}";
},
{
name = top;
position = "{361.435, 660}";
}
);
layerId = "508D1370-0BED-4DB0-A4B4-D9F3BBD09B88";
name = Bold;
paths = (
{
closed = 1;
nodes = (
"415 660 LINE",
"415 379 LINE",
"309 379 LINE",
"309 660 LINE",
"45 660 LINE",
"45 0 LINE",
"309 0 LINE",
"309 289 LINE",
"415 289 LINE",
"415 0 LINE",
"679 0 LINE",
"679 660 LINE"
);
}
);
width = 723;
}
);
unicode = 0048;
},
{
glyphname = Hbar;
lastChange = "2015-01-28 23:09:48 +0000";
layers = (
{
layerId = UUID0;
name = Light;
paths = (
{
closed = 1;
nodes = (
"181 0 LINE",
"181 297 LINE",
"406 297 LINE",
"406 0 LINE",
"522 0 LINE",
"522 472 LINE",
"494 447 LINE",
"538 447 LINE SMOOTH",
"578 447 OFFCURVE",
"593 461 OFFCURVE",
"593 484 CURVE SMOOTH",
"593 498 OFFCURVE",
"588 510 OFFCURVE",
"584 519 CURVE",
"522 519 LINE",
"522 660 LINE",
"406 660 LINE",
"406 519 LINE",
"181 519 LINE",
"181 660 LINE",
"65 660 LINE",
"65 490 LINE",
"92 519 LINE",
"44 519 LINE SMOOTH",
"12 519 OFFCURVE",
"-4 505 OFFCURVE",
"-4 481 CURVE SMOOTH",
"-4 468 OFFCURVE",
"0 456 OFFCURVE",
"4 447 CURVE",
"65 447 LINE",
"65 0 LINE"
);
},
{
closed = 1;
nodes = (
"406 371 LINE",
"181 371 LINE",
"181 447 LINE",
"406 447 LINE"
);
}
);
width = 587;
},
{
layerId = "7A18FD7C-8538-4E93-8010-D52488023CDD";
name = Regular;
paths = (
{
closed = 1;
nodes = (
"280 0 LINE",
"280 292 LINE",
"428 292 LINE",
"428 0 LINE",
"640 0 LINE",
"640 510 LINE",
"619 483 LINE",
"640 483 LINE SMOOTH",
"681 483 OFFCURVE",
"708 503 OFFCURVE",
"708 545 CURVE SMOOTH",
"708 551 OFFCURVE",
"706 566 OFFCURVE",
"704 575 CURVE",
"640 575 LINE",
"640 660 LINE",
"428 660 LINE",
"428 575 LINE",
"280 575 LINE",
"280 660 LINE",
"68 660 LINE",
"68 548 LINE",
"91 575 LINE",
"68 575 LINE SMOOTH",
"27 575 OFFCURVE",
"1 555 OFFCURVE",
"1 513 CURVE SMOOTH",
"1 505 OFFCURVE",
"2 492 OFFCURVE",
"5 483 CURVE",
"68 483 LINE",
"68 0 LINE"
);
},
{
closed = 1;
nodes = (
"428 376 LINE",
"280 376 LINE",
"280 483 LINE",
"428 483 LINE"
);
}
);
width = 708;
},
{
layerId = "508D1370-0BED-4DB0-A4B4-D9F3BBD09B88";
name = Bold;
paths = (
{
closed = 1;
nodes = (
"334 0 LINE",
"334 289 LINE",
"440 289 LINE",
"440 0 LINE",
"704 0 LINE",
"704 531 LINE",
"687 502 LINE",
"695 502 LINE SMOOTH",
"737 502 OFFCURVE",
"770 526 OFFCURVE",
"770 578 CURVE SMOOTH",
"770 580 OFFCURVE",
"770 596 OFFCURVE",
"769 605 CURVE",
"704 605 LINE",
"704 660 LINE",
"440 660 LINE",
"440 605 LINE",
"334 605 LINE",
"334 660 LINE",
"70 660 LINE",
"70 579 LINE",
"90 605 LINE",
"81 605 LINE SMOOTH",
"35 605 OFFCURVE",
"4 582 OFFCURVE",
"4 530 CURVE SMOOTH",
"4 525 OFFCURVE",
"3 511 OFFCURVE",
"6 502 CURVE",
"70 502 LINE",
"70 0 LINE"
);
},
{
closed = 1;
nodes = (
"440 379 LINE",
"334 379 LINE",
"334 502 LINE",
"440 502 LINE"
);
}
);
width = 773;
}
);
unicode = 0126;
},
{
glyphname = I;
lastChange = "2015-01-28 23:09:48 +0000";
layers = (
{
anchors = (
{
name = bottom;
position = "{116, 0}";
},
{
name = ogonek;
position = "{184, 10}";
},
{
name = top;
position = "{118, 660}";
},
{
name = topcase;
position = "{118, 700}";
}
);
layerId = UUID0;
name = Light;
paths = (
{
closed = 1;
nodes = (
"60 660 LINE",
"60 0 LINE",
"176 0 LINE",
"176 660 LINE"
);
}
);
width = 236;
},
{
anchors = (
{
name = bottom;
position = "{154, 0}";
},
{
name = ogonek;
position = "{268, 10}";
},
{
name = top;
position = "{156, 660}";
},
{
name = topcase;
position = "{156, 700}";
}
);
layerId = "7A18FD7C-8538-4E93-8010-D52488023CDD";
name = Regular;
paths = (
{
closed = 1;
nodes = (
"50 660 LINE",
"50 0 LINE",
"262 0 LINE",
"262 660 LINE"
);
}
);
width = 312;
},
{
anchors = (
{
name = bottom;
position = "{174.565, 0}";
},
{
name = ogonek;
position = "{313.459, 10}";
},
{
name = top;
position = "{176.565, 660}";
},
{
name = topcase;
position = "{176.565, 700}";
}
);
layerId = "508D1370-0BED-4DB0-A4B4-D9F3BBD09B88";
name = Bold;
paths = (
{
closed = 1;
nodes = (
"45 660 LINE",
"45 0 LINE",
"309 0 LINE",
"309 660 LINE"
);
}
);
width = 353;
}
);
leftMetricsKey = H;
rightMetricsKey = H;
unicode = 0049;
},
{
glyphname = J;
lastChange = "2015-01-28 23:09:48 +0000";
layers = (
{
anchors = (
{
name = top;
position = "{118, 660}";
},
{
name = topcase;
position = "{118, 700}";
}
);
layerId = UUID0;
name = Light;
paths = (
{
closed = 1;
nodes = (
"176 660 LINE",
"60 660 LINE",
"60 59 LINE SMOOTH",
"60 -26 OFFCURVE",
"47 -113 OFFCURVE",
"-38 -113 CURVE",
"-38 -147 OFFCURVE",
"2 -160 OFFCURVE",
"35 -160 CURVE SMOOTH",
"157 -160 OFFCURVE",
"176 -26 OFFCURVE",
"176 95 CURVE SMOOTH"
);
}
);
width = 236;
},
{
anchors = (
{
name = top;
position = "{156, 660}";
},
{
name = topcase;
position = "{156, 700}";
}
);
layerId = "7A18FD7C-8538-4E93-8010-D52488023CDD";
name = Regular;
paths = (
{
closed = 1;
nodes = (
"262 660 LINE",
"50 660 LINE",
"50 52 LINE SMOOTH",
"50 -36 OFFCURVE",
"48 -125 OFFCURVE",
"-40 -135 CURVE",
"-20 -178 OFFCURVE",
"37 -190 OFFCURVE",
"84 -190 CURVE SMOOTH",
"228 -190 OFFCURVE",
"262 -65 OFFCURVE",
"262 79 CURVE SMOOTH"
);
}
);
width = 312;
},
{
anchors = (
{
name = top;
position = "{176.565, 660}";
},
{
name = topcase;
position = "{176.565, 700}";
}
);
layerId = "508D1370-0BED-4DB0-A4B4-D9F3BBD09B88";
name = Bold;
paths = (
{
closed = 1;
nodes = (
"309 660 LINE",
"45 660 LINE",
"45 48 LINE SMOOTH",
"45 -41 OFFCURVE",
"49 -131 OFFCURVE",
"-41 -147 CURVE",
"-10 -195 OFFCURVE",
"56 -206 OFFCURVE",
"111 -206 CURVE SMOOTH",
"266 -206 OFFCURVE",
"309 -86 OFFCURVE",
"309 70 CURVE SMOOTH"
);
}
);
width = 353;
}
);
rightMetricsKey = H;
unicode = 004A;
},
{
glyphname = K;
lastChange = "2015-01-28 23:09:48 +0000";
layers = (
{
anchors = (
{
name = bottom;
position = "{281, 0}";
},
{
name = top;
position = "{242, 660}";
}
);
layerId = UUID0;
name = Light;
paths = (
{
closed = 1;
nodes = (
"176 660 LINE",
"60 660 LINE",
"60 0 LINE",
"176 0 LINE"
);
},
{
closed = 1;
nodes = (
"197 334 LINE",
"387 0 LINE",
"514 0 LINE",
"308 353 LINE",
"500 660 LINE",
"380 660 LINE"
);
}
);
width = 493;
},
{
anchors = (
{
name = bottom;
position = "{348, 0}";
},
{
name = top;
position = "{321, 660}";
}
);
layerId = "7A18FD7C-8538-4E93-8010-D52488023CDD";
name = Regular;
paths = (
{
closed = 1;
nodes = (
"262 660 LINE",
"50 660 LINE",
"50 0 LINE",
"262 0 LINE"
);
},
{
closed = 1;
nodes = (
"282 334 LINE",
"438 0 LINE",
"655 0 LINE",
"483 353 LINE",
"641 660 LINE",
"431 660 LINE"
);
}
);
width = 641;
},
{
anchors = (
{
name = bottom;
position = "{384.259, 0}";
},
{
name = top;
position = "{363.753, 660}";
}
);
layerId = "508D1370-0BED-4DB0-A4B4-D9F3BBD09B88";
name = Bold;
paths = (
{
closed = 1;
nodes = (
"309 660 LINE",
"45 660 LINE",
"45 0 LINE",
"309 0 LINE"
);
},
{
closed = 1;
nodes = (
"328 334 LINE",
"466 0 LINE",
"731 0 LINE",
"578 353 LINE",
"717 660 LINE",
"459 660 LINE"
);
}
);
width = 721;
}
);
leftMetricsKey = H;
rightKerningGroup = K;
unicode = 004B;
},
{
glyphname = L;
lastChange = "2015-01-28 23:09:48 +0000";
layers = (
{
anchors = (
{
name = bottom;
position = "{225, 0}";
},
{
name = top;
position = "{119, 660}";
},
{
name = topcase;
position = "{119, 700}";
},
{
name = topright;
position = "{289, 660}";
}
);
layerId = UUID0;
name = Light;
paths = (
{
closed = 1;
nodes = (
"60 0 LINE",
"387 0 LINE",
"394 74 LINE",
"176 74 LINE",
"176 660 LINE",
"60 660 LINE"
);
}
);
width = 399;
},
{
anchors = (
{
name = bottom;
position = "{247, 0}";
},
{
name = top;
position = "{157, 660}";
},
{
name = topcase;
position = "{156, 700}";
},
{
name = topright;
position = "{380, 660}";
}
);
layerId = "7A18FD7C-8538-4E93-8010-D52488023CDD";
name = Regular;
paths = (
{
closed = 1;
nodes = (
"50 0 LINE",
"433 0 LINE",
"443 90 LINE",
"262 90 LINE",
"262 660 LINE",
"50 660 LINE"
);
}
);
width = 448;
},
{
anchors = (
{
name = bottom;
position = "{258.906, 0}";
},
{
name = top;
position = "{177.565, 660}";
},
{
name = topcase;
position = "{176.024, 700}";
},
{
name = topright;
position = "{429.247, 660}";
}
);
layerId = "508D1370-0BED-4DB0-A4B4-D9F3BBD09B88";
name = Bold;
paths = (
{
closed = 1;
nodes = (
"45 0 LINE",
"458 0 LINE",
"470 99 LINE",
"309 99 LINE",
"309 660 LINE",
"45 660 LINE"
);
}
);
width = 475;
}
);
leftMetricsKey = H;
rightKerningGroup = L;
unicode = 004C;
},
{
glyphname = Ldot;
lastChange = "2015-01-28 23:09:48 +0000";
layers = (
{
components = (
{
name = L;
transform = "{1, 0, 0, 1, 0, 0}";
}
);
layerId = UUID0;
name = Light;
paths = (
{
closed = 1;
nodes = (
"275 406 OFFCURVE",
"245 385 OFFCURVE",
"245 347 CURVE SMOOTH",
"245 311 OFFCURVE",
"272 290 OFFCURVE",
"303 290 CURVE SMOOTH",
"334 290 OFFCURVE",
"364 311 OFFCURVE",
"364 349 CURVE SMOOTH",
"364 385 OFFCURVE",
"337 406 OFFCURVE",
"306 406 CURVE SMOOTH"
);
}
);
width = 399;
},
{
components = (
{
name = L;
transform = "{1, 0, 0, 1, 0, 0}";
}
);
layerId = "7A18FD7C-8538-4E93-8010-D52488023CDD";
name = Regular;
paths = (
{
closed = 1;
nodes = (
"345 395 OFFCURVE",
"316 367 OFFCURVE",
"316 323 CURVE SMOOTH",
"316 283 OFFCURVE",
"340 256 OFFCURVE",
"382 256 CURVE SMOOTH",
"424 256 OFFCURVE",
"450 283 OFFCURVE",
"450 326 CURVE SMOOTH",
"450 368 OFFCURVE",
"426 395 OFFCURVE",
"386 395 CURVE SMOOTH"
);
}
);
width = 485;
},
{
components = (
{
name = L;
transform = "{1, 0, 0, 1, 0, 0}";
}
);
layerId = "508D1370-0BED-4DB0-A4B4-D9F3BBD09B88";
name = Bold;
paths = (
{
closed = 1;
nodes = (
"384 387 OFFCURVE",
"351 353 OFFCURVE",
"351 310 CURVE SMOOTH",
"351 272 OFFCURVE",
"379 240 OFFCURVE",
"425 240 CURVE SMOOTH",
"471 240 OFFCURVE",
"500 272 OFFCURVE",
"500 314 CURVE SMOOTH",
"500 354 OFFCURVE",
"473 387 OFFCURVE",
"429 387 CURVE SMOOTH"
);
}
);
width = 532;
}
);
leftMetricsKey = L;
rightMetricsKey = L;
unicode = 013F;
},
{
glyphname = Lslash;
lastChange = "2015-01-28 23:09:48 +0000";
layers = (
{
layerId = UUID0;
name = Light;
paths = (
{
closed = 1;
nodes = (
"100 0 LINE",
"427 0 LINE",
"434 74 LINE",
"216 74 LINE",
"216 316 LINE",
"337 364 LINE SMOOTH",
"358 373 OFFCURVE",
"366 388 OFFCURVE",
"366 405 CURVE SMOOTH",
"366 427 OFFCURVE",
"352 443 OFFCURVE",
"340 454 CURVE",
"216 404 LINE",
"216 660 LINE",
"100 660 LINE",
"100 358 LINE",
"14 324 LINE SMOOTH",
"-7 315 OFFCURVE",
"-15 300 OFFCURVE",
"-15 283 CURVE SMOOTH",
"-15 261 OFFCURVE",
"-1 245 OFFCURVE",
"11 234 CURVE",
"100 269 LINE"
);
}
);
width = 439;
},
{
layerId = "7A18FD7C-8538-4E93-8010-D52488023CDD";
name = Regular;
paths = (
{
closed = 1;
nodes = (
"110 0 LINE",
"493 0 LINE",
"503 90 LINE",
"322 90 LINE",
"322 309 LINE",
"399 337 LINE SMOOTH",
"429 348 OFFCURVE",
"446 364 OFFCURVE",
"446 393 CURVE SMOOTH",
"446 406 OFFCURVE",
"442 426 OFFCURVE",
"427 446 CURVE",
"322 408 LINE",
"322 660 LINE",
"110 660 LINE",
"110 330 LINE",
"52 309 LINE SMOOTH",
"22 298 OFFCURVE",
"5 283 OFFCURVE",
"5 254 CURVE SMOOTH",
"5 240 OFFCURVE",
"10 219 OFFCURVE",
"24 201 CURVE",
"110 232 LINE"
);
}
);
width = 508;
},
{
layerId = "508D1370-0BED-4DB0-A4B4-D9F3BBD09B88";
name = Bold;
paths = (
{
closed = 1;
nodes = (
"115 0 LINE",
"529 0 LINE",
"540 99 LINE",
"379 99 LINE",
"379 305 LINE",
"433 322 LINE SMOOTH",
"467 334 OFFCURVE",
"489 351 OFFCURVE",
"489 387 CURVE SMOOTH",
"489 395 OFFCURVE",
"491 417 OFFCURVE",
"474 442 CURVE",
"379 410 LINE",
"379 660 LINE",
"115 660 LINE",
"115 315 LINE",
"73 301 LINE SMOOTH",
"38 289 OFFCURVE",
"16 274 OFFCURVE",
"16 238 CURVE SMOOTH",
"16 229 OFFCURVE",
"16 205 OFFCURVE",
"31 183 CURVE",
"115 212 LINE"
);
}
);
width = 545;
}
);
rightMetricsKey = L;
unicode = 0141;
},
{
glyphname = M;
lastChange = "2015-01-28 23:09:48 +0000";
layers = (
{
layerId = UUID0;
name = Light;
paths = (
{
closed = 1;
nodes = (
"501 660 LINE",
"368 184 LINE",
"235 660 LINE",
"60 660 LINE",
"60 0 LINE",
"154 0 LINE",
"154 553 LINE",
"314 0 LINE",
"391 0 LINE",
"551 551 LINE",
"551 0 LINE",
"667 0 LINE",
"667 660 LINE"
);
}
);
width = 727;
},
{
layerId = "7A18FD7C-8538-4E93-8010-D52488023CDD";
name = Regular;
paths = (
{
closed = 1;
nodes = (
"542 660 LINE",
"433 290 LINE",
"324 660 LINE",
"50 660 LINE",
"50 0 LINE",
"163 0 LINE",
"163 512 LINE",
"325 0 LINE",
"440 0 LINE",
"602 512 LINE",
"602 0 LINE",
"814 0 LINE",
"814 660 LINE"
);
}
);
width = 864;
},
{
layerId = "508D1370-0BED-4DB0-A4B4-D9F3BBD09B88";
name = Bold;
paths = (
{
closed = 1;
nodes = (
"564 660 LINE",
"468 347 LINE",
"372 660 LINE",
"45 660 LINE",
"45 0 LINE",
"168 0 LINE",
"168 490 LINE",
"331 0 LINE",
"467 0 LINE",
"630 491 LINE",
"630 0 LINE",
"894 0 LINE",
"894 660 LINE"
);
}
);
width = 938;
}
);
leftMetricsKey = H;
rightMetricsKey = H;
unicode = 004D;
},
{
glyphname = N;
lastChange = "2015-01-28 23:09:48 +0000";
layers = (
{
anchors = (
{
name = bottom;
position = "{282, 0}";
},
{
name = top;
position = "{284, 660}";
},
{
name = topcase;
position = "{282, 700}";
}
);
layerId = UUID0;
name = Light;
paths = (
{
closed = 1;
nodes = (
"507 0 LINE",
"507 660 LINE",
"413 660 LINE",
"413 208 LINE",
"147 660 LINE",
"60 660 LINE",
"60 0 LINE",
"154 0 LINE",
"154 452 LINE",
"420 0 LINE"
);
}
);
width = 567;
},
{
anchors = (
{
name = bottom;
position = "{333, 0}";
},
{
name = top;
position = "{333, 660}";
},
{
name = topcase;
position = "{333, 700}";
}
);
layerId = "7A18FD7C-8538-4E93-8010-D52488023CDD";
name = Regular;
paths = (
{
closed = 1;
nodes = (
"616 0 LINE",
"616 660 LINE",
"503 660 LINE",
"503 172 LINE",
"297 660 LINE",
"50 660 LINE",
"50 0 LINE",
"163 0 LINE",
"163 488 LINE",
"369 0 LINE"
);
}
);
width = 666;
},
{
anchors = (
{
name = bottom;
position = "{360.6, 0}";
},
{
name = top;
position = "{359.518, 660}";
},
{
name = topcase;
position = "{360.6, 700}";
}
);
layerId = "508D1370-0BED-4DB0-A4B4-D9F3BBD09B88";
name = Bold;
paths = (
{
closed = 1;
nodes = (
"675 0 LINE",
"675 660 LINE",
"552 660 LINE",
"552 153 LINE",
"378 660 LINE",
"45 660 LINE",
"45 0 LINE",
"168 0 LINE",
"168 507 LINE",
"341 0 LINE"
);
}
);
width = 720;
}
);
leftMetricsKey = H;
rightMetricsKey = H;
unicode = 004E;
},
{
glyphname = Eng;
lastChange = "2015-01-28 23:09:48 +0000";
layers = (
{
layerId = UUID0;
name = Light;
paths = (
{
closed = 1;
nodes = (
"507 660 LINE",
"413 660 LINE",
"413 218 LINE",
"147 660 LINE",
"60 660 LINE",
"60 0 LINE",
"154 0 LINE",
"154 442 LINE",
"420 0 LINE",
"447 0 LINE",
"419 40 LINE",
"424 -37 OFFCURVE",
"413 -123 OFFCURVE",
"336 -123 CURVE",
"336 -150 OFFCURVE",
"367 -160 OFFCURVE",
"394 -160 CURVE SMOOTH",
"492 -160 OFFCURVE",
"507 -58 OFFCURVE",
"507 39 CURVE"
);
}
);
width = 567;
},
{
layerId = "7A18FD7C-8538-4E93-8010-D52488023CDD";
name = Regular;
paths = (
{
closed = 1;
nodes = (
"616 660 LINE",
"503 660 LINE",
"503 172 LINE",
"297 660 LINE",
"50 660 LINE",
"50 0 LINE",
"163 0 LINE",
"163 488 LINE",
"369 0 LINE",
"562 0 LINE",
"504 68 LINE",
"499 -19 OFFCURVE",
"519 -153 OFFCURVE",
"421 -166 CURVE",
"435 -188 OFFCURVE",
"464 -200 OFFCURVE",
"499 -200 CURVE SMOOTH",
"616 -200 OFFCURVE",
"616 -62 OFFCURVE",
"616 55 CURVE SMOOTH"
);
}
);
width = 666;
},
{
layerId = "508D1370-0BED-4DB0-A4B4-D9F3BBD09B88";
name = Bold;
paths = (
{
closed = 1;
nodes = (
"675 660 LINE",
"552 660 LINE",
"552 147 LINE",
"378 660 LINE",
"45 660 LINE",
"45 0 LINE",
"168 0 LINE",
"168 513 LINE",
"341 0 LINE",
"624 0 LINE",
"550 83 LINE",
"540 -9 OFFCURVE",
"576 -169 OFFCURVE",
"467 -189 CURVE",
"489 -209 OFFCURVE",
"516 -222 OFFCURVE",
"556 -222 CURVE SMOOTH",
"683 -222 OFFCURVE",
"675 -64 OFFCURVE",
"675 64 CURVE SMOOTH"
);
}
);
width = 720;
}
);
leftMetricsKey = N;
rightMetricsKey = N;
unicode = 014A;
},
{
glyphname = O;
lastChange = "2015-01-28 23:09:48 +0000";
layers = (
{
anchors = (
{
name = bottom;
position = "{290, 0}";
},
{
name = ogonek;
position = "{402, 0}";
},
{
name = top;
position = "{290, 660}";
},
{
name = topcase;
position = "{290, 700}";
}
);
layerId = UUID0;
name = Light;
paths = (
{
closed = 1;
nodes = (
"97 680 OFFCURVE",
"34 520 OFFCURVE",
"34 327 CURVE SMOOTH",
"34 128 OFFCURVE",
"93 -22 OFFCURVE",
"290 -22 CURVE SMOOTH",
"489 -22 OFFCURVE",
"546 140 OFFCURVE",
"546 339 CURVE SMOOTH",
"546 533 OFFCURVE",
"484 680 OFFCURVE",
"290 680 CURVE SMOOTH"
);
},
{
closed = 1;
nodes = (
"168 48 OFFCURVE",
"159 210 OFFCURVE",
"159 332 CURVE SMOOTH",
"159 450 OFFCURVE",
"172 610 OFFCURVE",
"290 610 CURVE SMOOTH",
"408 610 OFFCURVE",
"421 450 OFFCURVE",
"421 332 CURVE SMOOTH",
"421 210 OFFCURVE",
"412 48 OFFCURVE",
"290 48 CURVE SMOOTH"
);
}
);
width = 580;
},
{
anchors = (
{
name = bottom;
position = "{334, 0}";
},
{
name = ogonek;
position = "{461, 0}";
},
{
name = top;
position = "{334, 660}";
},
{
name = topcase;
position = "{334, 700}";
}
);
layerId = "7A18FD7C-8538-4E93-8010-D52488023CDD";
name = Regular;
paths = (
{
closed = 1;
nodes = (
"119 680 OFFCURVE",
"20 541 OFFCURVE",
"20 326 CURVE SMOOTH",
"20 121 OFFCURVE",
"129 -22 OFFCURVE",
"334 -22 CURVE SMOOTH",
"546 -22 OFFCURVE",
"648 127 OFFCURVE",
"648 339 CURVE SMOOTH",
"648 554 OFFCURVE",
"549 680 OFFCURVE",
"334 680 CURVE SMOOTH"
);
},
{
closed = 1;
nodes = (
"253 52 OFFCURVE",
"248 219 OFFCURVE",
"248 333 CURVE SMOOTH",
"248 447 OFFCURVE",
"253 606 OFFCURVE",
"334 606 CURVE SMOOTH",
"415 606 OFFCURVE",
"420 447 OFFCURVE",
"420 333 CURVE SMOOTH",
"420 219 OFFCURVE",
"415 52 OFFCURVE",
"334 52 CURVE SMOOTH"
);
}
);
width = 668;
},
{
anchors = (
{
name = bottom;
position = "{357.812, 0}";
},
{
name = ogonek;
position = "{492.929, 0}";
},
{
name = top;
position = "{357.812, 660}";
},
{
name = topcase;
position = "{357.812, 700}";
}
);
layerId = "508D1370-0BED-4DB0-A4B4-D9F3BBD09B88";
name = Bold;
paths = (
{
closed = 1;
nodes = (
"131 680 OFFCURVE",
"12 552 OFFCURVE",
"12 325 CURVE SMOOTH",
"12 117 OFFCURVE",
"148 -22 OFFCURVE",
"358 -22 CURVE SMOOTH",
"577 -22 OFFCURVE",
"703 120 OFFCURVE",
"703 339 CURVE SMOOTH",
"703 565 OFFCURVE",
"584 680 OFFCURVE",
"358 680 CURVE SMOOTH"
);
},
{
closed = 1;
nodes = (
"299 54 OFFCURVE",
"296 224 OFFCURVE",
"296 334 CURVE SMOOTH",
"296 445 OFFCURVE",
"297 604 OFFCURVE",
"358 604 CURVE SMOOTH",
"419 604 OFFCURVE",
"419 445 OFFCURVE",
"419 334 CURVE SMOOTH",
"419 224 OFFCURVE",
"417 54 OFFCURVE",
"358 54 CURVE SMOOTH"
);
}
);
width = 716;
}
);
leftKerningGroup = O;
rightKerningGroup = O;
unicode = 004F;
},
{
glyphname = Oslash;
lastChange = "2015-01-28 23:09:48 +0000";
layers = (
{
anchors = (
{
name = top;
position = "{303, 660}";
}
);
components = (
{
name = O;
transform = "{1, 0, 0, 1, 0, 0}";
}
);
layerId = UUID0;
name = Light;
paths = (
{
closed = 1;
nodes = (
"29 24 LINE SMOOTH",
"22 14 OFFCURVE",
"14 0 OFFCURVE",
"14 -11 CURVE SMOOTH",
"14 -37 OFFCURVE",
"57 -51 OFFCURVE",
"68 -53 CURVE",
"560 636 LINE SMOOTH",
"567 646 OFFCURVE",
"575 660 OFFCURVE",
"575 671 CURVE SMOOTH",
"575 697 OFFCURVE",
"532 711 OFFCURVE",
"521 713 CURVE"
);
}
);
width = 580;
},
{
anchors = (
{
name = top;
position = "{334, 660}";
}
);
components = (
{
name = O;
transform = "{1, 0, 0, 1, 0, 0}";
}
);
layerId = "7A18FD7C-8538-4E93-8010-D52488023CDD";
name = Regular;
paths = (
{
closed = 1;
nodes = (
"58 27 LINE SMOOTH",
"49 14 OFFCURVE",
"42 -1 OFFCURVE",
"42 -13 CURVE SMOOTH",
"42 -44 OFFCURVE",
"79 -57 OFFCURVE",
"110 -57 CURVE",
"568 636 LINE SMOOTH",
"577 649 OFFCURVE",
"584 664 OFFCURVE",
"584 676 CURVE SMOOTH",
"584 707 OFFCURVE",
"547 720 OFFCURVE",
"516 720 CURVE"
);
}
);
width = 668;
},
{
anchors = (
{
name = top;
position = "{350.776, 660}";
}
);
components = (
{
name = O;
transform = "{1, 0, 0, 1, 0, 0}";
}
);
layerId = "508D1370-0BED-4DB0-A4B4-D9F3BBD09B88";
name = Bold;
paths = (
{
closed = 1;
nodes = (
"74 29 LINE SMOOTH",
"64 14 OFFCURVE",
"57 -2 OFFCURVE",
"57 -14 CURVE SMOOTH",
"57 -48 OFFCURVE",
"91 -60 OFFCURVE",
"133 -59 CURVE",
"572 636 LINE SMOOTH",
"582 651 OFFCURVE",
"589 666 OFFCURVE",
"589 679 CURVE SMOOTH",
"589 712 OFFCURVE",
"555 725 OFFCURVE",
"513 724 CURVE"
);
}
);
width = 716;
}
);
leftKerningGroup = O;
rightKerningGroup = O;
unicode = 00D8;
},
{
glyphname = OE;
lastChange = "2015-01-28 23:09:48 +0000";
layers = (
{
anchors = (
{
name = top;
position = "{400, 660}";
}
);
background = {
paths = (
{
closed = 1;
nodes = (
"727 660 LINE",
"414 660 LINE",
"383 673 OFFCURVE",
"347 680 OFFCURVE",
"304 680 CURVE SMOOTH",
"111 680 OFFCURVE",
"48 520 OFFCURVE",
"48 327 CURVE SMOOTH",
"48 128 OFFCURVE",
"107 -22 OFFCURVE",
"304 -22 CURVE SMOOTH",
"347 -22 OFFCURVE",
"384 -14 OFFCURVE",
"415 0 CURVE",
"734 0 LINE",
"741 74 LINE",
"529 74 LINE",
"529 302 LINE",
"697 302 LINE",
"697 376 LINE",
"529 376 LINE",
"529 586 LINE",
"727 586 LINE"
);
},
{
closed = 1;
nodes = (
"182 48 OFFCURVE",
"173 210 OFFCURVE",
"173 332 CURVE SMOOTH",
"173 450 OFFCURVE",
"186 610 OFFCURVE",
"304 610 CURVE SMOOTH",
"350 610 OFFCURVE",
"388 591 OFFCURVE",
"413 555 CURVE",
"413 97 LINE",
"387 63 OFFCURVE",
"349 48 OFFCURVE",
"304 48 CURVE SMOOTH"
);
}
);
};
layerId = UUID0;
name = Light;
paths = (
{
closed = 1;
nodes = (
"97 680 OFFCURVE",
"34 520 OFFCURVE",
"34 327 CURVE SMOOTH",
"34 128 OFFCURVE",
"93 -22 OFFCURVE",
"290 -22 CURVE SMOOTH",
"389 -22 OFFCURVE",
"453 18 OFFCURVE",
"492 83 CURVE",
"492 580 LINE",
"453 642 OFFCURVE",
"388 680 OFFCURVE",
"290 680 CURVE SMOOTH"
);
},
{
closed = 1;
nodes = (
"168 48 OFFCURVE",
"159 210 OFFCURVE",
"159 332 CURVE SMOOTH",
"159 450 OFFCURVE",
"172 610 OFFCURVE",
"290 610 CURVE SMOOTH",
"408 610 OFFCURVE",
"490 450 OFFCURVE",
"490 332 CURVE SMOOTH",
"490 210 OFFCURVE",
"412 48 OFFCURVE",
"290 48 CURVE SMOOTH"
);
},
{
closed = 1;
nodes = (
"713 660 LINE",
"399 660 LINE",
"399 0 LINE",
"720 0 LINE",
"727 74 LINE",
"515 74 LINE",
"515 302 LINE",
"683 302 LINE",
"683 376 LINE",
"515 376 LINE",
"515 586 LINE",
"713 586 LINE"
);
}
);
width = 757;
},
{
anchors = (
{
name = top;
position = "{404, 660}";
}
);
layerId = "7A18FD7C-8538-4E93-8010-D52488023CDD";
name = Regular;
paths = (
{
closed = 1;
nodes = (
"119 680 OFFCURVE",
"20 541 OFFCURVE",
"20 326 CURVE SMOOTH",
"20 121 OFFCURVE",
"129 -22 OFFCURVE",
"334 -22 CURVE SMOOTH",
"441 -22 OFFCURVE",
"521 17 OFFCURVE",
"573 82 CURVE",
"533 625 LINE",
"484 661 OFFCURVE",
"417 680 OFFCURVE",
"334 680 CURVE SMOOTH"
);
},
{
closed = 1;
nodes = (
"253 52 OFFCURVE",
"248 219 OFFCURVE",
"248 333 CURVE SMOOTH",
"248 447 OFFCURVE",
"253 606 OFFCURVE",
"334 606 CURVE SMOOTH",
"415 606 OFFCURVE",
"420 447 OFFCURVE",
"420 333 CURVE SMOOTH",
"420 219 OFFCURVE",
"415 52 OFFCURVE",
"334 52 CURVE SMOOTH"
);
},
{
closed = 1;
nodes = (
"791 660 LINE",
"441 660 LINE",
"441 0 LINE",
"798 0 LINE",
"806 84 LINE",
"613 84 LINE",
"613 297 LINE",
"761 297 LINE",
"761 381 LINE",
"613 381 LINE",
"613 576 LINE",
"791 576 LINE"
);
}
);
width = 807;
},
{
anchors = (
{
name = top;
position = "{406.165, 660}";
}
);
layerId = "508D1370-0BED-4DB0-A4B4-D9F3BBD09B88";
name = Bold;
paths = (
{
closed = 1;
nodes = (
"131 680 OFFCURVE",
"12 552 OFFCURVE",
"12 325 CURVE SMOOTH",
"12 117 OFFCURVE",
"148 -22 OFFCURVE",
"358 -22 CURVE SMOOTH",
"469 -22 OFFCURVE",
"558 16 OFFCURVE",
"617 81 CURVE",
"555 649 LINE",
"501 671 OFFCURVE",
"433 680 OFFCURVE",
"358 680 CURVE SMOOTH"
);
},
{
closed = 1;
nodes = (
"299 54 OFFCURVE",
"296 224 OFFCURVE",
"296 334 CURVE SMOOTH",
"296 445 OFFCURVE",
"297 604 OFFCURVE",
"358 604 CURVE SMOOTH",
"419 604 OFFCURVE",
"422 445 OFFCURVE",
"422 334 CURVE SMOOTH",
"422 224 OFFCURVE",
"417 54 OFFCURVE",
"358 54 CURVE SMOOTH"
);
},
{
closed = 1;
nodes = (
"833 660 LINE",
"464 660 LINE",
"464 0 LINE",
"840 0 LINE",
"849 89 LINE",
"666 89 LINE",
"666 294 LINE",
"803 294 LINE",
"803 384 LINE",
"666 384 LINE",
"666 571 LINE",
"833 571 LINE"
);
}
);
width = 834;
}
);
leftKerningGroup = O;
leftMetricsKey = O;
rightMetricsKey = E;
unicode = 0152;
},
{
glyphname = P;
lastChange = "2015-01-28 23:09:48 +0000";
layers = (
{
layerId = UUID0;
name = Light;
paths = (
{
closed = 1;
nodes = (
"484 616 OFFCURVE",
"389 664 OFFCURVE",
"247 664 CURVE SMOOTH",
"188 664 OFFCURVE",
"119 660 OFFCURVE",
"60 656 CURVE",
"60 0 LINE",
"176 0 LINE",
"176 589 LINE",
"196 592 OFFCURVE",
"220 594 OFFCURVE",
"240 594 CURVE SMOOTH",
"324 594 OFFCURVE",
"365 554 OFFCURVE",
"365 470 CURVE SMOOTH",
"365 370 OFFCURVE",
"316 326 OFFCURVE",
"216 326 CURVE",
"216 290 OFFCURVE",
"260 280 OFFCURVE",
"296 280 CURVE SMOOTH",
"411 280 OFFCURVE",
"484 359 OFFCURVE",
"484 474 CURVE SMOOTH"
);
}
);
width = 494;
},
{
layerId = "7A18FD7C-8538-4E93-8010-D52488023CDD";
name = Regular;
paths = (
{
closed = 1;
nodes = (
"601 626 OFFCURVE",
"465 665 OFFCURVE",
"304 665 CURVE SMOOTH",
"219 665 OFFCURVE",
"140 660 OFFCURVE",
"50 651 CURVE",
"50 0 LINE",
"262 0 LINE",
"262 585 LINE",
"275 589 OFFCURVE",
"291 591 OFFCURVE",
"304 591 CURVE SMOOTH",
"375 591 OFFCURVE",
"393 533 OFFCURVE",
"393 462 CURVE SMOOTH",
"393 381 OFFCURVE",
"371 337 OFFCURVE",
"290 337 CURVE",
"290 280 OFFCURVE",
"342 263 OFFCURVE",
"399 263 CURVE SMOOTH",
"520 263 OFFCURVE",
"601 344 OFFCURVE",
"601 465 CURVE SMOOTH"
);
}
);
width = 615;
},
{
layerId = "508D1370-0BED-4DB0-A4B4-D9F3BBD09B88";
name = Bold;
paths = (
{
closed = 1;
nodes = (
"664 631 OFFCURVE",
"506 666 OFFCURVE",
"335 666 CURVE SMOOTH",
"236 666 OFFCURVE",
"151 660 OFFCURVE",
"45 648 CURVE",
"45 0 LINE",
"309 0 LINE",
"309 583 LINE",
"318 587 OFFCURVE",
"329 589 OFFCURVE",
"339 589 CURVE SMOOTH",
"403 589 OFFCURVE",
"408 522 OFFCURVE",
"408 458 CURVE SMOOTH",
"408 387 OFFCURVE",
"401 343 OFFCURVE",
"330 343 CURVE",
"330 275 OFFCURVE",
"386 254 OFFCURVE",
"455 254 CURVE SMOOTH",
"579 254 OFFCURVE",
"664 336 OFFCURVE",
"664 460 CURVE SMOOTH"
);
}
);
width = 680;
}
);
leftMetricsKey = H;
unicode = 0050;
},
{
glyphname = Thorn;
lastChange = "2015-01-28 23:09:48 +0000";
layers = (
{
layerId = UUID0;
name = Light;
paths = (
{
closed = 1;
nodes = (
"60 660 LINE",
"60 0 LINE",
"176 0 LINE",
"176 463 LINE",
"196 466 OFFCURVE",
"220 468 OFFCURVE",
"240 468 CURVE SMOOTH",
"324 468 OFFCURVE",
"365 428 OFFCURVE",
"365 344 CURVE SMOOTH",
"365 244 OFFCURVE",
"316 200 OFFCURVE",
"216 200 CURVE",
"216 164 OFFCURVE",
"260 154 OFFCURVE",
"296 154 CURVE SMOOTH",
"411 154 OFFCURVE",
"484 233 OFFCURVE",
"484 348 CURVE SMOOTH",
"484 490 OFFCURVE",
"389 538 OFFCURVE",
"247 538 CURVE SMOOTH",
"224 538 OFFCURVE",
"200 537 OFFCURVE",
"176 536 CURVE",
"176 660 LINE"
);
}
);
width = 494;
},
{
layerId = "7A18FD7C-8538-4E93-8010-D52488023CDD";
name = Regular;
paths = (
{
closed = 1;
nodes = (
"50 660 LINE",
"50 0 LINE",
"262 0 LINE",
"262 457 LINE",
"275 461 OFFCURVE",
"291 463 OFFCURVE",
"304 463 CURVE SMOOTH",
"375 463 OFFCURVE",
"393 405 OFFCURVE",
"393 334 CURVE SMOOTH",
"393 253 OFFCURVE",
"371 209 OFFCURVE",
"290 209 CURVE",
"290 152 OFFCURVE",
"342 135 OFFCURVE",
"399 135 CURVE SMOOTH",
"520 135 OFFCURVE",
"601 216 OFFCURVE",
"601 337 CURVE SMOOTH",
"601 498 OFFCURVE",
"465 537 OFFCURVE",
"304 537 CURVE SMOOTH",
"290 537 OFFCURVE",
"276 537 OFFCURVE",
"262 537 CURVE",
"262 660 LINE"
);
}
);
width = 615;
},
{
layerId = "508D1370-0BED-4DB0-A4B4-D9F3BBD09B88";
name = Bold;
paths = (
{
closed = 1;
nodes = (
"45 660 LINE",
"45 0 LINE",
"309 0 LINE",
"309 454 LINE",
"318 458 OFFCURVE",
"329 460 OFFCURVE",
"339 460 CURVE SMOOTH",
"403 460 OFFCURVE",
"408 393 OFFCURVE",
"408 329 CURVE SMOOTH",
"408 258 OFFCURVE",
"381 214 OFFCURVE",
"330 214 CURVE",
"330 170 OFFCURVE",
"386 125 OFFCURVE",
"455 125 CURVE SMOOTH",
"579 125 OFFCURVE",
"664 207 OFFCURVE",
"664 331 CURVE SMOOTH",
"664 502 OFFCURVE",
"554 536 OFFCURVE",
"383 536 CURVE SMOOTH",
"374 536 OFFCURVE",
"317 536 OFFCURVE",
"309 536 CURVE",
"309 660 LINE"
);
}
);
width = 680;
}
);
leftMetricsKey = H;
rightMetricsKey = P;
unicode = 00DE;
},
{
glyphname = Q;
lastChange = "2015-01-28 23:09:48 +0000";
layers = (
{
layerId = UUID0;
name = Light;
paths = (
{
closed = 1;
nodes = (
"97 680 OFFCURVE",
"34 520 OFFCURVE",
"34 327 CURVE SMOOTH",
"34 156 OFFCURVE",
"77 21 OFFCURVE",
"214 -13 CURVE",
"178 -13 OFFCURVE",
"150 -23 OFFCURVE",
"150 -57 CURVE SMOOTH",
"150 -69 OFFCURVE",
"155 -83 OFFCURVE",
"164 -92 CURVE",
"180 -85 OFFCURVE",
"202 -84 OFFCURVE",
"219 -84 CURVE SMOOTH",
"297 -84 OFFCURVE",
"388 -142 OFFCURVE",
"482 -142 CURVE SMOOTH",
"527 -142 OFFCURVE",
"561 -126 OFFCURVE",
"561 -81 CURVE SMOOTH",
"561 -61 OFFCURVE",
"551 -41 OFFCURVE",
"538 -23 CURVE",
"515 -42 OFFCURVE",
"488 -45 OFFCURVE",
"459 -45 CURVE SMOOTH",
"409 -45 OFFCURVE",
"339 -33 OFFCURVE",
"290 -22 CURVE",
"489 -22 OFFCURVE",
"546 140 OFFCURVE",
"546 339 CURVE SMOOTH",
"546 533 OFFCURVE",
"484 680 OFFCURVE",
"290 680 CURVE SMOOTH"
);
},
{
closed = 1;
nodes = (
"408 610 OFFCURVE",
"421 450 OFFCURVE",
"421 332 CURVE SMOOTH",
"421 210 OFFCURVE",
"412 48 OFFCURVE",
"290 48 CURVE SMOOTH",
"168 48 OFFCURVE",
"159 210 OFFCURVE",
"159 332 CURVE SMOOTH",
"159 450 OFFCURVE",
"172 610 OFFCURVE",
"290 610 CURVE SMOOTH"
);
}
);
width = 580;
},
{
layerId = "7A18FD7C-8538-4E93-8010-D52488023CDD";
name = Regular;
paths = (
{
closed = 1;
nodes = (
"119 680 OFFCURVE",
"20 541 OFFCURVE",
"20 326 CURVE SMOOTH",
"20 168 OFFCURVE",
"85 47 OFFCURVE",
"208 0 CURVE",
"153 -1 OFFCURVE",
"107 -10 OFFCURVE",
"107 -65 CURVE SMOOTH",
"107 -83 OFFCURVE",
"115 -102 OFFCURVE",
"128 -116 CURVE",
"151 -105 OFFCURVE",
"183 -104 OFFCURVE",
"208 -104 CURVE SMOOTH",
"322 -104 OFFCURVE",
"433 -188 OFFCURVE",
"546 -188 CURVE SMOOTH",
"601 -188 OFFCURVE",
"642 -165 OFFCURVE",
"642 -100 CURVE SMOOTH",
"642 -68 OFFCURVE",
"630 -44 OFFCURVE",
"615 -18 CURVE",
"586 -46 OFFCURVE",
"554 -50 OFFCURVE",
"519 -50 CURVE SMOOTH",
"464 -50 OFFCURVE",
"392 -36 OFFCURVE",
"335 -22 CURVE",
"510 -20 OFFCURVE",
"648 128 OFFCURVE",
"648 339 CURVE SMOOTH",
"648 554 OFFCURVE",
"549 680 OFFCURVE",
"334 680 CURVE SMOOTH"
);
},
{
closed = 1;
nodes = (
"415 606 OFFCURVE",
"420 447 OFFCURVE",
"420 333 CURVE SMOOTH",
"420 219 OFFCURVE",
"415 52 OFFCURVE",
"334 52 CURVE SMOOTH",
"253 52 OFFCURVE",
"248 219 OFFCURVE",
"248 333 CURVE SMOOTH",
"248 447 OFFCURVE",
"253 606 OFFCURVE",
"334 606 CURVE SMOOTH"
);
}
);
width = 668;
},
{
layerId = "508D1370-0BED-4DB0-A4B4-D9F3BBD09B88";
name = Bold;
paths = (
{
closed = 1;
nodes = (
"131 680 OFFCURVE",
"12 552 OFFCURVE",
"12 325 CURVE SMOOTH",
"12 174 OFFCURVE",
"89 61 OFFCURVE",
"205 7 CURVE",
"139 5 OFFCURVE",
"84 -3 OFFCURVE",
"84 -69 CURVE SMOOTH",
"84 -91 OFFCURVE",
"93 -112 OFFCURVE",
"109 -129 CURVE",
"135 -116 OFFCURVE",
"173 -115 OFFCURVE",
"202 -115 CURVE SMOOTH",
"336 -115 OFFCURVE",
"457 -213 OFFCURVE",
"581 -213 CURVE SMOOTH",
"641 -213 OFFCURVE",
"686 -186 OFFCURVE",
"686 -110 CURVE SMOOTH",
"686 -72 OFFCURVE",
"673 -46 OFFCURVE",
"657 -15 CURVE",
"624 -48 OFFCURVE",
"590 -53 OFFCURVE",
"551 -53 CURVE SMOOTH",
"494 -53 OFFCURVE",
"421 -38 OFFCURVE",
"359 -22 CURVE",
"521 -19 OFFCURVE",
"703 122 OFFCURVE",
"703 339 CURVE SMOOTH",
"703 565 OFFCURVE",
"584 680 OFFCURVE",
"358 680 CURVE SMOOTH"
);
},
{
closed = 1;
nodes = (
"419 604 OFFCURVE",
"419 445 OFFCURVE",
"419 334 CURVE SMOOTH",
"419 224 OFFCURVE",
"417 54 OFFCURVE",
"358 54 CURVE SMOOTH",
"299 54 OFFCURVE",
"296 224 OFFCURVE",
"296 334 CURVE SMOOTH",
"296 445 OFFCURVE",
"297 604 OFFCURVE",
"358 604 CURVE SMOOTH"
);
}
);
width = 716;
}
);
leftMetricsKey = O;
unicode = 0051;
},
{
glyphname = R;
lastChange = "2015-01-28 23:09:48 +0000";
layers = (
{
anchors = (
{
name = bottom;
position = "{289, 0}";
},
{
name = top;
position = "{248, 660}";
},
{
name = topcase;
position = "{247, 700}";
}
);
layerId = UUID0;
name = Light;
paths = (
{
closed = 1;
nodes = (
"484 615 OFFCURVE",
"387 664 OFFCURVE",
"247 664 CURVE SMOOTH",
"188 664 OFFCURVE",
"119 660 OFFCURVE",
"60 656 CURVE",
"60 0 LINE",
"176 0 LINE",
"176 589 LINE",
"196 592 OFFCURVE",
"220 594 OFFCURVE",
"240 594 CURVE SMOOTH",
"324 594 OFFCURVE",
"365 555 OFFCURVE",
"365 475 CURVE SMOOTH",
"365 378 OFFCURVE",
"317 336 OFFCURVE",
"217 336 CURVE",
"217 329 OFFCURVE",
"219 323 OFFCURVE",
"223 316 CURVE SMOOTH",
"402 0 LINE",
"529 0 LINE",
"355 298 LINE",
"435 320 OFFCURVE",
"484 388 OFFCURVE",
"484 479 CURVE SMOOTH"
);
}
);
width = 530;
},
{
anchors = (
{
name = bottom;
position = "{337, 0}";
},
{
name = top;
position = "{306, 660}";
},
{
name = topcase;
position = "{304, 700}";
}
);
layerId = "7A18FD7C-8538-4E93-8010-D52488023CDD";
name = Regular;
paths = (
{
closed = 1;
nodes = (
"591 628 OFFCURVE",
"467 665 OFFCURVE",
"304 665 CURVE SMOOTH",
"219 665 OFFCURVE",
"140 660 OFFCURVE",
"50 651 CURVE",
"50 0 LINE",
"262 0 LINE",
"262 585 LINE",
"275 589 OFFCURVE",
"291 591 OFFCURVE",
"304 591 CURVE SMOOTH",
"370 591 OFFCURVE",
"383 529 OFFCURVE",
"383 462 CURVE SMOOTH",
"383 386 OFFCURVE",
"366 337 OFFCURVE",
"290 337 CURVE",
"290 323 OFFCURVE",
"294 311 OFFCURVE",
"299 298 CURVE SMOOTH",
"417 0 LINE",
"634 0 LINE",
"475 279 LINE",
"547 308 OFFCURVE",
"591 375 OFFCURVE",
"591 465 CURVE SMOOTH"
);
}
);
width = 620;
},
{
anchors = (
{
name = bottom;
position = "{362.976, 0}";
},
{
name = top;
position = "{337.388, 660}";
},
{
name = topcase;
position = "{334.847, 700}";
}
);
layerId = "508D1370-0BED-4DB0-A4B4-D9F3BBD09B88";
name = Bold;
paths = (
{
closed = 1;
nodes = (
"649 635 OFFCURVE",
"510 666 OFFCURVE",
"335 666 CURVE SMOOTH",
"236 666 OFFCURVE",
"151 660 OFFCURVE",
"45 648 CURVE",
"45 0 LINE",
"309 0 LINE",
"309 583 LINE",
"318 587 OFFCURVE",
"329 589 OFFCURVE",
"339 589 CURVE SMOOTH",
"395 589 OFFCURVE",
"393 515 OFFCURVE",
"393 455 CURVE SMOOTH",
"393 390 OFFCURVE",
"393 338 OFFCURVE",
"330 338 CURVE",
"330 320 OFFCURVE",
"335 305 OFFCURVE",
"340 288 CURVE SMOOTH",
"425 0 LINE",
"691 0 LINE",
"540 269 LINE",
"608 302 OFFCURVE",
"649 368 OFFCURVE",
"649 457 CURVE SMOOTH"
);
}
);
width = 669;
}
);
leftMetricsKey = H;
unicode = 0052;
},
{
glyphname = S;
lastChange = "2015-01-28 23:09:48 +0000";
layers = (
{
anchors = (
{
name = bottom;
position = "{233, 0}";
},
{
name = top;
position = "{236, 660}";
},
{
name = topcase;
position = "{234, 699}";
}
);
layerId = UUID0;
name = Light;
paths = (
{
closed = 1;
nodes = (
"133 680 OFFCURVE",
"44 621 OFFCURVE",
"44 511 CURVE SMOOTH",
"44 312 OFFCURVE",
"332 286 OFFCURVE",
"332 135 CURVE SMOOTH",
"332 78 OFFCURVE",
"289 44 OFFCURVE",
"232 44 CURVE SMOOTH",
"170 44 OFFCURVE",
"141 77 OFFCURVE",
"141 139 CURVE SMOOTH",
"141 153 OFFCURVE",
"144 175 OFFCURVE",
"149 189 CURVE",
"136 201 OFFCURVE",
"114 205 OFFCURVE",
"97 205 CURVE SMOOTH",
"50 205 OFFCURVE",
"20 171 OFFCURVE",
"20 124 CURVE SMOOTH",
"20 17 OFFCURVE",
"116 -22 OFFCURVE",
"223 -22 CURVE SMOOTH",
"346 -22 OFFCURVE",
"441 42 OFFCURVE",
"441 165 CURVE SMOOTH",
"441 364 OFFCURVE",
"153 390 OFFCURVE",
"153 541 CURVE SMOOTH",
"153 590 OFFCURVE",
"185 614 OFFCURVE",
"234 614 CURVE SMOOTH",
"289 614 OFFCURVE",
"313 581 OFFCURVE",
"313 526 CURVE SMOOTH",
"313 512 OFFCURVE",
"310 490 OFFCURVE",
"305 476 CURVE",
"318 464 OFFCURVE",
"340 460 OFFCURVE",
"357 460 CURVE SMOOTH",
"404 460 OFFCURVE",
"434 494 OFFCURVE",
"434 541 CURVE SMOOTH",
"434 645 OFFCURVE",
"347 680 OFFCURVE",
"243 680 CURVE SMOOTH"
);
}
);
width = 471;
},
{
anchors = (
{
name = bottom;
position = "{251, 0}";
},
{
name = top;
position = "{280, 660}";
},
{
name = topcase;
position = "{281, 700}";
}
);
layerId = "7A18FD7C-8538-4E93-8010-D52488023CDD";
name = Regular;
paths = (
{
closed = 1;
nodes = (
"161 680 OFFCURVE",
"29 612 OFFCURVE",
"29 478 CURVE SMOOTH",
"29 257 OFFCURVE",
"346 292 OFFCURVE",
"346 128 CURVE SMOOTH",
"346 79 OFFCURVE",
"314 52 OFFCURVE",
"265 52 CURVE SMOOTH",
"201 52 OFFCURVE",
"184 100 OFFCURVE",
"184 164 CURVE SMOOTH",
"184 184 OFFCURVE",
"186 199 OFFCURVE",
"190 219 CURVE",
"174 224 OFFCURVE",
"153 226 OFFCURVE",
"138 226 CURVE SMOOTH",
"70 226 OFFCURVE",
"14 185 OFFCURVE",
"14 113 CURVE SMOOTH",
"14 6 OFFCURVE",
"144 -22 OFFCURVE",
"251 -22 CURVE SMOOTH",
"405 -22 OFFCURVE",
"533 37 OFFCURVE",
"533 191 CURVE SMOOTH",
"533 412 OFFCURVE",
"216 377 OFFCURVE",
"216 541 CURVE SMOOTH",
"216 581 OFFCURVE",
"241 606 OFFCURVE",
"281 606 CURVE SMOOTH",
"330 606 OFFCURVE",
"348 572 OFFCURVE",
"348 524 CURVE SMOOTH",
"348 502 OFFCURVE",
"346 481 OFFCURVE",
"342 459 CURVE",
"358 454 OFFCURVE",
"379 452 OFFCURVE",
"394 452 CURVE SMOOTH",
"462 452 OFFCURVE",
"518 483 OFFCURVE",
"518 555 CURVE SMOOTH",
"518 652 OFFCURVE",
"392 680 OFFCURVE",
"295 680 CURVE SMOOTH"
);
}
);
width = 553;
},
{
anchors = (
{
name = bottom;
position = "{260.741, 0}";
},
{
name = top;
position = "{303.812, 660}";
},
{
name = topcase;
position = "{306.435, 700.541}";
}
);
layerId = "508D1370-0BED-4DB0-A4B4-D9F3BBD09B88";
name = Bold;
paths = (
{
closed = 1;
nodes = (
"176 680 OFFCURVE",
"21 607 OFFCURVE",
"21 460 CURVE SMOOTH",
"21 227 OFFCURVE",
"354 295 OFFCURVE",
"354 124 CURVE SMOOTH",
"354 80 OFFCURVE",
"328 56 OFFCURVE",
"283 56 CURVE SMOOTH",
"218 56 OFFCURVE",
"207 112 OFFCURVE",
"207 178 CURVE SMOOTH",
"207 201 OFFCURVE",
"209 212 OFFCURVE",
"212 235 CURVE",
"195 236 OFFCURVE",
"174 237 OFFCURVE",
"160 237 CURVE SMOOTH",
"81 237 OFFCURVE",
"11 193 OFFCURVE",
"11 107 CURVE SMOOTH",
"11 0 OFFCURVE",
"159 -22 OFFCURVE",
"266 -22 CURVE SMOOTH",
"437 -22 OFFCURVE",
"583 34 OFFCURVE",
"583 205 CURVE SMOOTH",
"583 438 OFFCURVE",
"250 370 OFFCURVE",
"250 541 CURVE SMOOTH",
"250 576 OFFCURVE",
"271 602 OFFCURVE",
"306 602 CURVE SMOOTH",
"352 602 OFFCURVE",
"367 567 OFFCURVE",
"367 523 CURVE SMOOTH",
"367 497 OFFCURVE",
"365 476 OFFCURVE",
"362 450 CURVE",
"380 449 OFFCURVE",
"400 448 OFFCURVE",
"414 448 CURVE SMOOTH",
"493 448 OFFCURVE",
"563 477 OFFCURVE",
"563 563 CURVE SMOOTH",
"563 656 OFFCURVE",
"416 680 OFFCURVE",
"323 680 CURVE SMOOTH"
);
}
);
width = 597;
}
);
unicode = 0053;
},
{
glyphname = Germandbls;
lastChange = "2015-01-28 23:09:48 +0000";
layers = (
{
layerId = UUID0;
name = Light;
paths = (
{
closed = 1;
nodes = (
"166 0 LINE",
"164 332 LINE SMOOTH",
"163 467 OFFCURVE",
"174 610 OFFCURVE",
"309 610 CURVE SMOOTH",
"354 610 OFFCURVE",
"390 591 OFFCURVE",
"418 555 CURVE",
"355 538 OFFCURVE",
"304 503 OFFCURVE",
"304 438 CURVE SMOOTH",
"304 269 OFFCURVE",
"535 274 OFFCURVE",
"535 135 CURVE SMOOTH",
"535 77 OFFCURVE",
"503 44 OFFCURVE",
"445 44 CURVE SMOOTH",
"387 44 OFFCURVE",
"364 81 OFFCURVE",
"364 139 CURVE SMOOTH",
"364 153 OFFCURVE",
"367 175 OFFCURVE",
"372 189 CURVE",
"359 201 OFFCURVE",
"337 205 OFFCURVE",
"320 205 CURVE SMOOTH",
"273 205 OFFCURVE",
"243 171 OFFCURVE",
"243 124 CURVE SMOOTH",
"243 21 OFFCURVE",
"333 -22 OFFCURVE",
"436 -22 CURVE SMOOTH",
"557 -22 OFFCURVE",
"637 38 OFFCURVE",
"637 159 CURVE SMOOTH",
"637 328 OFFCURVE",
"406 360 OFFCURVE",
"406 451 CURVE SMOOTH",
"406 514 OFFCURVE",
"473 536 OFFCURVE",
"534 555 CURVE",
"493 637 OFFCURVE",
"409 680 OFFCURVE",
"318 680 CURVE SMOOTH",
"104 680 OFFCURVE",
"47 546 OFFCURVE",
"48 332 CURVE SMOOTH",
"50 0 LINE"
);
}
);
width = 645;
},
{
layerId = "7A18FD7C-8538-4E93-8010-D52488023CDD";
name = Regular;
paths = (
{
closed = 1;
nodes = (
"255 0 LINE",
"255 332 LINE SMOOTH",
"255 511 OFFCURVE",
"277 605 OFFCURVE",
"384 605 CURVE SMOOTH",
"435 605 OFFCURVE",
"469 581 OFFCURVE",
"492 554 CURVE",
"422 531 OFFCURVE",
"352 485 OFFCURVE",
"352 402 CURVE SMOOTH",
"352 269 OFFCURVE",
"568 219 OFFCURVE",
"568 98 CURVE SMOOTH",
"568 62 OFFCURVE",
"548 35 OFFCURVE",
"512 35 CURVE SMOOTH",
"470 35 OFFCURVE",
"459 69 OFFCURVE",
"459 111 CURVE SMOOTH",
"459 127 OFFCURVE",
"461 145 OFFCURVE",
"463 161 CURVE",
"452 168 OFFCURVE",
"423 170 OFFCURVE",
"410 170 CURVE SMOOTH",
"352 170 OFFCURVE",
"298 146 OFFCURVE",
"298 88 CURVE SMOOTH",
"298 0 OFFCURVE",
"417 -22 OFFCURVE",
"505 -22 CURVE SMOOTH",
"632 -22 OFFCURVE",
"741 22 OFFCURVE",
"741 149 CURVE SMOOTH",
"741 292 OFFCURVE",
"515 352 OFFCURVE",
"515 453 CURVE SMOOTH",
"515 517 OFFCURVE",
"589 544 OFFCURVE",
"653 554 CURVE",
"592 648 OFFCURVE",
"496 680 OFFCURVE",
"384 680 CURVE SMOOTH",
"145 680 OFFCURVE",
"40 560 OFFCURVE",
"40 321 CURVE SMOOTH",
"40 0 LINE"
);
}
);
width = 756;
},
{
layerId = "508D1370-0BED-4DB0-A4B4-D9F3BBD09B88";
name = Bold;
paths = (
{
closed = 1;
nodes = (
"303 0 LINE",
"304 332 LINE SMOOTH",
"305 535 OFFCURVE",
"333 602 OFFCURVE",
"425 602 CURVE SMOOTH",
"479 602 OFFCURVE",
"512 576 OFFCURVE",
"532 553 CURVE",
"458 527 OFFCURVE",
"378 475 OFFCURVE",
"378 383 CURVE SMOOTH",
"378 269 OFFCURVE",
"586 189 OFFCURVE",
"586 78 CURVE SMOOTH",
"586 54 OFFCURVE",
"572 30 OFFCURVE",
"548 30 CURVE SMOOTH",
"515 30 OFFCURVE",
"510 63 OFFCURVE",
"510 96 CURVE SMOOTH",
"510 113 OFFCURVE",
"512 129 OFFCURVE",
"512 146 CURVE",
"502 150 OFFCURVE",
"470 151 OFFCURVE",
"459 151 CURVE SMOOTH",
"395 151 OFFCURVE",
"328 132 OFFCURVE",
"328 69 CURVE SMOOTH",
"328 -11 OFFCURVE",
"462 -22 OFFCURVE",
"542 -22 CURVE SMOOTH",
"673 -22 OFFCURVE",
"797 13 OFFCURVE",
"797 144 CURVE SMOOTH",
"797 273 OFFCURVE",
"574 348 OFFCURVE",
"574 454 CURVE SMOOTH",
"574 519 OFFCURVE",
"652 548 OFFCURVE",
"717 553 CURVE",
"646 654 OFFCURVE",
"543 680 OFFCURVE",
"420 680 CURVE SMOOTH",
"167 680 OFFCURVE",
"36 568 OFFCURVE",
"36 315 CURVE SMOOTH",
"35 0 LINE"
);
}
);
width = 816;
}
);
unicode = 1E9E;
},
{
glyphname = Schwa;
lastChange = "2015-01-28 23:09:48 +0000";
layers = (
{
layerId = UUID0;
name = Light;
paths = (
{
closed = 1;
nodes = (
"450 -22 OFFCURVE",
"522 139 OFFCURVE",
"522 346 CURVE SMOOTH",
"522 539 OFFCURVE",
"460 683 OFFCURVE",
"266 683 CURVE SMOOTH",
"169 683 OFFCURVE",
"59 626 OFFCURVE",
"59 530 CURVE SMOOTH",
"59 507 OFFCURVE",
"65 485 OFFCURVE",
"87 473 CURVE",
"120 543 OFFCURVE",
"179 595 OFFCURVE",
"254 595 CURVE SMOOTH",
"367 595 OFFCURVE",
"388 478 OFFCURVE",
"391 364 CURVE",
"374 365 OFFCURVE",
"342 367 OFFCURVE",
"321 367 CURVE SMOOTH",
"163 367 OFFCURVE",
"34 325 OFFCURVE",
"34 166 CURVE SMOOTH",
"34 44 OFFCURVE",
"121 -22 OFFCURVE",
"243 -22 CURVE SMOOTH"
);
},
{
closed = 1;
nodes = (
"201 50 OFFCURVE",
"173 109 OFFCURVE",
"173 173 CURVE SMOOTH",
"173 269 OFFCURVE",
"238 302 OFFCURVE",
"334 302 CURVE SMOOTH",
"364 302 OFFCURVE",
"400 300 OFFCURVE",
"432 292 CURVE",
"391 344 LINE",
"394 232 OFFCURVE",
"382 50 OFFCURVE",
"263 50 CURVE SMOOTH"
);
}
);
width = 556;
},
{
layerId = "7A18FD7C-8538-4E93-8010-D52488023CDD";
name = Regular;
paths = (
{
closed = 1;
nodes = (
"510 -22 OFFCURVE",
"622 99 OFFCURVE",
"622 329 CURVE SMOOTH",
"622 549 OFFCURVE",
"508 683 OFFCURVE",
"286 683 CURVE SMOOTH",
"168 683 OFFCURVE",
"42 628 OFFCURVE",
"42 508 CURVE SMOOTH",
"42 481 OFFCURVE",
"55 449 OFFCURVE",
"79 438 CURVE",
"110 500 OFFCURVE",
"179 544 OFFCURVE",
"246 544 CURVE SMOOTH",
"348 544 OFFCURVE",
"386 458 OFFCURVE",
"392 360 CURVE",
"376 362 OFFCURVE",
"332 364 OFFCURVE",
"310 364 CURVE SMOOTH",
"147 364 OFFCURVE",
"20 331 OFFCURVE",
"20 163 CURVE SMOOTH",
"20 28 OFFCURVE",
"154 -22 OFFCURVE",
"282 -22 CURVE SMOOTH"
);
},
{
closed = 1;
nodes = (
"252 54 OFFCURVE",
"221 110 OFFCURVE",
"221 163 CURVE SMOOTH",
"221 270 OFFCURVE",
"288 304 OFFCURVE",
"397 302 CURVE SMOOTH",
"414 302 OFFCURVE",
"432 301 OFFCURVE",
"453 300 CURVE",
"393 339 LINE",
"393 283 OFFCURVE",
"398 54 OFFCURVE",
"300 54 CURVE SMOOTH"
);
}
);
width = 642;
},
{
layerId = "508D1370-0BED-4DB0-A4B4-D9F3BBD09B88";
name = Bold;
paths = (
{
closed = 1;
nodes = (
"542 -22 OFFCURVE",
"676 77 OFFCURVE",
"676 320 CURVE SMOOTH",
"676 554 OFFCURVE",
"534 683 OFFCURVE",
"297 683 CURVE SMOOTH",
"167 683 OFFCURVE",
"33 629 OFFCURVE",
"33 496 CURVE SMOOTH",
"33 467 OFFCURVE",
"50 430 OFFCURVE",
"75 419 CURVE",
"105 477 OFFCURVE",
"179 516 OFFCURVE",
"242 516 CURVE SMOOTH",
"338 516 OFFCURVE",
"385 447 OFFCURVE",
"393 358 CURVE",
"377 360 OFFCURVE",
"327 362 OFFCURVE",
"304 362 CURVE SMOOTH",
"138 362 OFFCURVE",
"12 334 OFFCURVE",
"12 161 CURVE SMOOTH",
"12 19 OFFCURVE",
"172 -22 OFFCURVE",
"303 -22 CURVE SMOOTH"
);
},
{
closed = 1;
nodes = (
"280 56 OFFCURVE",
"247 111 OFFCURVE",
"247 158 CURVE SMOOTH",
"247 271 OFFCURVE",
"315 305 OFFCURVE",
"431 302 CURVE SMOOTH",
"441 302 OFFCURVE",
"449 302 OFFCURVE",
"464 304 CURVE",
"394 336 LINE",
"392 311 OFFCURVE",
"407 56 OFFCURVE",
"320 56 CURVE SMOOTH"
);
}
);
width = 689;
}
);
leftMetricsKey = O;
rightKerningGroup = O;
rightMetricsKey = O;
unicode = 018F;
},
{
glyphname = T;
lastChange = "2015-01-28 23:09:48 +0000";
layers = (
{
anchors = (
{
name = bottom;
position = "{200, 0}";
},
{
name = center;
position = "{191, 330}";
},
{
name = top;
position = "{203, 660}";
},
{
name = topcase;
position = "{200, 700}";
}
);
layerId = UUID0;
name = Light;
paths = (
{
closed = 1;
nodes = (
"-15 660 LINE",
"-15 586 LINE",
"142 586 LINE",
"142 0 LINE",
"258 0 LINE",
"258 586 LINE",
"412 586 LINE",
"419 660 LINE"
);
}
);
width = 400;
},
{
anchors = (
{
name = bottom;
position = "{252, 0}";
},
{
name = center;
position = "{252, 330}";
},
{
name = top;
position = "{252, 660}";
},
{
name = topcase;
position = "{252, 700}";
}
);
layerId = "7A18FD7C-8538-4E93-8010-D52488023CDD";
name = Regular;
paths = (
{
closed = 1;
nodes = (
"7 660 LINE",
"7 576 LINE",
"146 576 LINE",
"146 0 LINE",
"358 0 LINE",
"358 576 LINE",
"491 576 LINE",
"499 660 LINE"
);
}
);
width = 504;
},
{
anchors = (
{
name = bottom;
position = "{280.141, 0}";
},
{
name = center;
position = "{285.012, 330}";
},
{
name = top;
position = "{278.518, 660}";
},
{
name = topcase;
position = "{280.141, 700}";
}
);
layerId = "508D1370-0BED-4DB0-A4B4-D9F3BBD09B88";
name = Bold;
paths = (
{
closed = 1;
nodes = (
"19 660 LINE",
"19 571 LINE",
"148 571 LINE",
"148 0 LINE",
"412 0 LINE",
"412 571 LINE",
"534 571 LINE",
"542 660 LINE"
);
}
);
width = 560;
}
);
leftKerningGroup = T;
rightKerningGroup = T;
unicode = 0054;
},
{
glyphname = Tbar;
lastChange = "2015-01-28 23:09:48 +0000";
layers = (
{
components = (
{
name = T;
transform = "{1, 0, 0, 1, 0, 0}";
}
);
layerId = UUID0;
name = Light;
paths = (
{
closed = 1;
nodes = (
"357 307 LINE SMOOTH",
"397 307 OFFCURVE",
"412 321 OFFCURVE",
"412 344 CURVE SMOOTH",
"412 358 OFFCURVE",
"407 370 OFFCURVE",
"403 379 CURVE",
"50 379 LINE SMOOTH",
"18 379 OFFCURVE",
"2 365 OFFCURVE",
"2 341 CURVE SMOOTH",
"2 328 OFFCURVE",
"6 316 OFFCURVE",
"10 307 CURVE"
);
}
);
width = 400;
},
{
components = (
{
name = T;
transform = "{1, 0, 0, 1, 0, 0}";
}
);
layerId = "7A18FD7C-8538-4E93-8010-D52488023CDD";
name = Regular;
paths = (
{
closed = 1;
nodes = (
"424 287 LINE SMOOTH",
"466 287 OFFCURVE",
"492 307 OFFCURVE",
"492 349 CURVE SMOOTH",
"492 355 OFFCURVE",
"491 370 OFFCURVE",
"488 379 CURVE",
"78 379 LINE SMOOTH",
"37 379 OFFCURVE",
"11 359 OFFCURVE",
"11 317 CURVE SMOOTH",
"11 309 OFFCURVE",
"12 296 OFFCURVE",
"15 287 CURVE"
);
}
);
width = 504;
},
{
components = (
{
name = T;
transform = "{1, 0, 0, 1, 0, 0}";
}
);
layerId = "508D1370-0BED-4DB0-A4B4-D9F3BBD09B88";
name = Bold;
paths = (
{
closed = 1;
nodes = (
"460 276 LINE SMOOTH",
"503 276 OFFCURVE",
"535 299 OFFCURVE",
"535 352 CURVE SMOOTH",
"535 353 OFFCURVE",
"536 370 OFFCURVE",
"534 379 CURVE",
"93 379 LINE SMOOTH",
"47 379 OFFCURVE",
"16 356 OFFCURVE",
"16 304 CURVE SMOOTH",
"16 299 OFFCURVE",
"15 285 OFFCURVE",
"18 276 CURVE"
);
}
);
width = 560;
}
);
unicode = 0166;
},
{
glyphname = U;
lastChange = "2015-01-28 23:09:48 +0000";
layers = (
{
anchors = (
{
name = bottom;
position = "{286, 0}";
},
{
name = ogonek;
position = "{406, 10}";
},
{
name = top;
position = "{282, 660}";
},
{
name = topcase;
position = "{281, 700}";
}
);
layerId = UUID0;
name = Light;
paths = (
{
closed = 1;
nodes = (
"491 660 LINE",
"391 660 LINE",
"391 263 LINE SMOOTH",
"391 157 OFFCURVE",
"387 48 OFFCURVE",
"281 48 CURVE SMOOTH",
"176 48 OFFCURVE",
"171 147 OFFCURVE",
"171 252 CURVE SMOOTH",
"171 660 LINE",
"55 660 LINE",
"55 241 LINE SMOOTH",
"55 66 OFFCURVE",
"99 -22 OFFCURVE",
"274 -22 CURVE SMOOTH",
"456 -22 OFFCURVE",
"491 88 OFFCURVE",
"491 274 CURVE SMOOTH"
);
}
);
width = 546;
},
{
anchors = (
{
name = bottom;
position = "{333, 0}";
},
{
name = ogonek;
position = "{460, 10}";
},
{
name = top;
position = "{334, 660}";
},
{
name = topcase;
position = "{335, 700}";
}
);
layerId = "7A18FD7C-8538-4E93-8010-D52488023CDD";
name = Regular;
paths = (
{
closed = 1;
nodes = (
"567 660 LINE",
"417 660 LINE",
"417 263 LINE SMOOTH",
"417 129 OFFCURVE",
"406 62 OFFCURVE",
"335 62 CURVE SMOOTH",
"264 62 OFFCURVE",
"254 128 OFFCURVE",
"254 252 CURVE SMOOTH",
"254 660 LINE",
"42 660 LINE",
"42 241 LINE SMOOTH",
"42 56 OFFCURVE",
"129 -22 OFFCURVE",
"314 -22 CURVE SMOOTH",
"506 -22 OFFCURVE",
"567 82 OFFCURVE",
"567 274 CURVE SMOOTH"
);
}
);
width = 609;
},
{
anchors = (
{
name = bottom;
position = "{358.435, 0}";
},
{
name = ogonek;
position = "{489.224, 10}";
},
{
name = top;
position = "{325, 660}";
},
{
name = topcase;
position = "{324, 700}";
}
);
layerId = "508D1370-0BED-4DB0-A4B4-D9F3BBD09B88";
name = Bold;
paths = (
{
closed = 1;
nodes = (
"608 660 LINE",
"431 660 LINE",
"431 263 LINE SMOOTH",
"431 114 OFFCURVE",
"416 70 OFFCURVE",
"364 70 CURVE SMOOTH",
"312 70 OFFCURVE",
"299 118 OFFCURVE",
"299 252 CURVE SMOOTH",
"299 660 LINE",
"35 660 LINE",
"35 241 LINE SMOOTH",
"35 51 OFFCURVE",
"145 -22 OFFCURVE",
"336 -22 CURVE SMOOTH",
"533 -22 OFFCURVE",
"608 79 OFFCURVE",
"608 274 CURVE SMOOTH"
);
}
);
width = 643;
}
);
unicode = 0055;
},
{
glyphname = V;
lastChange = "2015-01-28 23:09:48 +0000";
layers = (
{
layerId = UUID0;
name = Light;
paths = (
{
closed = 1;
nodes = (
"373 660 LINE",
"243 74 LINE",
"112 660 LINE",
"-5 660 LINE",
"158 0 LINE",
"307 0 LINE",
"483 660 LINE"
);
}
);
width = 478;
},
{
layerId = "7A18FD7C-8538-4E93-8010-D52488023CDD";
name = Regular;
paths = (
{
closed = 1;
nodes = (
"439 660 LINE",
"331 121 LINE",
"220 660 LINE",
"3 660 LINE",
"160 0 LINE",
"413 0 LINE",
"596 660 LINE"
);
}
);
width = 582;
},
{
layerId = "508D1370-0BED-4DB0-A4B4-D9F3BBD09B88";
name = Bold;
paths = (
{
closed = 1;
nodes = (
"475 660 LINE",
"379 146 LINE",
"278 660 LINE",
"7 660 LINE",
"161 0 LINE",
"470 0 LINE",
"657 660 LINE"
);
}
);
width = 638;
}
);
leftKerningGroup = V;
rightKerningGroup = V;
unicode = 0056;
},
{
glyphname = W;
lastChange = "2015-01-28 23:09:48 +0000";
layers = (
{
anchors = (
{
name = top;
position = "{399, 660}";
},
{
name = topcase;
position = "{400, 700}";
}
);
layerId = UUID0;
name = Light;
paths = (
{
closed = 1;
nodes = (
"688 660 LINE",
"572 74 LINE",
"455 660 LINE",
"345 660 LINE",
"229 74 LINE",
"112 660 LINE",
"-5 660 LINE",
"144 0 LINE",
"293 0 LINE",
"390 476 LINE",
"487 0 LINE",
"636 0 LINE",
"798 660 LINE"
);
}
);
width = 793;
},
{
anchors = (
{
name = top;
position = "{518, 660}";
},
{
name = topcase;
position = "{519, 700}";
}
);
layerId = "7A18FD7C-8538-4E93-8010-D52488023CDD";
name = Regular;
paths = (
{
closed = 1;
nodes = (
"818 660 LINE",
"710 121 LINE",
"599 660 LINE",
"439 660 LINE",
"331 121 LINE",
"220 660 LINE",
"3 660 LINE",
"160 0 LINE",
"413 0 LINE",
"474 332 LINE",
"539 0 LINE",
"792 0 LINE",
"975 660 LINE"
);
}
);
width = 961;
},
{
anchors = (
{
name = top;
position = "{552, 660}";
},
{
name = topcase;
position = "{553, 700}";
}
);
layerId = "508D1370-0BED-4DB0-A4B4-D9F3BBD09B88";
name = Bold;
paths = (
{
closed = 1;
nodes = (
"888 660 LINE",
"785 146 LINE",
"677 660 LINE",
"490 660 LINE",
"386 146 LINE",
"278 660 LINE",
"7 660 LINE",
"169 0 LINE",
"478 0 LINE",
"519 254 LINE",
"567 0 LINE",
"876 0 LINE",
"1071 660 LINE"
);
}
);
width = 1052;
}
);
leftKerningGroup = V;
leftMetricsKey = V;
rightKerningGroup = V;
rightMetricsKey = V;
unicode = 0057;
},
{
glyphname = X;
lastChange = "2015-01-28 23:09:48 +0000";
layers = (
{
layerId = UUID0;
name = Light;
paths = (
{
closed = 1;
nodes = (
"388 660 LINE",
"269 430 LINE",
"142 660 LINE",
"15 660 LINE",
"200 337 LINE",
"1 0 LINE",
"121 0 LINE",
"249 248 LINE",
"388 0 LINE",
"515 0 LINE",
"319 340 LINE",
"508 660 LINE"
);
}
);
width = 516;
},
{
layerId = "7A18FD7C-8538-4E93-8010-D52488023CDD";
name = Regular;
paths = (
{
closed = 1;
nodes = (
"386 660 LINE",
"312 449 LINE",
"217 660 LINE",
"0 660 LINE",
"157 340 LINE",
"-14 0 LINE",
"143 0 LINE",
"222 224 LINE",
"325 0 LINE",
"542 0 LINE",
"377 335 LINE",
"543 660 LINE"
);
}
);
width = 529;
},
{
layerId = "508D1370-0BED-4DB0-A4B4-D9F3BBD09B88";
name = Bold;
paths = (
{
closed = 1;
nodes = (
"385 660 LINE",
"335 459 LINE",
"258 660 LINE",
"-8 660 LINE",
"134 342 LINE",
"-22 0 LINE",
"155 0 LINE",
"207 211 LINE",
"291 0 LINE",
"557 0 LINE",
"408 332 LINE",
"562 660 LINE"
);
}
);
width = 536;
}
);
unicode = 0058;
},
{
glyphname = Y;
lastChange = "2015-01-28 23:09:48 +0000";
layers = (
{
anchors = (
{
name = top;
position = "{257, 660}";
},
{
name = topcase;
position = "{258, 700}";
}
);
layerId = UUID0;
name = Light;
paths = (
{
closed = 1;
nodes = (
"502 660 LINE",
"382 660 LINE",
"258 389 LINE",
"128 660 LINE",
"1 660 LINE",
"193 293 LINE",
"193 0 LINE",
"309 0 LINE",
"309 305 LINE"
);
}
);
width = 503;
},
{
anchors = (
{
name = top;
position = "{291, 660}";
},
{
name = topcase;
position = "{292, 700}";
}
);
layerId = "7A18FD7C-8538-4E93-8010-D52488023CDD";
name = Regular;
paths = (
{
closed = 1;
nodes = (
"544 660 LINE",
"387 660 LINE",
"311 399 LINE",
"218 660 LINE",
"1 660 LINE",
"163 290 LINE",
"163 0 LINE",
"375 0 LINE",
"375 299 LINE"
);
}
);
width = 552;
},
{
anchors = (
{
name = top;
position = "{279, 660}";
},
{
name = topcase;
position = "{280, 700}";
}
);
layerId = "508D1370-0BED-4DB0-A4B4-D9F3BBD09B88";
name = Bold;
paths = (
{
closed = 1;
nodes = (
"567 660 LINE",
"390 660 LINE",
"340 404 LINE",
"267 660 LINE",
"1 660 LINE",
"147 288 LINE",
"147 0 LINE",
"411 0 LINE",
"411 296 LINE"
);
}
);
width = 579;
}
);
leftKerningGroup = Y;
rightKerningGroup = Y;
unicode = 0059;
},
{
glyphname = Z;
lastChange = "2015-01-28 23:09:48 +0000";
layers = (
{
anchors = (
{
name = bottom;
position = "{197, 0}";
},
{
name = top;
position = "{212, 660}";
},
{
name = topcase;
position = "{212, 701}";
}
);
layerId = UUID0;
name = Light;
paths = (
{
closed = 1;
nodes = (
"29 660 LINE",
"22 586 LINE",
"282 586 LINE",
"4 73 LINE",
"11 0 LINE",
"408 0 LINE",
"415 74 LINE",
"128 74 LINE",
"406 587 LINE",
"399 660 LINE"
);
}
);
width = 419;
},
{
anchors = (
{
name = bottom;
position = "{235, 0}";
},
{
name = top;
position = "{239, 660}";
},
{
name = topcase;
position = "{239, 700}";
}
);
layerId = "7A18FD7C-8538-4E93-8010-D52488023CDD";
name = Regular;
paths = (
{
closed = 1;
nodes = (
"27 660 LINE",
"27 570 LINE",
"242 570 LINE",
"7 76 LINE",
"14 0 LINE",
"471 0 LINE",
"481 90 LINE",
"234 90 LINE",
"469 584 LINE",
"462 660 LINE"
);
}
);
width = 478;
},
{
anchors = (
{
name = bottom;
position = "{255.565, 0}";
},
{
name = top;
position = "{253.612, 660}";
},
{
name = topcase;
position = "{253.612, 699.459}";
}
);
layerId = "508D1370-0BED-4DB0-A4B4-D9F3BBD09B88";
name = Bold;
paths = (
{
closed = 1;
nodes = (
"26 660 LINE",
"30 561 LINE",
"220 561 LINE",
"9 78 LINE",
"16 0 LINE",
"505 0 LINE",
"517 99 LINE",
"291 99 LINE",
"503 582 LINE",
"496 660 LINE"
);
}
);
width = 510;
}
);
unicode = 005A;
},
{
glyphname = Y.loclGUA;
lastChange = "2015-01-28 23:09:48 +0000";
layers = (
{
anchors = (
{
name = top;
position = "{274, 660}";
}
);
layerId = UUID0;
name = Light;
paths = (
{
closed = 1;
nodes = (
"377 660 LINE",
"377 336 LINE SMOOTH",
"377 230 OFFCURVE",
"377 121 OFFCURVE",
"271 121 CURVE SMOOTH",
"166 121 OFFCURVE",
"174 220 OFFCURVE",
"174 325 CURVE SMOOTH",
"174 660 LINE",
"58 660 LINE",
"58 314 LINE SMOOTH",
"58 149 OFFCURVE",
"82 51 OFFCURVE",
"247 51 CURVE SMOOTH",
"295 51 OFFCURVE",
"352 64 OFFCURVE",
"377 106 CURVE",
"377 -7 OFFCURVE",
"377 -135 OFFCURVE",
"271 -135 CURVE SMOOTH",
"223 -135 OFFCURVE",
"197 -109 OFFCURVE",
"197 -61 CURVE SMOOTH",
"197 -45 OFFCURVE",
"200 -29 OFFCURVE",
"205 -12 CURVE",
"194 -4 OFFCURVE",
"175 -1 OFFCURVE",
"162 -1 CURVE SMOOTH",
"111 -1 OFFCURVE",
"78 -25 OFFCURVE",
"78 -76 CURVE SMOOTH",
"78 -166 OFFCURVE",
"172 -199 OFFCURVE",
"261 -199 CURVE SMOOTH",
"451 -199 OFFCURVE",
"490 -64 OFFCURVE",
"490 126 CURVE SMOOTH",
"490 660 LINE"
);
}
);
width = 550;
},
{
anchors = (
{
name = top;
position = "{323, 660}";
}
);
layerId = "7A18FD7C-8538-4E93-8010-D52488023CDD";
name = Regular;
paths = (
{
closed = 1;
nodes = (
"405 660 LINE",
"405 354 LINE SMOOTH",
"405 225 OFFCURVE",
"399 153 OFFCURVE",
"333 153 CURVE SMOOTH",
"267 153 OFFCURVE",
"262 224 OFFCURVE",
"262 343 CURVE SMOOTH",
"262 660 LINE",
"50 660 LINE",
"50 332 LINE SMOOTH",
"50 167 OFFCURVE",
"100 69 OFFCURVE",
"265 69 CURVE SMOOTH",
"317 69 OFFCURVE",
"378 81 OFFCURVE",
"405 126 CURVE",
"405 -7 OFFCURVE",
"397 -126 OFFCURVE",
"309 -126 CURVE SMOOTH",
"260 -126 OFFCURVE",
"242 -92 OFFCURVE",
"242 -44 CURVE SMOOTH",
"242 -22 OFFCURVE",
"244 -1 OFFCURVE",
"248 21 CURVE",
"232 26 OFFCURVE",
"211 28 OFFCURVE",
"196 28 CURVE SMOOTH",
"128 28 OFFCURVE",
"72 -3 OFFCURVE",
"72 -75 CURVE SMOOTH",
"72 -172 OFFCURVE",
"198 -200 OFFCURVE",
"295 -200 CURVE SMOOTH",
"517 -200 OFFCURVE",
"595 -78 OFFCURVE",
"595 144 CURVE SMOOTH",
"595 660 LINE"
);
}
);
width = 645;
},
{
anchors = (
{
name = top;
position = "{349.518, 660}";
}
);
layerId = "508D1370-0BED-4DB0-A4B4-D9F3BBD09B88";
name = Bold;
paths = (
{
closed = 1;
nodes = (
"420 660 LINE",
"420 364 LINE SMOOTH",
"420 222 OFFCURVE",
"411 170 OFFCURVE",
"367 170 CURVE SMOOTH",
"322 170 OFFCURVE",
"310 226 OFFCURVE",
"310 353 CURVE SMOOTH",
"310 660 LINE",
"46 660 LINE",
"46 342 LINE SMOOTH",
"46 177 OFFCURVE",
"110 79 OFFCURVE",
"275 79 CURVE SMOOTH",
"329 79 OFFCURVE",
"392 90 OFFCURVE",
"420 137 CURVE",
"420 -7 OFFCURVE",
"408 -121 OFFCURVE",
"330 -121 CURVE SMOOTH",
"280 -121 OFFCURVE",
"266 -83 OFFCURVE",
"266 -35 CURVE SMOOTH",
"266 -10 OFFCURVE",
"268 14 OFFCURVE",
"271 39 CURVE",
"253 42 OFFCURVE",
"230 44 OFFCURVE",
"214 44 CURVE SMOOTH",
"137 44 OFFCURVE",
"69 9 OFFCURVE",
"69 -74 CURVE SMOOTH",
"69 -175 OFFCURVE",
"212 -201 OFFCURVE",
"313 -201 CURVE SMOOTH",
"553 -201 OFFCURVE",
"652 -86 OFFCURVE",
"652 154 CURVE SMOOTH",
"652 660 LINE"
);
}
);
width = 696;
}
);
rightMetricsKey = J;
},
{
glyphname = a;
lastChange = "2015-01-28 23:11:32 +0000";
layers = (
{
anchors = (
{
name = bottom;
position = "{266, 0}";
},
{
name = ogonek;
position = "{457, 10}";
},
{
name = top;
position = "{248, 530}";
}
);
layerId = UUID0;
name = Light;
paths = (
{
closed = 1;
nodes = (
"342 8 OFFCURVE",
"369 -15 OFFCURVE",
"407 -15 CURVE SMOOTH",
"432 -15 OFFCURVE",
"455 -5 OFFCURVE",
"466 16 CURVE",
"442 29 OFFCURVE",
"435 53 OFFCURVE",
"435 82 CURVE SMOOTH",
"435 342 LINE SMOOTH",
"435 474 OFFCURVE",
"393 530 OFFCURVE",
"261 530 CURVE SMOOTH",
"138 530 OFFCURVE",
"63 484 OFFCURVE",
"63 421 CURVE SMOOTH",
"63 374 OFFCURVE",
"94 351 OFFCURVE",
"141 351 CURVE SMOOTH",
"153 351 OFFCURVE",
"171 354 OFFCURVE",
"181 362 CURVE",
"176 377 OFFCURVE",
"173 392 OFFCURVE",
"173 407 CURVE SMOOTH",
"173 452 OFFCURVE",
"209 477 OFFCURVE",
"254 477 CURVE SMOOTH",
"314 477 OFFCURVE",
"326 438 OFFCURVE",
"326 378 CURVE SMOOTH",
"326 291 LINE",
"190 291 OFFCURVE",
"37 265 OFFCURVE",
"37 129 CURVE SMOOTH",
"37 38 OFFCURVE",
"108 -22 OFFCURVE",
"199 -22 CURVE SMOOTH",
"255 -22 OFFCURVE",
"310 -4 OFFCURVE",
"337 46 CURVE"
);
},
{
closed = 1;
nodes = (
"186 45 OFFCURVE",
"156 81 OFFCURVE",
"156 133 CURVE SMOOTH",
"156 220 OFFCURVE",
"239 241 OFFCURVE",
"326 241 CURVE",
"326 162 LINE SMOOTH",
"326 100 OFFCURVE",
"300 45 OFFCURVE",
"238 45 CURVE SMOOTH"
);
}
);
width = 499;
},
{
anchors = (
{
name = bottom;
position = "{309, 0}";
},
{
name = ogonek;
position = "{563, 12}";
},
{
name = top;
position = "{281, 510}";
}
);
layerId = "7A18FD7C-8538-4E93-8010-D52488023CDD";
name = Regular;
paths = (
{
closed = 1;
nodes = (
"370 4 OFFCURVE",
"412 -15 OFFCURVE",
"471 -15 CURVE SMOOTH",
"499 -15 OFFCURVE",
"542 -7 OFFCURVE",
"563 12 CURVE",
"539 43 OFFCURVE",
"532 77 OFFCURVE",
"532 116 CURVE SMOOTH",
"532 342 LINE SMOOTH",
"532 489 OFFCURVE",
"435 530 OFFCURVE",
"288 530 CURVE SMOOTH",
"190 530 OFFCURVE",
"49 504 OFFCURVE",
"49 406 CURVE SMOOTH",
"49 348 OFFCURVE",
"103 324 OFFCURVE",
"161 324 CURVE SMOOTH",
"174 324 OFFCURVE",
"203 326 OFFCURVE",
"214 333 CURVE",
"212 349 OFFCURVE",
"210 367 OFFCURVE",
"210 383 CURVE SMOOTH",
"210 435 OFFCURVE",
"229 473 OFFCURVE",
"281 473 CURVE SMOOTH",
"331 473 OFFCURVE",
"338 428 OFFCURVE",
"338 378 CURVE SMOOTH",
"338 291 LINE",
"194 291 OFFCURVE",
"16 273 OFFCURVE",
"16 129 CURVE SMOOTH",
"16 24 OFFCURVE",
"113 -22 OFFCURVE",
"218 -22 CURVE SMOOTH",
"273 -22 OFFCURVE",
"328 -5 OFFCURVE",
"351 45 CURVE"
);
},
{
closed = 1;
nodes = (
"228 49 OFFCURVE",
"210 88 OFFCURVE",
"210 133 CURVE SMOOTH",
"210 213 OFFCURVE",
"258 241 OFFCURVE",
"338 241 CURVE",
"338 153 LINE SMOOTH",
"338 103 OFFCURVE",
"323 49 OFFCURVE",
"273 49 CURVE SMOOTH"
);
}
);
width = 579;
},
{
anchors = (
{
name = bottom;
position = "{322, 0}";
},
{
name = ogonek;
position = "{620.365, 13.0824}";
},
{
name = top;
position = "{314, 499}";
}
);
layerId = "508D1370-0BED-4DB0-A4B4-D9F3BBD09B88";
name = Bold;
paths = (
{
closed = 1;
nodes = (
"385 2 OFFCURVE",
"435 -15 OFFCURVE",
"506 -15 CURVE SMOOTH",
"535 -15 OFFCURVE",
"589 -8 OFFCURVE",
"615 10 CURVE",
"591 51 OFFCURVE",
"584 90 OFFCURVE",
"584 134 CURVE SMOOTH",
"584 342 LINE SMOOTH",
"584 497 OFFCURVE",
"458 530 OFFCURVE",
"303 530 CURVE SMOOTH",
"218 530 OFFCURVE",
"41 515 OFFCURVE",
"41 398 CURVE SMOOTH",
"41 334 OFFCURVE",
"108 309 OFFCURVE",
"172 309 CURVE SMOOTH",
"185 309 OFFCURVE",
"220 311 OFFCURVE",
"232 317 CURVE",
"231 334 OFFCURVE",
"230 353 OFFCURVE",
"230 370 CURVE SMOOTH",
"230 426 OFFCURVE",
"240 471 OFFCURVE",
"296 471 CURVE SMOOTH",
"340 471 OFFCURVE",
"344 423 OFFCURVE",
"344 378 CURVE SMOOTH",
"344 291 LINE",
"196 291 OFFCURVE",
"5 277 OFFCURVE",
"5 129 CURVE SMOOTH",
"5 16 OFFCURVE",
"116 -22 OFFCURVE",
"228 -22 CURVE SMOOTH",
"283 -22 OFFCURVE",
"338 -6 OFFCURVE",
"359 44 CURVE"
);
},
{
closed = 1;
nodes = (
"251 51 OFFCURVE",
"239 92 OFFCURVE",
"239 133 CURVE SMOOTH",
"239 209 OFFCURVE",
"268 241 OFFCURVE",
"344 241 CURVE",
"344 148 LINE SMOOTH",
"344 105 OFFCURVE",
"335 51 OFFCURVE",
"292 51 CURVE SMOOTH"
);
}
);
width = 622;
}
);
leftKerningGroup = a;
unicode = 0061;
},
{
glyphname = aringacute;
lastChange = "2015-01-28 23:09:48 +0000";
layers = (
{
components = (
{
name = a;
transform = "{1, 0, 0, 1, 0, 0}";
},
{
name = ring;
transform = "{1, 0, 0, 1, 136, -2}";
}
);
layerId = UUID0;
name = Light;
paths = (
{
closed = 1;
nodes = (
"187 780 LINE",
"306 789 LINE SMOOTH",
"359 793 OFFCURVE",
"416 802 OFFCURVE",
"416 855 CURVE SMOOTH",
"416 875 OFFCURVE",
"405 894 OFFCURVE",
"388 906 CURVE",
"176 822 LINE"
);
}
);
width = 499;
},
{
components = (
{
name = a;
transform = "{1, 0, 0, 1, 0, 0}";
},
{
name = ring;
transform = "{1, 0, 0, 1, 156, -27}";
}
);
layerId = "7A18FD7C-8538-4E93-8010-D52488023CDD";
name = Regular;
paths = (
{
closed = 1;
nodes = (
"187 767 LINE",
"332 777 LINE SMOOTH",
"387 781 OFFCURVE",
"459 785 OFFCURVE",
"459 846 CURVE SMOOTH",
"459 873 OFFCURVE",
"442 902 OFFCURVE",
"421 919 CURVE",
"175 818 LINE"
);
}
);
width = 579;
},
{
components = (
{
name = a;
transform = "{1, 0, 0, 1, 0, 0}";
},
{
name = ring;
transform = "{1, 0, 0, 1, 167, -16}";
}
);
layerId = "508D1370-0BED-4DB0-A4B4-D9F3BBD09B88";
name = Bold;
paths = (
{
closed = 1;
nodes = (
"187 760 LINE",
"346 771 LINE SMOOTH",
"402 775 OFFCURVE",
"482 776 OFFCURVE",
"482 841 CURVE SMOOTH",
"482 872 OFFCURVE",
"462 906 OFFCURVE",
"439 926 CURVE",
"174 816 LINE"
);
}
);
width = 622;
}
);
leftKerningGroup = a;
leftMetricsKey = a;
rightMetricsKey = a;
unicode = 01FB;
},
{
glyphname = ae;
lastChange = "2015-01-28 23:09:48 +0000";
layers = (
{
anchors = (
{
name = top;
position = "{368, 530}";
}
);
background = {
paths = (
{
closed = 1;
nodes = (
"722 479 OFFCURVE",
"654 530 OFFCURVE",
"558 530 CURVE SMOOTH",
"495 530 OFFCURVE",
"446 511 OFFCURVE",
"410 478 CURVE",
"383 514 OFFCURVE",
"339 530 OFFCURVE",
"268 530 CURVE SMOOTH",
"145 530 OFFCURVE",
"70 484 OFFCURVE",
"70 421 CURVE SMOOTH",
"70 374 OFFCURVE",
"101 351 OFFCURVE",
"148 351 CURVE SMOOTH",
"160 351 OFFCURVE",
"178 354 OFFCURVE",
"188 362 CURVE",
"183 377 OFFCURVE",
"180 392 OFFCURVE",
"180 407 CURVE SMOOTH",
"180 452 OFFCURVE",
"216 477 OFFCURVE",
"261 477 CURVE SMOOTH",
"321 477 OFFCURVE",
"333 438 OFFCURVE",
"333 378 CURVE SMOOTH",
"333 287 LINE",
"197 287 OFFCURVE",
"44 265 OFFCURVE",
"44 129 CURVE SMOOTH",
"44 28 OFFCURVE",
"125 -22 OFFCURVE",
"226 -22 CURVE SMOOTH",
"291 -22 OFFCURVE",
"346 5 OFFCURVE",
"369 66 CURVE",
"403 11 OFFCURVE",
"460 -22 OFFCURVE",
"542 -22 CURVE SMOOTH",
"618 -22 OFFCURVE",
"705 22 OFFCURVE",
"705 98 CURVE SMOOTH",
"705 116 OFFCURVE",
"699 133 OFFCURVE",
"682 141 CURVE",
"657 87 OFFCURVE",
"611 54 OFFCURVE",
"552 54 CURVE SMOOTH",
"464 54 OFFCURVE",
"445 140 OFFCURVE",
"442 232 CURVE",
"455 231 OFFCURVE",
"481 230 OFFCURVE",
"497 230 CURVE SMOOTH",
"621 230 OFFCURVE",
"722 259 OFFCURVE",
"722 383 CURVE SMOOTH"
);
},
{
closed = 1;
nodes = (
"193 45 OFFCURVE",
"163 81 OFFCURVE",
"163 133 CURVE SMOOTH",
"163 220 OFFCURVE",
"246 237 OFFCURVE",
"333 237 CURVE",
"333 162 LINE SMOOTH",
"333 100 OFFCURVE",
"307 45 OFFCURVE",
"245 45 CURVE SMOOTH"
);
},
{
closed = 1;
nodes = (
"592 473 OFFCURVE",
"613 427 OFFCURVE",
"613 377 CURVE SMOOTH",
"613 302 OFFCURVE",
"562 280 OFFCURVE",
"487 280 CURVE SMOOTH",
"473 280 OFFCURVE",
"450 281 OFFCURVE",
"440 283 CURVE",
"442 249 LINE",
"440 331 OFFCURVE",
"450 473 OFFCURVE",
"542 473 CURVE SMOOTH"
);
}
);
};
layerId = UUID0;
name = Light;
paths = (
{
closed = 1;
nodes = (
"611 -22 OFFCURVE",
"698 22 OFFCURVE",
"698 98 CURVE SMOOTH",
"698 116 OFFCURVE",
"692 133 OFFCURVE",
"675 141 CURVE",
"650 87 OFFCURVE",
"604 54 OFFCURVE",
"545 54 CURVE SMOOTH",
"457 54 OFFCURVE",
"438 140 OFFCURVE",
"435 232 CURVE",
"448 231 OFFCURVE",
"474 230 OFFCURVE",
"490 230 CURVE SMOOTH",
"614 230 OFFCURVE",
"715 259 OFFCURVE",
"715 383 CURVE SMOOTH",
"715 479 OFFCURVE",
"647 530 OFFCURVE",
"551 530 CURVE SMOOTH",
"488 530 OFFCURVE",
"439 511 OFFCURVE",
"403 478 CURVE",
"376 514 OFFCURVE",
"332 530 OFFCURVE",
"261 530 CURVE SMOOTH",
"138 530 OFFCURVE",
"63 484 OFFCURVE",
"63 421 CURVE SMOOTH",
"63 374 OFFCURVE",
"94 351 OFFCURVE",
"141 351 CURVE SMOOTH",
"153 351 OFFCURVE",
"171 354 OFFCURVE",
"181 362 CURVE",
"176 377 OFFCURVE",
"173 392 OFFCURVE",
"173 407 CURVE SMOOTH",
"173 452 OFFCURVE",
"209 477 OFFCURVE",
"254 477 CURVE SMOOTH",
"314 477 OFFCURVE",
"326 438 OFFCURVE",
"326 378 CURVE SMOOTH",
"326 287 LINE",
"190 287 OFFCURVE",
"37 265 OFFCURVE",
"37 129 CURVE SMOOTH",
"37 28 OFFCURVE",
"118 -22 OFFCURVE",
"219 -22 CURVE SMOOTH",
"284 -22 OFFCURVE",
"339 5 OFFCURVE",
"362 66 CURVE",
"396 11 OFFCURVE",
"453 -22 OFFCURVE",
"535 -22 CURVE SMOOTH"
);
},
{
closed = 1;
nodes = (
"186 45 OFFCURVE",
"156 81 OFFCURVE",
"156 133 CURVE SMOOTH",
"156 220 OFFCURVE",
"239 237 OFFCURVE",
"326 237 CURVE",
"326 162 LINE SMOOTH",
"326 100 OFFCURVE",
"300 45 OFFCURVE",
"238 45 CURVE SMOOTH"
);
},
{
closed = 1;
nodes = (
"585 473 OFFCURVE",
"606 427 OFFCURVE",
"606 377 CURVE SMOOTH",
"606 302 OFFCURVE",
"555 280 OFFCURVE",
"480 280 CURVE SMOOTH",
"466 280 OFFCURVE",
"439 281 OFFCURVE",
"418 285 CURVE",
"435 249 LINE",
"433 331 OFFCURVE",
"443 473 OFFCURVE",
"535 473 CURVE SMOOTH"
);
}
);
width = 745;
},
{
anchors = (
{
name = top;
position = "{417, 510}";
}
);
layerId = "7A18FD7C-8538-4E93-8010-D52488023CDD";
name = Regular;
paths = (
{
closed = 1;
nodes = (
"698 -22 OFFCURVE",
"806 20 OFFCURVE",
"806 115 CURVE SMOOTH",
"806 137 OFFCURVE",
"798 160 OFFCURVE",
"778 170 CURVE",
"752 121 OFFCURVE",
"697 98 OFFCURVE",
"642 98 CURVE SMOOTH",
"562 98 OFFCURVE",
"538 159 OFFCURVE",
"533 235 CURVE",
"545 233 OFFCURVE",
"572 232 OFFCURVE",
"584 232 CURVE SMOOTH",
"715 232 OFFCURVE",
"828 254 OFFCURVE",
"828 385 CURVE SMOOTH",
"828 490 OFFCURVE",
"724 530 OFFCURVE",
"619 530 CURVE SMOOTH",
"555 530 OFFCURVE",
"501 518 OFFCURVE",
"457 496 CURVE",
"415 521 OFFCURVE",
"357 530 OFFCURVE",
"288 530 CURVE SMOOTH",
"190 530 OFFCURVE",
"49 504 OFFCURVE",
"49 406 CURVE SMOOTH",
"49 348 OFFCURVE",
"103 324 OFFCURVE",
"161 324 CURVE SMOOTH",
"174 324 OFFCURVE",
"203 326 OFFCURVE",
"214 333 CURVE",
"212 349 OFFCURVE",
"210 367 OFFCURVE",
"210 383 CURVE SMOOTH",
"210 435 OFFCURVE",
"229 473 OFFCURVE",
"281 473 CURVE SMOOTH",
"331 473 OFFCURVE",
"338 428 OFFCURVE",
"338 378 CURVE SMOOTH",
"338 287 LINE",
"194 287 OFFCURVE",
"16 273 OFFCURVE",
"16 129 CURVE SMOOTH",
"16 24 OFFCURVE",
"113 -22 OFFCURVE",
"218 -22 CURVE SMOOTH",
"298 -22 OFFCURVE",
"358 0 OFFCURVE",
"402 55 CURVE",
"447 5 OFFCURVE",
"515 -22 OFFCURVE",
"603 -22 CURVE SMOOTH"
);
},
{
closed = 1;
nodes = (
"228 49 OFFCURVE",
"210 88 OFFCURVE",
"210 133 CURVE SMOOTH",
"210 213 OFFCURVE",
"258 237 OFFCURVE",
"338 237 CURVE",
"338 153 LINE SMOOTH",
"338 103 OFFCURVE",
"323 49 OFFCURVE",
"273 49 CURVE SMOOTH"
);
},
{
closed = 1;
nodes = (
"646 470 OFFCURVE",
"658 426 OFFCURVE",
"658 385 CURVE SMOOTH",
"658 300 OFFCURVE",
"615 279 OFFCURVE",
"528 280 CURVE SMOOTH",
"501 280 OFFCURVE",
"470 282 OFFCURVE",
"434 285 CURVE",
"532 259 LINE",
"531 344 OFFCURVE",
"540 470 OFFCURVE",
"605 470 CURVE SMOOTH"
);
}
);
width = 843;
},
{
anchors = (
{
name = top;
position = "{443.518, 499.176}";
}
);
layerId = "508D1370-0BED-4DB0-A4B4-D9F3BBD09B88";
name = Bold;
paths = (
{
closed = 1;
nodes = (
"745 -22 OFFCURVE",
"864 19 OFFCURVE",
"864 124 CURVE SMOOTH",
"864 148 OFFCURVE",
"855 175 OFFCURVE",
"834 186 CURVE",
"807 139 OFFCURVE",
"747 122 OFFCURVE",
"694 122 CURVE SMOOTH",
"619 122 OFFCURVE",
"592 169 OFFCURVE",
"586 237 CURVE",
"597 234 OFFCURVE",
"625 233 OFFCURVE",
"635 233 CURVE SMOOTH",
"770 233 OFFCURVE",
"889 251 OFFCURVE",
"889 386 CURVE SMOOTH",
"889 496 OFFCURVE",
"766 530 OFFCURVE",
"656 530 CURVE SMOOTH",
"591 530 OFFCURVE",
"535 522 OFFCURVE",
"486 506 CURVE",
"436 525 OFFCURVE",
"371 530 OFFCURVE",
"303 530 CURVE SMOOTH",
"218 530 OFFCURVE",
"41 515 OFFCURVE",
"41 398 CURVE SMOOTH",
"41 334 OFFCURVE",
"108 309 OFFCURVE",
"172 309 CURVE SMOOTH",
"185 309 OFFCURVE",
"220 311 OFFCURVE",
"232 317 CURVE",
"231 334 OFFCURVE",
"230 353 OFFCURVE",
"230 370 CURVE SMOOTH",
"230 426 OFFCURVE",
"240 471 OFFCURVE",
"296 471 CURVE SMOOTH",
"340 471 OFFCURVE",
"344 423 OFFCURVE",
"344 378 CURVE SMOOTH",
"344 287 LINE",
"196 287 OFFCURVE",
"5 277 OFFCURVE",
"5 129 CURVE SMOOTH",
"5 22 OFFCURVE",
"110 -22 OFFCURVE",
"217 -22 CURVE SMOOTH",
"306 -22 OFFCURVE",
"368 -3 OFFCURVE",
"424 49 CURVE",
"475 2 OFFCURVE",
"549 -22 OFFCURVE",
"640 -22 CURVE SMOOTH"
);
},
{
closed = 1;
nodes = (
"251 51 OFFCURVE",
"239 92 OFFCURVE",
"239 133 CURVE SMOOTH",
"239 209 OFFCURVE",
"268 237 OFFCURVE",
"344 237 CURVE",
"344 148 LINE SMOOTH",
"344 105 OFFCURVE",
"335 51 OFFCURVE",
"292 51 CURVE SMOOTH"
);
},
{
closed = 1;
nodes = (
"679 468 OFFCURVE",
"686 425 OFFCURVE",
"686 389 CURVE SMOOTH",
"686 299 OFFCURVE",
"647 278 OFFCURVE",
"554 280 CURVE SMOOTH",
"520 280 OFFCURVE",
"487 283 OFFCURVE",
"443 285 CURVE",
"584 264 LINE",
"584 351 OFFCURVE",
"592 468 OFFCURVE",
"643 468 CURVE SMOOTH"
);
}
);
width = 896;
}
);
leftKerningGroup = a;
leftMetricsKey = a;
rightMetricsKey = e;
unicode = 00E6;
},
{
glyphname = b;
lastChange = "2015-01-28 23:09:48 +0000";
layers = (
{
layerId = UUID0;
name = Light;
paths = (
{
closed = 1;
nodes = (
"70 700 LINE",
"70 25 LINE",
"125 -5 OFFCURVE",
"204 -22 OFFCURVE",
"268 -22 CURVE SMOOTH",
"427 -22 OFFCURVE",
"491 103 OFFCURVE",
"491 262 CURVE SMOOTH",
"491 399 OFFCURVE",
"447 530 OFFCURVE",
"310 530 CURVE SMOOTH",
"249 530 OFFCURVE",
"194 495 OFFCURVE",
"169 439 CURVE",
"176 475 OFFCURVE",
"179 532 OFFCURVE",
"179 599 CURVE SMOOTH",
"179 712 LINE"
);
},
{
closed = 1;
nodes = (
"179 259 LINE SMOOTH",
"179 347 OFFCURVE",
"190 453 OFFCURVE",
"278 453 CURVE SMOOTH",
"363 453 OFFCURVE",
"372 342 OFFCURVE",
"372 257 CURVE SMOOTH",
"372 165 OFFCURVE",
"365 38 OFFCURVE",
"273 38 CURVE SMOOTH",
"240 38 OFFCURVE",
"207 49 OFFCURVE",
"179 68 CURVE"
);
}
);
width = 523;
},
{
layerId = "7A18FD7C-8538-4E93-8010-D52488023CDD";
name = Regular;
paths = (
{
closed = 1;
nodes = (
"54 700 LINE",
"54 32 LINE",
"120 -1 OFFCURVE",
"220 -22 OFFCURVE",
"293 -22 CURVE SMOOTH",
"474 -22 OFFCURVE",
"571 81 OFFCURVE",
"571 262 CURVE SMOOTH",
"571 409 OFFCURVE",
"525 530 OFFCURVE",
"378 530 CURVE SMOOTH",
"323 530 OFFCURVE",
"272 514 OFFCURVE",
"239 469 CURVE",
"247 502 OFFCURVE",
"248 566 OFFCURVE",
"248 600 CURVE SMOOTH",
"248 720 LINE"
);
},
{
closed = 1;
nodes = (
"248 318 LINE SMOOTH",
"248 377 OFFCURVE",
"248 454 OFFCURVE",
"307 454 CURVE SMOOTH",
"370 454 OFFCURVE",
"373 347 OFFCURVE",
"373 257 CURVE SMOOTH",
"373 162 OFFCURVE",
"370 38 OFFCURVE",
"300 38 CURVE SMOOTH",
"282 38 OFFCURVE",
"263 44 OFFCURVE",
"248 56 CURVE"
);
}
);
width = 599;
},
{
layerId = "508D1370-0BED-4DB0-A4B4-D9F3BBD09B88";
name = Bold;
paths = (
{
closed = 1;
nodes = (
"45 700 LINE",
"45 36 LINE",
"117 1 OFFCURVE",
"229 -22 OFFCURVE",
"307 -22 CURVE SMOOTH",
"499 -22 OFFCURVE",
"614 69 OFFCURVE",
"614 262 CURVE SMOOTH",
"614 414 OFFCURVE",
"567 530 OFFCURVE",
"415 530 CURVE SMOOTH",
"363 530 OFFCURVE",
"314 524 OFFCURVE",
"277 485 CURVE",
"285 517 OFFCURVE",
"285 584 OFFCURVE",
"285 601 CURVE SMOOTH",
"285 724 LINE"
);
},
{
closed = 1;
nodes = (
"285 350 LINE SMOOTH",
"285 393 OFFCURVE",
"279 455 OFFCURVE",
"323 455 CURVE SMOOTH",
"374 455 OFFCURVE",
"374 350 OFFCURVE",
"374 257 CURVE SMOOTH",
"374 160 OFFCURVE",
"373 38 OFFCURVE",
"315 38 CURVE SMOOTH",
"305 38 OFFCURVE",
"293 41 OFFCURVE",
"285 50 CURVE"
);
}
);
width = 640;
}
);
leftMetricsKey = h;
rightKerningGroup = o;
rightMetricsKey = o;
unicode = 0062;
},
{
glyphname = c;
lastChange = "2015-01-28 23:09:48 +0000";
layers = (
{
anchors = (
{
name = bottom;
position = "{247, 0}";
},
{
name = top;
position = "{250, 530}";
}
);
layerId = UUID0;
name = Light;
paths = (
{
closed = 1;
nodes = (
"290 471 OFFCURVE",
"308 445 OFFCURVE",
"308 402 CURVE SMOOTH",
"308 387 OFFCURVE",
"305 372 OFFCURVE",
"300 357 CURVE",
"310 349 OFFCURVE",
"328 346 OFFCURVE",
"340 346 CURVE SMOOTH",
"387 346 OFFCURVE",
"418 369 OFFCURVE",
"418 416 CURVE SMOOTH",
"418 498 OFFCURVE",
"345 530 OFFCURVE",
"263 530 CURVE SMOOTH",
"101 530 OFFCURVE",
"32 404 OFFCURVE",
"32 242 CURVE SMOOTH",
"32 90 OFFCURVE",
"95 -22 OFFCURVE",
"247 -22 CURVE SMOOTH",
"323 -22 OFFCURVE",
"407 22 OFFCURVE",
"407 98 CURVE SMOOTH",
"407 122 OFFCURVE",
"397 135 OFFCURVE",
"375 145 CURVE",
"360 88 OFFCURVE",
"316 54 OFFCURVE",
"257 54 CURVE SMOOTH",
"161 54 OFFCURVE",
"147 157 OFFCURVE",
"147 253 CURVE SMOOTH",
"147 341 OFFCURVE",
"159 471 OFFCURVE",
"247 471 CURVE SMOOTH"
);
}
);
width = 445;
},
{
anchors = (
{
name = bottom;
position = "{297, 0}";
},
{
name = top;
position = "{291, 510}";
}
);
layerId = "7A18FD7C-8538-4E93-8010-D52488023CDD";
name = Regular;
paths = (
{
closed = 1;
nodes = (
"333 470 OFFCURVE",
"338 423 OFFCURVE",
"338 381 CURVE SMOOTH",
"338 365 OFFCURVE",
"336 347 OFFCURVE",
"334 331 CURVE",
"345 324 OFFCURVE",
"374 322 OFFCURVE",
"387 322 CURVE SMOOTH",
"445 322 OFFCURVE",
"499 346 OFFCURVE",
"499 404 CURVE SMOOTH",
"499 502 OFFCURVE",
"403 530 OFFCURVE",
"305 530 CURVE SMOOTH",
"129 530 OFFCURVE",
"28 435 OFFCURVE",
"28 259 CURVE SMOOTH",
"28 85 OFFCURVE",
"123 -22 OFFCURVE",
"297 -22 CURVE SMOOTH",
"394 -22 OFFCURVE",
"486 24 OFFCURVE",
"486 121 CURVE SMOOTH",
"486 146 OFFCURVE",
"473 170 OFFCURVE",
"448 176 CURVE",
"427 127 OFFCURVE",
"389 98 OFFCURVE",
"336 98 CURVE SMOOTH",
"245 98 OFFCURVE",
"226 173 OFFCURVE",
"226 264 CURVE SMOOTH",
"226 344 OFFCURVE",
"232 470 OFFCURVE",
"291 470 CURVE SMOOTH"
);
}
);
width = 504;
},
{
anchors = (
{
name = bottom;
position = "{324.059, 0}";
},
{
name = top;
position = "{313.188, 499.176}";
}
);
layerId = "508D1370-0BED-4DB0-A4B4-D9F3BBD09B88";
name = Bold;
paths = (
{
closed = 1;
nodes = (
"356 469 OFFCURVE",
"354 411 OFFCURVE",
"354 370 CURVE SMOOTH",
"354 353 OFFCURVE",
"353 333 OFFCURVE",
"352 317 CURVE",
"364 310 OFFCURVE",
"399 309 OFFCURVE",
"412 309 CURVE SMOOTH",
"476 309 OFFCURVE",
"543 334 OFFCURVE",
"543 398 CURVE SMOOTH",
"543 504 OFFCURVE",
"434 530 OFFCURVE",
"328 530 CURVE SMOOTH",
"144 530 OFFCURVE",
"26 452 OFFCURVE",
"26 268 CURVE SMOOTH",
"26 82 OFFCURVE",
"138 -22 OFFCURVE",
"324 -22 CURVE SMOOTH",
"432 -22 OFFCURVE",
"529 25 OFFCURVE",
"529 133 CURVE SMOOTH",
"529 159 OFFCURVE",
"514 189 OFFCURVE",
"488 193 CURVE",
"463 148 OFFCURVE",
"429 122 OFFCURVE",
"379 122 CURVE SMOOTH",
"290 122 OFFCURVE",
"269 182 OFFCURVE",
"269 270 CURVE SMOOTH",
"269 346 OFFCURVE",
"272 469 OFFCURVE",
"315 469 CURVE SMOOTH"
);
}
);
width = 536;
}
);
leftKerningGroup = o;
leftMetricsKey = o;
unicode = 0063;
},
{
glyphname = d;
lastChange = "2015-01-28 23:09:48 +0000";
layers = (
{
anchors = (
{
name = bottom;
position = "{275, 0}";
},
{
name = center;
position = "{262, 265}";
}
);
layerId = UUID0;
name = Light;
paths = (
{
closed = 1;
nodes = (
"452 712 LINE",
"343 700 LINE",
"343 517 LINE",
"316 526 OFFCURVE",
"284 530 OFFCURVE",
"255 530 CURVE SMOOTH",
"96 530 OFFCURVE",
"32 415 OFFCURVE",
"32 256 CURVE SMOOTH",
"32 110 OFFCURVE",
"80 -22 OFFCURVE",
"226 -22 CURVE SMOOTH",
"277 -22 OFFCURVE",
"331 0 OFFCURVE",
"354 46 CURVE",
"359 8 OFFCURVE",
"386 -15 OFFCURVE",
"424 -15 CURVE SMOOTH",
"449 -15 OFFCURVE",
"472 -5 OFFCURVE",
"483 16 CURVE",
"459 29 OFFCURVE",
"452 53 OFFCURVE",
"452 82 CURVE SMOOTH"
);
},
{
closed = 1;
nodes = (
"343 162 LINE SMOOTH",
"343 100 OFFCURVE",
"317 45 OFFCURVE",
"255 45 CURVE SMOOTH",
"165 45 OFFCURVE",
"151 171 OFFCURVE",
"151 261 CURVE SMOOTH",
"151 353 OFFCURVE",
"158 470 OFFCURVE",
"250 470 CURVE SMOOTH",
"283 470 OFFCURVE",
"315 458 OFFCURVE",
"343 439 CURVE"
);
}
);
width = 526;
},
{
anchors = (
{
name = bottom;
position = "{316, 0}";
},
{
name = center;
position = "{300, 255}";
}
);
layerId = "7A18FD7C-8538-4E93-8010-D52488023CDD";
name = Regular;
paths = (
{
closed = 1;
nodes = (
"545 720 LINE",
"351 700 LINE",
"351 527 LINE",
"336 529 OFFCURVE",
"313 530 OFFCURVE",
"299 530 CURVE SMOOTH",
"121 530 OFFCURVE",
"28 435 OFFCURVE",
"28 257 CURVE SMOOTH",
"28 109 OFFCURVE",
"76 -22 OFFCURVE",
"224 -22 CURVE SMOOTH",
"282 -22 OFFCURVE",
"332 -4 OFFCURVE",
"364 45 CURVE",
"383 4 OFFCURVE",
"425 -15 OFFCURVE",
"484 -15 CURVE SMOOTH",
"512 -15 OFFCURVE",
"555 -7 OFFCURVE",
"576 12 CURVE",
"552 43 OFFCURVE",
"545 77 OFFCURVE",
"545 116 CURVE SMOOTH"
);
},
{
closed = 1;
nodes = (
"351 158 LINE SMOOTH",
"351 111 OFFCURVE",
"339 54 OFFCURVE",
"292 54 CURVE SMOOTH",
"229 54 OFFCURVE",
"226 172 OFFCURVE",
"226 262 CURVE SMOOTH",
"226 354 OFFCURVE",
"232 470 OFFCURVE",
"299 470 CURVE SMOOTH",
"317 470 OFFCURVE",
"336 464 OFFCURVE",
"351 452 CURVE"
);
}
);
width = 599;
},
{
anchors = (
{
name = bottom;
position = "{338.188, 0}";
},
{
name = center;
position = "{320.565, 249.588}";
}
);
layerId = "508D1370-0BED-4DB0-A4B4-D9F3BBD09B88";
name = Bold;
paths = (
{
closed = 1;
nodes = (
"595 724 LINE",
"355 700 LINE",
"355 530 LINE",
"347 530 OFFCURVE",
"329 530 OFFCURVE",
"323 530 CURVE SMOOTH",
"135 530 OFFCURVE",
"26 446 OFFCURVE",
"26 258 CURVE SMOOTH",
"26 108 OFFCURVE",
"74 -22 OFFCURVE",
"223 -22 CURVE SMOOTH",
"285 -22 OFFCURVE",
"333 -6 OFFCURVE",
"369 44 CURVE",
"396 2 OFFCURVE",
"446 -15 OFFCURVE",
"516 -15 CURVE SMOOTH",
"546 -15 OFFCURVE",
"600 -8 OFFCURVE",
"626 10 CURVE",
"602 51 OFFCURVE",
"595 90 OFFCURVE",
"595 134 CURVE SMOOTH"
);
},
{
closed = 1;
nodes = (
"355 156 LINE SMOOTH",
"355 117 OFFCURVE",
"351 59 OFFCURVE",
"312 59 CURVE SMOOTH",
"264 59 OFFCURVE",
"267 173 OFFCURVE",
"267 263 CURVE SMOOTH",
"267 355 OFFCURVE",
"272 470 OFFCURVE",
"326 470 CURVE SMOOTH",
"335 470 OFFCURVE",
"347 467 OFFCURVE",
"355 459 CURVE"
);
}
);
width = 639;
}
);
leftKerningGroup = o;
leftMetricsKey = o;
rightMetricsKey = l;
unicode = 0064;
},
{
glyphname = eth;
lastChange = "2015-01-28 23:09:48 +0000";
layers = (
{
layerId = UUID0;
name = Light;
paths = (
{
closed = 1;
nodes = (
"184 720 OFFCURVE",
"149 701 OFFCURVE",
"149 665 CURVE SMOOTH",
"149 654 OFFCURVE",
"152 641 OFFCURVE",
"159 633 CURVE",
"172 642 OFFCURVE",
"195 648 OFFCURVE",
"213 648 CURVE SMOOTH",
"250 648 OFFCURVE",
"277 634 OFFCURVE",
"296 613 CURVE",
"244 594 LINE SMOOTH",
"225 587 OFFCURVE",
"215 576 OFFCURVE",
"215 563 CURVE SMOOTH",
"215 550 OFFCURVE",
"225 534 OFFCURVE",
"233 527 CURVE",
"326 561 LINE",
"334 537 OFFCURVE",
"339 509 OFFCURVE",
"342 480 CURVE",
"315 489 OFFCURVE",
"285 493 OFFCURVE",
"257 493 CURVE SMOOTH",
"105 493 OFFCURVE",
"32 379 OFFCURVE",
"32 227 CURVE SMOOTH",
"32 83 OFFCURVE",
"113 -20 OFFCURVE",
"257 -20 CURVE SMOOTH",
"431 -20 OFFCURVE",
"481 141 OFFCURVE",
"481 315 CURVE SMOOTH",
"481 412 OFFCURVE",
"465 517 OFFCURVE",
"423 596 CURVE",
"460 610 LINE SMOOTH",
"485 619 OFFCURVE",
"495 628 OFFCURVE",
"495 642 CURVE SMOOTH",
"495 655 OFFCURVE",
"485 671 OFFCURVE",
"477 678 CURVE",
"390 647 LINE",
"353 692 OFFCURVE",
"302 720 OFFCURVE",
"235 720 CURVE SMOOTH"
);
},
{
closed = 1;
nodes = (
"176 40 OFFCURVE",
"157 153 OFFCURVE",
"157 234 CURVE SMOOTH",
"157 302 OFFCURVE",
"162 433 OFFCURVE",
"257 433 CURVE SMOOTH",
"292 433 OFFCURVE",
"322 423 OFFCURVE",
"351 403 CURVE",
"354 376 OFFCURVE",
"356 364 OFFCURVE",
"356 301 CURVE SMOOTH",
"356 193 OFFCURVE",
"345 40 OFFCURVE",
"257 40 CURVE SMOOTH"
);
}
);
width = 531;
},
{
layerId = "7A18FD7C-8538-4E93-8010-D52488023CDD";
name = Regular;
paths = (
{
closed = 1;
nodes = (
"233 720 OFFCURVE",
"185 706 OFFCURVE",
"185 655 CURVE SMOOTH",
"185 639 OFFCURVE",
"191 616 OFFCURVE",
"198 603 CURVE",
"213 613 OFFCURVE",
"232 618 OFFCURVE",
"252 618 CURVE SMOOTH",
"279.888 618 OFFCURVE",
"299.924 611.644 OFFCURVE",
"314.574 599.945 CURVE",
"290 591 LINE SMOOTH",
"263 581 OFFCURVE",
"248 560 OFFCURVE",
"260 531 CURVE SMOOTH",
"262 526 OFFCURVE",
"266 518 OFFCURVE",
"271 511 CURVE",
"347.703 539.032 LINE",
"351.353 523.789 OFFCURVE",
"353.872 506.677 OFFCURVE",
"356 488 CURVE",
"340 492 OFFCURVE",
"323 493 OFFCURVE",
"306 493 CURVE SMOOTH",
"194 493 OFFCURVE",
"28 439 OFFCURVE",
"28 227 CURVE SMOOTH",
"28 73 OFFCURVE",
"142 -22 OFFCURVE",
"296 -22 CURVE SMOOTH",
"490 -22 OFFCURVE",
"563 121 OFFCURVE",
"563 315 CURVE SMOOTH",
"563 418.491 OFFCURVE",
"545.003 519.733 OFFCURVE",
"501.136 595.106 CURVE",
"520 602 LINE SMOOTH",
"548 613 OFFCURVE",
"563 633 OFFCURVE",
"551 663 CURVE",
"549 666 OFFCURVE",
"545 676 OFFCURVE",
"540 682 CURVE",
"457.776 652.071 LINE",
"415.334 694.434 OFFCURVE",
"358.383 720 OFFCURVE",
"284 720 CURVE SMOOTH"
);
},
{
closed = 1;
nodes = (
"228 38 OFFCURVE",
"226 166 OFFCURVE",
"226 234 CURVE SMOOTH",
"226 312 OFFCURVE",
"228 433 OFFCURVE",
"306 433 CURVE SMOOTH",
"327 433 OFFCURVE",
"343 425 OFFCURVE",
"358 411 CURVE",
"362 382 OFFCURVE",
"365 330 OFFCURVE",
"365 291 CURVE SMOOTH",
"365 163 OFFCURVE",
"364 38 OFFCURVE",
"296 38 CURVE SMOOTH"
);
}
);
width = 598;
},
{
layerId = "508D1370-0BED-4DB0-A4B4-D9F3BBD09B88";
name = Bold;
paths = (
{
closed = 1;
nodes = (
"260 720 OFFCURVE",
"204 709 OFFCURVE",
"204 650 CURVE SMOOTH",
"204 631 OFFCURVE",
"212 602 OFFCURVE",
"219 587 CURVE",
"235 597 OFFCURVE",
"252 602 OFFCURVE",
"273 602 CURVE SMOOTH",
"296 602 OFFCURVE",
"312 600 OFFCURVE",
"325 593 CURVE",
"315 589 LINE SMOOTH",
"284 578 OFFCURVE",
"266 551 OFFCURVE",
"284 514 CURVE SMOOTH",
"287 513 OFFCURVE",
"288 509 OFFCURVE",
"292 502 CURVE",
"359 527 LINE",
"361 517 OFFCURVE",
"362 505 OFFCURVE",
"364 492 CURVE",
"354 494 OFFCURVE",
"344 493 OFFCURVE",
"333 493 CURVE SMOOTH",
"242 493 OFFCURVE",
"26 471 OFFCURVE",
"26 227 CURVE SMOOTH",
"26 68 OFFCURVE",
"158 -23 OFFCURVE",
"317 -23 CURVE SMOOTH",
"522 -23 OFFCURVE",
"607 110 OFFCURVE",
"607 315 CURVE SMOOTH",
"607 422 OFFCURVE",
"588 521 OFFCURVE",
"543 595 CURVE",
"552 598 LINE SMOOTH",
"582 610 OFFCURVE",
"600 636 OFFCURVE",
"581 674 CURVE",
"578 672 OFFCURVE",
"577 679 OFFCURVE",
"574 684 CURVE",
"494 655 LINE",
"449 696 OFFCURVE",
"389 720 OFFCURVE",
"311 720 CURVE SMOOTH"
);
},
{
closed = 1;
nodes = (
"256 37 OFFCURVE",
"263 173 OFFCURVE",
"263 234 CURVE SMOOTH",
"263 317 OFFCURVE",
"264 433 OFFCURVE",
"333 433 CURVE SMOOTH",
"346 433 OFFCURVE",
"354 426 OFFCURVE",
"362 415 CURVE",
"366 385 OFFCURVE",
"370 312 OFFCURVE",
"370 286 CURVE SMOOTH",
"370 147 OFFCURVE",
"374 37 OFFCURVE",
"317 37 CURVE SMOOTH"
);
}
);
width = 634;
}
);
leftKerningGroup = o;
leftMetricsKey = o;
unicode = 00F0;
},
{
glyphname = dcroat;
lastChange = "2015-01-28 23:09:48 +0000";
layers = (
{
components = (
{
name = d;
transform = "{1, 0, 0, 1, 0, 0}";
}
);
layerId = UUID0;
name = Light;
paths = (
{
closed = 1;
nodes = (
"251 632 LINE",
"219 632 OFFCURVE",
"203 618 OFFCURVE",
"203 594 CURVE SMOOTH",
"203 581 OFFCURVE",
"207 569 OFFCURVE",
"211 560 CURVE",
"507 560 LINE SMOOTH",
"547 560 OFFCURVE",
"562 574 OFFCURVE",
"562 597 CURVE SMOOTH",
"562 611 OFFCURVE",
"557 623 OFFCURVE",
"553 632 CURVE"
);
}
);
width = 605;
},
{
components = (
{
name = d;
transform = "{1, 0, 0, 1, 0, 0}";
}
);
layerId = "7A18FD7C-8538-4E93-8010-D52488023CDD";
name = Regular;
paths = (
{
closed = 1;
nodes = (
"278 653 LINE SMOOTH",
"237 653 OFFCURVE",
"211 633 OFFCURVE",
"211 591 CURVE SMOOTH",
"211 583 OFFCURVE",
"212 570 OFFCURVE",
"215 561 CURVE",
"580 561 LINE SMOOTH",
"622 561 OFFCURVE",
"648 581 OFFCURVE",
"648 623 CURVE SMOOTH",
"648 629 OFFCURVE",
"647 644 OFFCURVE",
"644 653 CURVE"
);
}
);
width = 671;
},
{
components = (
{
name = d;
transform = "{1, 0, 0, 1, 0, 0}";
}
);
layerId = "508D1370-0BED-4DB0-A4B4-D9F3BBD09B88";
name = Bold;
paths = (
{
closed = 1;
nodes = (
"293 664 LINE SMOOTH",
"247 664 OFFCURVE",
"215 641 OFFCURVE",
"215 589 CURVE SMOOTH",
"215 584 OFFCURVE",
"215 571 OFFCURVE",
"217 562 CURVE",
"620 562 LINE SMOOTH",
"663 562 OFFCURVE",
"695 585 OFFCURVE",
"695 637 CURVE SMOOTH",
"695 639 OFFCURVE",
"696 655 OFFCURVE",
"693 664 CURVE"
);
}
);
width = 707;
}
);
leftKerningGroup = o;
leftMetricsKey = d;
rightMetricsKey = d;
unicode = 0111;
},
{
glyphname = e;
lastChange = "2015-01-28 23:09:48 +0000";
layers = (
{
anchors = (
{
name = bottom;
position = "{244, 0}";
},
{
name = ogonek;
position = "{358, 10}";
},
{
name = top;
position = "{246, 530}";
}
);
background = {
paths = (
{
closed = 1;
nodes = (
"439 479 OFFCURVE",
"371 530 OFFCURVE",
"275 530 CURVE SMOOTH",
"113 530 OFFCURVE",
"44 404 OFFCURVE",
"44 242 CURVE SMOOTH",
"44 90 OFFCURVE",
"107 -22 OFFCURVE",
"259 -22 CURVE SMOOTH",
"335 -22 OFFCURVE",
"422 22 OFFCURVE",
"422 98 CURVE SMOOTH",
"422 116 OFFCURVE",
"416 133 OFFCURVE",
"399 141 CURVE",
"374 87 OFFCURVE",
"328 54 OFFCURVE",
"269 54 CURVE SMOOTH",
"181 54 OFFCURVE",
"162 140 OFFCURVE",
"159 228 CURVE",
"172 227 OFFCURVE",
"198 226 OFFCURVE",
"214 226 CURVE SMOOTH",
"338 226 OFFCURVE",
"439 259 OFFCURVE",
"439 383 CURVE SMOOTH"
);
},
{
closed = 1;
nodes = (
"309 473 OFFCURVE",
"330 427 OFFCURVE",
"330 377 CURVE SMOOTH",
"330 302 OFFCURVE",
"279 276 OFFCURVE",
"204 276 CURVE SMOOTH",
"181 276 OFFCURVE",
"133 279 OFFCURVE",
"160 285 CURVE",
"159 243 LINE",
"157 331 OFFCURVE",
"167 473 OFFCURVE",
"259 473 CURVE SMOOTH"
);
}
);
};
layerId = UUID0;
name = Light;
paths = (
{
closed = 1;
nodes = (
"101 530 OFFCURVE",
"32 404 OFFCURVE",
"32 242 CURVE SMOOTH",
"32 90 OFFCURVE",
"95 -22 OFFCURVE",
"247 -22 CURVE SMOOTH",
"323 -22 OFFCURVE",
"410 22 OFFCURVE",
"410 98 CURVE SMOOTH",
"410 116 OFFCURVE",
"404 133 OFFCURVE",
"387 141 CURVE",
"362 87 OFFCURVE",
"316 54 OFFCURVE",
"257 54 CURVE SMOOTH",
"169 54 OFFCURVE",
"150 140 OFFCURVE",
"147 228 CURVE",
"160 227 OFFCURVE",
"186 226 OFFCURVE",
"202 226 CURVE SMOOTH",
"326 226 OFFCURVE",
"427 259 OFFCURVE",
"427 383 CURVE SMOOTH",
"427 479 OFFCURVE",
"359 530 OFFCURVE",
"263 530 CURVE SMOOTH"
);
},
{
closed = 1;
nodes = (
"297 473 OFFCURVE",
"318 427 OFFCURVE",
"318 377 CURVE SMOOTH",
"318 302 OFFCURVE",
"267 276 OFFCURVE",
"192 276 CURVE SMOOTH",
"169 276 OFFCURVE",
"140 278 OFFCURVE",
"115 284 CURVE",
"147 243 LINE",
"145 331 OFFCURVE",
"155 473 OFFCURVE",
"247 473 CURVE SMOOTH"
);
}
);
width = 457;
},
{
anchors = (
{
name = bottom;
position = "{297, 0}";
},
{
name = ogonek;
position = "{431, 10}";
},
{
name = top;
position = "{299, 510}";
}
);
background = {
paths = (
{
closed = 1;
nodes = (
"392 -22 OFFCURVE",
"500 20 OFFCURVE",
"500 115 CURVE SMOOTH",
"500 137 OFFCURVE",
"492 160 OFFCURVE",
"472 170 CURVE",
"446 121 OFFCURVE",
"391 98 OFFCURVE",
"336 98 CURVE SMOOTH",
"256 98 OFFCURVE",
"232 155 OFFCURVE",
"227 231 CURVE",
"239 229 OFFCURVE",
"266 228 OFFCURVE",
"278 228 CURVE SMOOTH",
"409 228 OFFCURVE",
"522 254 OFFCURVE",
"522 385 CURVE SMOOTH",
"522 490 OFFCURVE",
"418 530 OFFCURVE",
"313 530 CURVE SMOOTH",
"133 530 OFFCURVE",
"28 439 OFFCURVE",
"28 259 CURVE SMOOTH",
"28 85 OFFCURVE",
"123 -22 OFFCURVE",
"297 -22 CURVE SMOOTH"
);
},
{
closed = 1;
nodes = (
"340 470 OFFCURVE",
"352 426 OFFCURVE",
"352 385 CURVE SMOOTH",
"352 301 OFFCURVE",
"308 275 OFFCURVE",
"223 276 CURVE SMOOTH",
"196 276 OFFCURVE",
"166 279 OFFCURVE",
"131 283 CURVE",
"227 215 LINE",
"224 287 OFFCURVE",
"222 470 OFFCURVE",
"299 470 CURVE SMOOTH"
);
}
);
};
layerId = "7A18FD7C-8538-4E93-8010-D52488023CDD";
name = Regular;
paths = (
{
closed = 1;
nodes = (
"133 530 OFFCURVE",
"28 439 OFFCURVE",
"28 259 CURVE SMOOTH",
"28 85 OFFCURVE",
"123 -22 OFFCURVE",
"297 -22 CURVE SMOOTH",
"392 -22 OFFCURVE",
"500 20 OFFCURVE",
"500 115 CURVE SMOOTH",
"500 137 OFFCURVE",
"492 160 OFFCURVE",
"472 170 CURVE",
"446 121 OFFCURVE",
"391 98 OFFCURVE",
"336 98 CURVE SMOOTH",
"256 98 OFFCURVE",
"232 155 OFFCURVE",
"227 231 CURVE",
"239 229 OFFCURVE",
"266 228 OFFCURVE",
"278 228 CURVE SMOOTH",
"409 228 OFFCURVE",
"522 254 OFFCURVE",
"522 385 CURVE SMOOTH",
"522 490 OFFCURVE",
"418 530 OFFCURVE",
"313 530 CURVE SMOOTH"
);
},
{
closed = 1;
nodes = (
"340 470 OFFCURVE",
"352 426 OFFCURVE",
"352 385 CURVE SMOOTH",
"352 301 OFFCURVE",
"308 275 OFFCURVE",
"223 276 CURVE SMOOTH",
"209 276 OFFCURVE",
"195 277 OFFCURVE",
"179 278 CURVE",
"226 247 LINE",
"226 292 OFFCURVE",
"222 470 OFFCURVE",
"299 470 CURVE SMOOTH"
);
}
);
width = 537;
},
{
anchors = (
{
name = bottom;
position = "{325.682, 0}";
},
{
name = ogonek;
position = "{470.506, 10}";
},
{
name = top;
position = "{327.682, 499.176}";
}
);
layerId = "508D1370-0BED-4DB0-A4B4-D9F3BBD09B88";
name = Bold;
paths = (
{
closed = 1;
nodes = (
"150 530 OFFCURVE",
"26 458 OFFCURVE",
"26 268 CURVE SMOOTH",
"26 82 OFFCURVE",
"138 -22 OFFCURVE",
"324 -22 CURVE SMOOTH",
"429 -22 OFFCURVE",
"549 19 OFFCURVE",
"549 124 CURVE SMOOTH",
"549 148 OFFCURVE",
"540 175 OFFCURVE",
"518 186 CURVE",
"491 139 OFFCURVE",
"432 122 OFFCURVE",
"379 122 CURVE SMOOTH",
"303 122 OFFCURVE",
"276 163 OFFCURVE",
"270 233 CURVE",
"282 230 OFFCURVE",
"309 229 OFFCURVE",
"319 229 CURVE SMOOTH",
"454 229 OFFCURVE",
"573 251 OFFCURVE",
"573 386 CURVE SMOOTH",
"573 496 OFFCURVE",
"450 530 OFFCURVE",
"340 530 CURVE SMOOTH"
);
},
{
closed = 1;
nodes = (
"363 468 OFFCURVE",
"370 425 OFFCURVE",
"370 389 CURVE SMOOTH",
"370 300 OFFCURVE",
"330 274 OFFCURVE",
"240 276 CURVE SMOOTH",
"231 276 OFFCURVE",
"225 276 OFFCURVE",
"214 275 CURVE",
"269 249 LINE",
"270 271 OFFCURVE",
"258 468 OFFCURVE",
"327 468 CURVE SMOOTH"
);
}
);
width = 580;
}
);
leftKerningGroup = o;
leftMetricsKey = o;
unicode = 0065;
},
{
glyphname = f;
lastChange = "2015-01-28 23:09:48 +0000";
layers = (
{
layerId = UUID0;
name = Light;
paths = (
{
closed = 1;
nodes = (
"185 465 LINE",
"293 465 LINE",
"293 510 LINE",
"184 510 LINE",
"184 564 LINE SMOOTH",
"184 622 OFFCURVE",
"192 676 OFFCURVE",
"250 676 CURVE SMOOTH",
"284 676 OFFCURVE",
"300 655 OFFCURVE",
"300 621 CURVE SMOOTH",
"300 606 OFFCURVE",
"297 591 OFFCURVE",
"292 576 CURVE",
"302 568 OFFCURVE",
"320 565 OFFCURVE",
"332 565 CURVE SMOOTH",
"379 565 OFFCURVE",
"410 588 OFFCURVE",
"410 635 CURVE SMOOTH",
"410 703 OFFCURVE",
"324 720 OFFCURVE",
"256 720 CURVE SMOOTH",
"148 720 OFFCURVE",
"85 672 OFFCURVE",
"79 564 CURVE SMOOTH",
"76 510 LINE",
"5 510 LINE",
"5 465 LINE",
"76 465 LINE",
"76 -12 LINE",
"185 0 LINE"
);
}
);
width = 312;
},
{
layerId = "7A18FD7C-8538-4E93-8010-D52488023CDD";
name = Regular;
paths = (
{
closed = 1;
nodes = (
"262 465 LINE",
"351 465 LINE",
"351 510 LINE",
"262 510 LINE",
"262 568 LINE SMOOTH",
"262 616 OFFCURVE",
"264 673 OFFCURVE",
"312 673 CURVE SMOOTH",
"342 673 OFFCURVE",
"352 646 OFFCURVE",
"352 616 CURVE SMOOTH",
"352 605 OFFCURVE",
"350 577 OFFCURVE",
"348 566 CURVE",
"359 559 OFFCURVE",
"388 557 OFFCURVE",
"401 557 CURVE SMOOTH",
"454 557 OFFCURVE",
"513 576 OFFCURVE",
"513 629 CURVE SMOOTH",
"513 707 OFFCURVE",
"397 720 OFFCURVE",
"319 720 CURVE SMOOTH",
"192 720 OFFCURVE",
"79 686 OFFCURVE",
"71 559 CURVE SMOOTH",
"68 510 LINE",
"1 510 LINE",
"1 465 LINE",
"68 465 LINE",
"68 -15 LINE",
"262 0 LINE"
);
}
);
width = 357;
},
{
layerId = "508D1370-0BED-4DB0-A4B4-D9F3BBD09B88";
name = Bold;
paths = (
{
closed = 1;
nodes = (
"304 465 LINE",
"382 465 LINE",
"382 510 LINE",
"304 510 LINE",
"304 570 LINE SMOOTH",
"304 613 OFFCURVE",
"303 671 OFFCURVE",
"346 671 CURVE SMOOTH",
"373 671 OFFCURVE",
"380 641 OFFCURVE",
"380 613 CURVE SMOOTH",
"380 604 OFFCURVE",
"379 569 OFFCURVE",
"378 561 CURVE",
"390 554 OFFCURVE",
"425 553 OFFCURVE",
"438 553 CURVE SMOOTH",
"495 553 OFFCURVE",
"569 570 OFFCURVE",
"569 626 CURVE SMOOTH",
"569 709 OFFCURVE",
"437 720 OFFCURVE",
"353 720 CURVE SMOOTH",
"216 720 OFFCURVE",
"76 694 OFFCURVE",
"67 556 CURVE SMOOTH",
"64 510 LINE",
"-1 510 LINE",
"-1 465 LINE",
"64 465 LINE",
"64 -17 LINE",
"304 0 LINE"
);
}
);
width = 381;
}
);
leftKerningGroup = f;
rightKerningGroup = f;
unicode = 0066;
},
{
glyphname = g;
lastChange = "2015-01-28 23:09:48 +0000";
layers = (
{
anchors = (
{
name = top;
position = "{254, 530}";
}
);
layerId = UUID0;
name = Light;
paths = (
{
closed = 1;
nodes = (
"201 -141 OFFCURVE",
"176 -118 OFFCURVE",
"176 -72 CURVE SMOOTH",
"176 -57 OFFCURVE",
"179 -42 OFFCURVE",
"184 -27 CURVE",
"174 -19 OFFCURVE",
"156 -16 OFFCURVE",
"144 -16 CURVE SMOOTH",
"97 -16 OFFCURVE",
"66 -39 OFFCURVE",
"66 -86 CURVE SMOOTH",
"66 -170 OFFCURVE",
"154 -200 OFFCURVE",
"238 -200 CURVE SMOOTH",
"415 -200 OFFCURVE",
"452 -76 OFFCURVE",
"452 101 CURVE SMOOTH",
"452 522 LINE",
"354 511 LINE",
"322 523 OFFCURVE",
"288 530 OFFCURVE",
"254 530 CURVE SMOOTH",
"107 530 OFFCURVE",
"36 438 OFFCURVE",
"36 291 CURVE SMOOTH",
"36 153 OFFCURVE",
"87 48 OFFCURVE",
"225 48 CURVE SMOOTH",
"272 48 OFFCURVE",
"320 65 OFFCURVE",
"347 104 CURVE",
"347 77 LINE SMOOTH",
"347 -22 OFFCURVE",
"346 -141 OFFCURVE",
"247 -141 CURVE SMOOTH"
);
},
{
closed = 1;
nodes = (
"343 232 LINE SMOOTH",
"343 169 OFFCURVE",
"317 115 OFFCURVE",
"254 115 CURVE SMOOTH",
"166 115 OFFCURVE",
"153 208 OFFCURVE",
"153 296 CURVE SMOOTH",
"153 378 OFFCURVE",
"167 470 OFFCURVE",
"249 470 CURVE SMOOTH",
"282 470 OFFCURVE",
"315 457 OFFCURVE",
"343 438 CURVE"
);
}
);
width = 518;
},
{
anchors = (
{
name = top;
position = "{295, 510}";
}
);
layerId = "7A18FD7C-8538-4E93-8010-D52488023CDD";
name = Regular;
paths = (
{
closed = 1;
nodes = (
"232 -143 OFFCURVE",
"219 -101 OFFCURVE",
"219 -53 CURVE SMOOTH",
"219 -37 OFFCURVE",
"221 -19 OFFCURVE",
"223 -3 CURVE",
"212 4 OFFCURVE",
"183 6 OFFCURVE",
"170 6 CURVE SMOOTH",
"112 6 OFFCURVE",
"58 -18 OFFCURVE",
"58 -76 CURVE SMOOTH",
"58 -166 OFFCURVE",
"183 -200 OFFCURVE",
"273 -200 CURVE SMOOTH",
"480 -200 OFFCURVE",
"541 -106 OFFCURVE",
"541 101 CURVE SMOOTH",
"541 530 LINE",
"406 510 LINE",
"368 524 OFFCURVE",
"325 530 OFFCURVE",
"285 530 CURVE SMOOTH",
"123 530 OFFCURVE",
"28 450 OFFCURVE",
"28 288 CURVE SMOOTH",
"28 154 OFFCURVE",
"83 59 OFFCURVE",
"217 59 CURVE SMOOTH",
"272 59 OFFCURVE",
"323 73 OFFCURVE",
"356 111 CURVE",
"356 77 LINE SMOOTH",
"356 -48 OFFCURVE",
"355 -143 OFFCURVE",
"280 -143 CURVE SMOOTH"
);
},
{
closed = 1;
nodes = (
"347 243 LINE SMOOTH",
"347 194 OFFCURVE",
"337 135 OFFCURVE",
"288 135 CURVE SMOOTH",
"229 135 OFFCURVE",
"226 231 OFFCURVE",
"226 294 CURVE SMOOTH",
"226 367 OFFCURVE",
"226 470 OFFCURVE",
"295 470 CURVE SMOOTH",
"313 470 OFFCURVE",
"332 466 OFFCURVE",
"347 456 CURVE"
);
}
);
width = 595;
},
{
anchors = (
{
name = top;
position = "{317.188, 499.176}";
}
);
layerId = "508D1370-0BED-4DB0-A4B4-D9F3BBD09B88";
name = Bold;
paths = (
{
closed = 1;
nodes = (
"249 -144 OFFCURVE",
"242 -92 OFFCURVE",
"242 -43 CURVE SMOOTH",
"242 -26 OFFCURVE",
"244 -7 OFFCURVE",
"244 10 CURVE",
"233 16 OFFCURVE",
"198 18 OFFCURVE",
"184 18 CURVE SMOOTH",
"120 18 OFFCURVE",
"54 -7 OFFCURVE",
"54 -71 CURVE SMOOTH",
"54 -164 OFFCURVE",
"199 -200 OFFCURVE",
"292 -200 CURVE SMOOTH",
"515 -200 OFFCURVE",
"589 -122 OFFCURVE",
"589 101 CURVE SMOOTH",
"589 534 LINE",
"434 509 LINE",
"393 525 OFFCURVE",
"345 530 OFFCURVE",
"302 530 CURVE SMOOTH",
"132 530 OFFCURVE",
"24 456 OFFCURVE",
"24 286 CURVE SMOOTH",
"24 155 OFFCURVE",
"81 65 OFFCURVE",
"213 65 CURVE SMOOTH",
"272 65 OFFCURVE",
"325 77 OFFCURVE",
"361 115 CURVE",
"361 77 LINE SMOOTH",
"361 -62 OFFCURVE",
"360 -144 OFFCURVE",
"298 -144 CURVE SMOOTH"
);
},
{
closed = 1;
nodes = (
"349 249 LINE SMOOTH",
"349 208 OFFCURVE",
"348 146 OFFCURVE",
"306 146 CURVE SMOOTH",
"263 146 OFFCURVE",
"266 243 OFFCURVE",
"266 293 CURVE SMOOTH",
"266 361 OFFCURVE",
"258 470 OFFCURVE",
"320 470 CURVE SMOOTH",
"330 470 OFFCURVE",
"341 471 OFFCURVE",
"349 466 CURVE"
);
}
);
width = 637;
}
);
leftKerningGroup = g;
rightMetricsKey = dotlessj;
unicode = 0067;
},
{
glyphname = h;
lastChange = "2015-01-28 23:09:48 +0000";
layers = (
{
anchors = (
{
name = bottom;
position = "{276, 0}";
},
{
name = center;
position = "{268, 265}";
},
{
name = top;
position = "{129, 660}";
}
);
layerId = UUID0;
name = Light;
paths = (
{
closed = 1;
nodes = (
"70 700 LINE",
"70 0 LINE",
"179 0 LINE",
"179 259 LINE SMOOTH",
"179 350 OFFCURVE",
"191 453 OFFCURVE",
"282 453 CURVE SMOOTH",
"352 453 OFFCURVE",
"358 398 OFFCURVE",
"358 328 CURVE SMOOTH",
"358 69 LINE SMOOTH",
"358 17 OFFCURVE",
"382 -15 OFFCURVE",
"434 -15 CURVE SMOOTH",
"459 -15 OFFCURVE",
"487 -5 OFFCURVE",
"498 16 CURVE",
"474 29 OFFCURVE",
"467 53 OFFCURVE",
"467 82 CURVE SMOOTH",
"467 342 LINE SMOOTH",
"467 460 OFFCURVE",
"435 530 OFFCURVE",
"317 530 CURVE SMOOTH",
"250 530 OFFCURVE",
"197 500 OFFCURVE",
"169 439 CURVE",
"176 475 OFFCURVE",
"179 532 OFFCURVE",
"179 599 CURVE SMOOTH",
"179 712 LINE"
);
}
);
width = 531;
},
{
anchors = (
{
name = bottom;
position = "{301, 0}";
},
{
name = center;
position = "{300, 255}";
},
{
name = top;
position = "{161, 660}";
}
);
layerId = "7A18FD7C-8538-4E93-8010-D52488023CDD";
name = Regular;
paths = (
{
closed = 1;
nodes = (
"54 700 LINE",
"54 0 LINE",
"248 0 LINE",
"248 319 LINE SMOOTH",
"248 378 OFFCURVE",
"248 454 OFFCURVE",
"307 454 CURVE SMOOTH",
"358 454 OFFCURVE",
"358 391 OFFCURVE",
"358 340 CURVE SMOOTH",
"358 109 LINE SMOOTH",
"358 25 OFFCURVE",
"407 -15 OFFCURVE",
"491 -15 CURVE SMOOTH",
"519 -15 OFFCURVE",
"562 -7 OFFCURVE",
"583 12 CURVE",
"559 43 OFFCURVE",
"552 77 OFFCURVE",
"552 116 CURVE SMOOTH",
"552 342 LINE SMOOTH",
"552 465 OFFCURVE",
"503 530 OFFCURVE",
"380 530 CURVE SMOOTH",
"325 530 OFFCURVE",
"272 514 OFFCURVE",
"239 469 CURVE",
"247 502 OFFCURVE",
"248 566 OFFCURVE",
"248 600 CURVE SMOOTH",
"248 720 LINE"
);
}
);
width = 599;
},
{
anchors = (
{
name = bottom;
position = "{314.529, 0}";
},
{
name = center;
position = "{317.318, 249.588}";
},
{
name = top;
position = "{178.318, 660}";
}
);
layerId = "508D1370-0BED-4DB0-A4B4-D9F3BBD09B88";
name = Bold;
paths = (
{
closed = 1;
nodes = (
"45 700 LINE",
"45 0 LINE",
"285 0 LINE",
"285 351 LINE SMOOTH",
"285 393 OFFCURVE",
"279 455 OFFCURVE",
"321 455 CURVE SMOOTH",
"361 455 OFFCURVE",
"358 387 OFFCURVE",
"358 346 CURVE SMOOTH",
"358 131 LINE SMOOTH",
"358 29 OFFCURVE",
"421 -15 OFFCURVE",
"522 -15 CURVE SMOOTH",
"551 -15 OFFCURVE",
"603 -8 OFFCURVE",
"629 10 CURVE",
"605 51 OFFCURVE",
"598 90 OFFCURVE",
"598 134 CURVE SMOOTH",
"598 342 LINE SMOOTH",
"598 468 OFFCURVE",
"540 530 OFFCURVE",
"414 530 CURVE SMOOTH",
"366 530 OFFCURVE",
"313 522 OFFCURVE",
"277 485 CURVE",
"285 517 OFFCURVE",
"285 584 OFFCURVE",
"285 601 CURVE SMOOTH",
"285 724 LINE"
);
}
);
width = 636;
}
);
rightMetricsKey = n;
unicode = 0068;
},
{
glyphname = hbar;
lastChange = "2015-01-28 23:09:48 +0000";
layers = (
{
components = (
{
name = h;
transform = "{1, 0, 0, 1, 0, 0}";
}
);
layerId = UUID0;
name = Light;
paths = (
{
closed = 1;
nodes = (
"54 639 LINE SMOOTH",
"22 639 OFFCURVE",
"6 625 OFFCURVE",
"6 601 CURVE SMOOTH",
"6 588 OFFCURVE",
"10 576 OFFCURVE",
"14 567 CURVE",
"323 567 LINE SMOOTH",
"363 567 OFFCURVE",
"378 581 OFFCURVE",
"378 604 CURVE SMOOTH",
"378 618 OFFCURVE",
"373 630 OFFCURVE",
"369 639 CURVE"
);
}
);
width = 531;
},
{
components = (
{
name = h;
transform = "{1, 0, 0, 1, 0, 0}";
}
);
layerId = "7A18FD7C-8538-4E93-8010-D52488023CDD";
name = Regular;
paths = (
{
closed = 1;
nodes = (
"33 653 LINE SMOOTH",
"-8 653 OFFCURVE",
"-34 633 OFFCURVE",
"-34 591 CURVE SMOOTH",
"-34 583 OFFCURVE",
"-33 570 OFFCURVE",
"-30 561 CURVE",
"335 561 LINE SMOOTH",
"377 561 OFFCURVE",
"403 581 OFFCURVE",
"403 623 CURVE SMOOTH",
"403 629 OFFCURVE",
"402 644 OFFCURVE",
"399 653 CURVE"
);
}
);
width = 599;
},
{
components = (
{
name = h;
transform = "{1, 0, 0, 1, 0, 0}";
}
);
layerId = "508D1370-0BED-4DB0-A4B4-D9F3BBD09B88";
name = Bold;
paths = (
{
closed = 1;
nodes = (
"22 661 LINE SMOOTH",
"-24 661 OFFCURVE",
"-56 637 OFFCURVE",
"-56 586 CURVE SMOOTH",
"-56 580 OFFCURVE",
"-56 567 OFFCURVE",
"-54 558 CURVE",
"341 558 LINE SMOOTH",
"385 558 OFFCURVE",
"417 581 OFFCURVE",
"417 633 CURVE SMOOTH",
"417 635 OFFCURVE",
"418 652 OFFCURVE",
"415 661 CURVE"
);
}
);
width = 636;
}
);
rightMetricsKey = n;
unicode = 0127;
},
{
glyphname = i;
lastChange = "2015-01-28 23:09:48 +0000";
layers = (
{
anchors = (
{
name = bottom;
position = "{140, 0}";
}
);
components = (
{
name = dotaccent;
transform = "{1, 0, 0, 1, 36, 0}";
}
);
layerId = UUID0;
name = Light;
paths = (
{
closed = 1;
nodes = (
"64 510 LINE",
"64 69 LINE SMOOTH",
"64 17 OFFCURVE",
"88 -15 OFFCURVE",
"140 -15 CURVE SMOOTH",
"165 -15 OFFCURVE",
"193 -5 OFFCURVE",
"204 16 CURVE",
"180 29 OFFCURVE",
"173 53 OFFCURVE",
"173 82 CURVE SMOOTH",
"173 510 LINE"
);
}
);
width = 243;
},
{
anchors = (
{
name = bottom;
position = "{165, 0}";
}
);
components = (
{
name = dotaccent;
transform = "{1, 0, 0, 1, 39, 0}";
}
);
layerId = "7A18FD7C-8538-4E93-8010-D52488023CDD";
name = Regular;
paths = (
{
closed = 1;
nodes = (
"47 510 LINE",
"47 109 LINE SMOOTH",
"47 25 OFFCURVE",
"96 -15 OFFCURVE",
"180 -15 CURVE SMOOTH",
"208 -15 OFFCURVE",
"251 -7 OFFCURVE",
"272 12 CURVE",
"248 43 OFFCURVE",
"241 77 OFFCURVE",
"241 116 CURVE SMOOTH",
"241 510 LINE"
);
}
);
width = 295;
},
{
anchors = (
{
name = bottom;
position = "{178.529, 0}";
}
);
components = (
{
name = dotaccent;
transform = "{1, 0, 0, 1, 43, 0}";
}
);
layerId = "508D1370-0BED-4DB0-A4B4-D9F3BBD09B88";
name = Bold;
paths = (
{
closed = 1;
nodes = (
"38 510 LINE",
"38 131 LINE SMOOTH",
"38 29 OFFCURVE",
"100 -15 OFFCURVE",
"202 -15 CURVE SMOOTH",
"231 -15 OFFCURVE",
"282 -8 OFFCURVE",
"309 10 CURVE",
"285 51 OFFCURVE",
"278 90 OFFCURVE",
"278 134 CURVE SMOOTH",
"278 510 LINE"
);
}
);
width = 323;
}
);
unicode = 0069;
},
{
glyphname = dotlessi;
lastChange = "2015-01-28 23:10:03 +0000";
layers = (
{
anchors = (
{
name = bottom;
position = "{140, 0}";
},
{
name = ogonek;
position = "{201, 10}";
},
{
name = top;
position = "{119, 530}";
}
);
layerId = UUID0;
name = Light;
paths = (
{
closed = 1;
nodes = (
"64 510 LINE",
"64 69 LINE SMOOTH",
"64 17 OFFCURVE",
"88 -15 OFFCURVE",
"140 -15 CURVE SMOOTH",
"165 -15 OFFCURVE",
"193 -5 OFFCURVE",
"204 16 CURVE",
"180 29 OFFCURVE",
"173 53 OFFCURVE",
"173 82 CURVE SMOOTH",
"173 510 LINE"
);
}
);
width = 243;
},
{
anchors = (
{
name = bottom;
position = "{169.959, 0}";
},
{
name = ogonek;
position = "{266, 10}";
},
{
name = top;
position = "{144, 510}";
}
);
layerId = "7A18FD7C-8538-4E93-8010-D52488023CDD";
name = Regular;
paths = (
{
closed = 1;
nodes = (
"47 510 LINE",
"47 109 LINE SMOOTH",
"47 25 OFFCURVE",
"96 -15 OFFCURVE",
"180 -15 CURVE SMOOTH",
"208 -15 OFFCURVE",
"251 -7 OFFCURVE",
"272 12 CURVE",
"248 43 OFFCURVE",
"241 77 OFFCURVE",
"241 116 CURVE SMOOTH",
"241 510 LINE"
);
}
);
width = 295;
},
{
anchors = (
{
name = bottom;
position = "{186.091, 0}";
},
{
name = ogonek;
position = "{301.176, 10}";
},
{
name = top;
position = "{157.529, 499.176}";
}
);
layerId = "508D1370-0BED-4DB0-A4B4-D9F3BBD09B88";
name = Bold;
paths = (
{
closed = 1;
nodes = (
"38 510 LINE",
"38 131 LINE SMOOTH",
"38 29 OFFCURVE",
"100 -15 OFFCURVE",
"202 -15 CURVE SMOOTH",
"231 -15 OFFCURVE",
"282 -8 OFFCURVE",
"309 10 CURVE",
"285 51 OFFCURVE",
"278 90 OFFCURVE",
"278 134 CURVE SMOOTH",
"278 510 LINE"
);
}
);
width = 323;
}
);
unicode = 0131;
},
{
glyphname = j;
lastChange = "2015-01-28 23:09:48 +0000";
layers = (
{
components = (
{
name = dotaccent;
transform = "{1, 0, 0, 1, 40, 0}";
}
);
layerId = UUID0;
name = Light;
paths = (
{
closed = 1;
nodes = (
"180 510 LINE",
"70 510 LINE",
"70 7 LINE SMOOTH",
"70 -75 OFFCURVE",
"53 -156 OFFCURVE",
"-29 -156 CURVE",
"-29 -188 OFFCURVE",
"8 -200 OFFCURVE",
"40 -200 CURVE SMOOTH",
"155 -200 OFFCURVE",
"180 -80 OFFCURVE",
"180 35 CURVE SMOOTH"
);
}
);
width = 246;
},
{
components = (
{
name = dotaccent;
transform = "{1, 0, 0, 1, 46, 0}";
}
);
layerId = "7A18FD7C-8538-4E93-8010-D52488023CDD";
name = Regular;
paths = (
{
closed = 1;
nodes = (
"248 510 LINE",
"54 510 LINE",
"54 21 LINE SMOOTH",
"54 -59 OFFCURVE",
"52 -140 OFFCURVE",
"-28 -150 CURVE",
"-10 -189 OFFCURVE",
"43 -200 OFFCURVE",
"86 -200 CURVE SMOOTH",
"217 -200 OFFCURVE",
"248 -85 OFFCURVE",
"248 46 CURVE SMOOTH"
);
}
);
width = 302;
},
{
components = (
{
name = dotaccent;
transform = "{1, 0, 0, 1, 47, 0}";
}
);
layerId = "508D1370-0BED-4DB0-A4B4-D9F3BBD09B88";
name = Bold;
paths = (
{
closed = 1;
nodes = (
"285 510 LINE",
"45 510 LINE",
"45 29 LINE SMOOTH",
"45 -50 OFFCURVE",
"51 -131 OFFCURVE",
"-27 -147 CURVE",
"0 -190 OFFCURVE",
"62 -200 OFFCURVE",
"111 -200 CURVE SMOOTH",
"251 -200 OFFCURVE",
"285 -88 OFFCURVE",
"285 52 CURVE SMOOTH"
);
}
);
width = 332;
}
);
unicode = 006A;
},
{
glyphname = dotlessj;
lastChange = "2015-01-28 23:09:48 +0000";
layers = (
{
anchors = (
{
name = top;
position = "{124, 530}";
}
);
layerId = UUID0;
name = Light;
paths = (
{
closed = 1;
nodes = (
"180 510 LINE",
"70 510 LINE",
"70 7 LINE SMOOTH",
"70 -73 OFFCURVE",
"51 -154 OFFCURVE",
"-29 -154 CURVE",
"-13 -186 OFFCURVE",
"22 -200 OFFCURVE",
"57 -200 CURVE SMOOTH",
"161 -200 OFFCURVE",
"180 -69 OFFCURVE",
"180 35 CURVE SMOOTH"
);
}
);
width = 246;
},
{
anchors = (
{
name = top;
position = "{152, 510}";
}
);
layerId = "7A18FD7C-8538-4E93-8010-D52488023CDD";
name = Regular;
paths = (
{
closed = 1;
nodes = (
"248 510 LINE",
"54 510 LINE",
"54 21 LINE SMOOTH",
"54 -59 OFFCURVE",
"52 -140 OFFCURVE",
"-28 -150 CURVE",
"-10 -189 OFFCURVE",
"43 -200 OFFCURVE",
"86 -200 CURVE SMOOTH",
"217 -200 OFFCURVE",
"248 -85 OFFCURVE",
"248 46 CURVE SMOOTH"
);
}
);
width = 302;
},
{
anchors = (
{
name = top;
position = "{167.153, 499.176}";
}
);
layerId = "508D1370-0BED-4DB0-A4B4-D9F3BBD09B88";
name = Bold;
paths = (
{
closed = 1;
nodes = (
"285 510 LINE",
"45 510 LINE",
"45 29 LINE SMOOTH",
"45 -51 OFFCURVE",
"53 -132 OFFCURVE",
"-27 -148 CURVE",
"-8 -191 OFFCURVE",
"54 -200 OFFCURVE",
"102 -200 CURVE SMOOTH",
"247 -200 OFFCURVE",
"285 -94 OFFCURVE",
"285 52 CURVE SMOOTH"
);
}
);
width = 332;
}
);
unicode = 0237;
},
{
glyphname = k;
lastChange = "2015-01-28 23:09:48 +0000";
layers = (
{
anchors = (
{
name = bottom;
position = "{267, 0}";
}
);
layerId = UUID0;
name = Light;
paths = (
{
closed = 1;
nodes = (
"179 0 LINE",
"179 712 LINE",
"70 700 LINE",
"70 0 LINE"
);
},
{
closed = 1;
nodes = (
"193 280 LINE",
"353 0 LINE",
"480 0 LINE",
"303 298 LINE",
"476 510 LINE",
"360 510 LINE"
);
}
);
width = 476;
},
{
anchors = (
{
name = bottom;
position = "{305, 0}";
}
);
layerId = "7A18FD7C-8538-4E93-8010-D52488023CDD";
name = Regular;
paths = (
{
closed = 1;
nodes = (
"248 0 LINE",
"248 720 LINE",
"54 700 LINE",
"54 0 LINE"
);
},
{
closed = 1;
nodes = (
"262 281 LINE",
"367 0 LINE",
"577 0 LINE",
"430 310 LINE",
"570 510 LINE",
"404 510 LINE"
);
}
);
width = 570;
},
{
anchors = (
{
name = bottom;
position = "{325.565, 0}";
}
);
layerId = "508D1370-0BED-4DB0-A4B4-D9F3BBD09B88";
name = Bold;
paths = (
{
closed = 1;
nodes = (
"285 0 LINE",
"285 724 LINE",
"45 700 LINE",
"45 0 LINE"
);
},
{
closed = 1;
nodes = (
"299 282 LINE",
"375 0 LINE",
"629 0 LINE",
"499 316 LINE",
"621 510 LINE",
"428 510 LINE"
);
}
);
width = 621;
}
);
leftMetricsKey = h;
unicode = 006B;
},
{
glyphname = kgreenlandic;
lastChange = "2015-01-28 23:09:48 +0000";
layers = (
{
layerId = UUID0;
name = Light;
paths = (
{
closed = 1;
nodes = (
"179 0 LINE",
"179 522 LINE",
"70 510 LINE",
"70 0 LINE"
);
},
{
closed = 1;
nodes = (
"193 280 LINE",
"353 0 LINE",
"480 0 LINE",
"303 298 LINE",
"476 510 LINE",
"360 510 LINE"
);
}
);
width = 476;
},
{
layerId = "7A18FD7C-8538-4E93-8010-D52488023CDD";
name = Regular;
paths = (
{
closed = 1;
nodes = (
"248 0 LINE",
"248 530 LINE",
"54 510 LINE",
"54 0 LINE"
);
},
{
closed = 1;
nodes = (
"262 281 LINE",
"367 0 LINE",
"577 0 LINE",
"430 310 LINE",
"570 510 LINE",
"404 510 LINE"
);
}
);
width = 570;
},
{
layerId = "508D1370-0BED-4DB0-A4B4-D9F3BBD09B88";
name = Bold;
paths = (
{
closed = 1;
nodes = (
"285 0 LINE",
"285 534 LINE",
"45 510 LINE",
"45 0 LINE"
);
},
{
closed = 1;
nodes = (
"299 282 LINE",
"375 0 LINE",
"629 0 LINE",
"499 316 LINE",
"621 510 LINE",
"428 510 LINE"
);
}
);
width = 621;
}
);
leftMetricsKey = k;
rightMetricsKey = k;
unicode = 0138;
},
{
glyphname = l;
lastChange = "2015-01-28 23:09:48 +0000";
layers = (
{
anchors = (
{
name = bottom;
position = "{144, 0}";
},
{
name = top;
position = "{123, 660}";
},
{
name = topright;
position = "{267, 660}";
}
);
layerId = UUID0;
name = Light;
paths = (
{
closed = 1;
nodes = (
"68 69 LINE SMOOTH",
"68 17 OFFCURVE",
"92 -15 OFFCURVE",
"144 -15 CURVE SMOOTH",
"169 -15 OFFCURVE",
"197 -5 OFFCURVE",
"208 16 CURVE",
"184 29 OFFCURVE",
"177 53 OFFCURVE",
"177 82 CURVE SMOOTH",
"177 712 LINE",
"68 700 LINE"
);
}
);
width = 251;
},
{
anchors = (
{
name = bottom;
position = "{166, 0}";
},
{
name = top;
position = "{144, 660}";
},
{
name = topright;
position = "{339, 660}";
}
);
layerId = "7A18FD7C-8538-4E93-8010-D52488023CDD";
name = Regular;
paths = (
{
closed = 1;
nodes = (
"47 109 LINE SMOOTH",
"47 25 OFFCURVE",
"96 -15 OFFCURVE",
"180 -15 CURVE SMOOTH",
"208 -15 OFFCURVE",
"251 -7 OFFCURVE",
"272 12 CURVE",
"248 43 OFFCURVE",
"241 77 OFFCURVE",
"241 116 CURVE SMOOTH",
"241 720 LINE",
"47 700 LINE"
);
}
);
width = 295;
},
{
anchors = (
{
name = bottom;
position = "{177.906, 0}";
},
{
name = top;
position = "{155.365, 660}";
},
{
name = topright;
position = "{377.965, 660}";
}
);
layerId = "508D1370-0BED-4DB0-A4B4-D9F3BBD09B88";
name = Bold;
paths = (
{
closed = 1;
nodes = (
"36 131 LINE SMOOTH",
"36 29 OFFCURVE",
"98 -15 OFFCURVE",
"199 -15 CURVE SMOOTH",
"229 -15 OFFCURVE",
"280 -8 OFFCURVE",
"307 10 CURVE",
"283 51 OFFCURVE",
"276 90 OFFCURVE",
"276 134 CURVE SMOOTH",
"276 724 LINE",
"36 700 LINE"
);
}
);
width = 319;
}
);
unicode = 006C;
},
{
glyphname = lacute;
lastChange = "2015-01-28 23:09:48 +0000";
layers = (
{
components = (
{
name = acute.case;
transform = "{1, 0, 0, 1, 35, 0}";
}
);
layerId = UUID0;
name = Light;
paths = (
{
closed = 1;
nodes = (
"68 69 LINE SMOOTH",
"68 17 OFFCURVE",
"92 -15 OFFCURVE",
"144 -15 CURVE SMOOTH",
"169 -15 OFFCURVE",
"197 -5 OFFCURVE",
"208 16 CURVE",
"184 29 OFFCURVE",
"177 53 OFFCURVE",
"177 82 CURVE SMOOTH",
"177 692 LINE",
"68 680 LINE"
);
}
);
width = 251;
},
{
components = (
{
name = acute.case;
transform = "{1, 0, 0, 1, 28, 0}";
}
);
layerId = "7A18FD7C-8538-4E93-8010-D52488023CDD";
name = Regular;
paths = (
{
closed = 1;
nodes = (
"47 109 LINE SMOOTH",
"47 25 OFFCURVE",
"96 -15 OFFCURVE",
"180 -15 CURVE SMOOTH",
"208 -15 OFFCURVE",
"251 -7 OFFCURVE",
"272 12 CURVE",
"248 43 OFFCURVE",
"241 77 OFFCURVE",
"241 116 CURVE SMOOTH",
"241 700 LINE",
"47 680 LINE"
);
}
);
width = 295;
},
{
components = (
{
name = acute.case;
transform = "{1, 0, 0, 1, 24.212, 0}";
}
);
layerId = "508D1370-0BED-4DB0-A4B4-D9F3BBD09B88";
name = Bold;
paths = (
{
closed = 1;
nodes = (
"36 131 LINE SMOOTH",
"36 29 OFFCURVE",
"98 -15 OFFCURVE",
"199 -15 CURVE SMOOTH",
"229 -15 OFFCURVE",
"280 -8 OFFCURVE",
"307 10 CURVE",
"283 51 OFFCURVE",
"276 90 OFFCURVE",
"276 134 CURVE SMOOTH",
"276 704 LINE",
"36 680 LINE"
);
}
);
width = 319;
}
);
unicode = 013A;
},
{
glyphname = ldot;
lastChange = "2015-01-28 23:09:48 +0000";
layers = (
{
layerId = UUID0;
name = Light;
paths = (
{
closed = 1;
nodes = (
"68 69 LINE SMOOTH",
"68 17 OFFCURVE",
"92 -15 OFFCURVE",
"144 -15 CURVE SMOOTH",
"169 -15 OFFCURVE",
"197 -5 OFFCURVE",
"208 16 CURVE",
"184 29 OFFCURVE",
"177 53 OFFCURVE",
"177 82 CURVE SMOOTH",
"177 712 LINE",
"68 700 LINE"
);
},
{
closed = 1;
nodes = (
"225 388 OFFCURVE",
"195 367 OFFCURVE",
"195 329 CURVE SMOOTH",
"195 293 OFFCURVE",
"222 272 OFFCURVE",
"253 272 CURVE SMOOTH",
"284 272 OFFCURVE",
"314 293 OFFCURVE",
"314 331 CURVE SMOOTH",
"314 367 OFFCURVE",
"287 388 OFFCURVE",
"256 388 CURVE SMOOTH"
);
}
);
width = 268;
},
{
layerId = "7A18FD7C-8538-4E93-8010-D52488023CDD";
name = Regular;
paths = (
{
closed = 1;
nodes = (
"47 109 LINE SMOOTH",
"47 25 OFFCURVE",
"96 -15 OFFCURVE",
"180 -15 CURVE SMOOTH",
"208 -15 OFFCURVE",
"251 -7 OFFCURVE",
"272 12 CURVE",
"248 43 OFFCURVE",
"241 77 OFFCURVE",
"241 116 CURVE SMOOTH",
"241 720 LINE",
"47 700 LINE"
);
},
{
closed = 1;
nodes = (
"285 403 OFFCURVE",
"256 375 OFFCURVE",
"256 331 CURVE SMOOTH",
"256 291 OFFCURVE",
"280 264 OFFCURVE",
"322 264 CURVE SMOOTH",
"364 264 OFFCURVE",
"390 291 OFFCURVE",
"390 334 CURVE SMOOTH",
"390 376 OFFCURVE",
"366 403 OFFCURVE",
"326 403 CURVE SMOOTH"
);
}
);
width = 360;
},
{
layerId = "508D1370-0BED-4DB0-A4B4-D9F3BBD09B88";
name = Bold;
paths = (
{
closed = 1;
nodes = (
"36 131 LINE SMOOTH",
"36 29 OFFCURVE",
"98 -15 OFFCURVE",
"199 -15 CURVE SMOOTH",
"229 -15 OFFCURVE",
"280 -8 OFFCURVE",
"307 10 CURVE",
"283 51 OFFCURVE",
"276 90 OFFCURVE",
"276 134 CURVE SMOOTH",
"276 724 LINE",
"36 700 LINE"
);
},
{
closed = 1;
nodes = (
"323 407 OFFCURVE",
"290 373 OFFCURVE",
"290 330 CURVE SMOOTH",
"290 292 OFFCURVE",
"318 260 OFFCURVE",
"364 260 CURVE SMOOTH",
"410 260 OFFCURVE",
"439 292 OFFCURVE",
"439 334 CURVE SMOOTH",
"439 374 OFFCURVE",
"412 407 OFFCURVE",
"368 407 CURVE SMOOTH"
);
}
);
width = 414;
}
);
leftMetricsKey = l;
unicode = 0140;
},
{
glyphname = lslash;
lastChange = "2015-01-28 23:09:48 +0000";
layers = (
{
components = (
{
name = l;
transform = "{1, 0, 0, 1, 30, 0}";
}
);
layerId = UUID0;
name = Light;
paths = (
{
closed = 1;
nodes = (
"311 362 LINE",
"332 371 OFFCURVE",
"340 386 OFFCURVE",
"340 403 CURVE SMOOTH",
"340 425 OFFCURVE",
"326 441 OFFCURVE",
"314 452 CURVE",
"18 334 LINE SMOOTH",
"-3 325 OFFCURVE",
"-11 310 OFFCURVE",
"-11 293 CURVE SMOOTH",
"-11 271 OFFCURVE",
"3 255 OFFCURVE",
"15 244 CURVE"
);
}
);
width = 321;
},
{
components = (
{
name = l;
transform = "{1, 0, 0, 1, 57, 0}";
}
);
layerId = "7A18FD7C-8538-4E93-8010-D52488023CDD";
name = Regular;
paths = (
{
closed = 1;
nodes = (
"371 343 LINE SMOOTH",
"401 354 OFFCURVE",
"418 370 OFFCURVE",
"418 399 CURVE SMOOTH",
"418 412 OFFCURVE",
"414 432 OFFCURVE",
"399 452 CURVE",
"54 325 LINE SMOOTH",
"24 314 OFFCURVE",
"7 299 OFFCURVE",
"7 270 CURVE SMOOTH",
"7 256 OFFCURVE",
"12 235 OFFCURVE",
"26 217 CURVE"
);
}
);
width = 425;
},
{
components = (
{
name = l;
transform = "{1, 0, 0, 1, 71.612, 0}";
}
);
layerId = "508D1370-0BED-4DB0-A4B4-D9F3BBD09B88";
name = Bold;
paths = (
{
closed = 1;
nodes = (
"403 333 LINE SMOOTH",
"438 345 OFFCURVE",
"460 361 OFFCURVE",
"460 397 CURVE SMOOTH",
"460 405 OFFCURVE",
"462 427 OFFCURVE",
"445 452 CURVE",
"73 320 LINE SMOOTH",
"39 308 OFFCURVE",
"17 293 OFFCURVE",
"17 258 CURVE SMOOTH",
"17 248 OFFCURVE",
"17 224 OFFCURVE",
"32 202 CURVE"
);
}
);
width = 481;
}
);
unicode = 0142;
},
{
glyphname = m;
lastChange = "2015-01-28 23:09:48 +0000";
layers = (
{
layerId = UUID0;
name = Light;
paths = (
{
closed = 1;
nodes = (
"175 0 LINE",
"175 259 LINE SMOOTH",
"175 350 OFFCURVE",
"187 453 OFFCURVE",
"278 453 CURVE SMOOTH",
"348 453 OFFCURVE",
"354 398 OFFCURVE",
"354 328 CURVE SMOOTH",
"354 0 LINE",
"463 0 LINE",
"463 259 LINE SMOOTH",
"463 346 OFFCURVE",
"472 453 OFFCURVE",
"559 453 CURVE SMOOTH",
"629 453 OFFCURVE",
"635 398 OFFCURVE",
"635 328 CURVE SMOOTH",
"635 69 LINE SMOOTH",
"635 17 OFFCURVE",
"659 -15 OFFCURVE",
"711 -15 CURVE SMOOTH",
"736 -15 OFFCURVE",
"764 -5 OFFCURVE",
"775 16 CURVE",
"751 29 OFFCURVE",
"744 53 OFFCURVE",
"744 82 CURVE SMOOTH",
"744 342 LINE SMOOTH",
"744 460 OFFCURVE",
"712 530 OFFCURVE",
"594 530 CURVE SMOOTH",
"526 530 OFFCURVE",
"478 499 OFFCURVE",
"452 437 CURVE",
"434 496 OFFCURVE",
"394 530 OFFCURVE",
"313 530 CURVE SMOOTH",
"243 530 OFFCURVE",
"188 497 OFFCURVE",
"162 432 CURVE",
"157 522 LINE",
"66 510 LINE",
"66 0 LINE"
);
}
);
width = 808;
},
{
layerId = "7A18FD7C-8538-4E93-8010-D52488023CDD";
name = Regular;
paths = (
{
closed = 1;
nodes = (
"241 0 LINE",
"241 319 LINE SMOOTH",
"241 378 OFFCURVE",
"241 454 OFFCURVE",
"300 454 CURVE SMOOTH",
"351 454 OFFCURVE",
"351 391 OFFCURVE",
"351 340 CURVE SMOOTH",
"351 0 LINE",
"545 0 LINE",
"545 319 LINE SMOOTH",
"545 374 OFFCURVE",
"545 454 OFFCURVE",
"600 454 CURVE SMOOTH",
"647 454 OFFCURVE",
"647 391 OFFCURVE",
"647 340 CURVE SMOOTH",
"647 109 LINE SMOOTH",
"647 25 OFFCURVE",
"696 -15 OFFCURVE",
"780 -15 CURVE SMOOTH",
"808 -15 OFFCURVE",
"851 -7 OFFCURVE",
"872 12 CURVE",
"848 43 OFFCURVE",
"841 77 OFFCURVE",
"841 116 CURVE SMOOTH",
"841 342 LINE SMOOTH",
"841 462 OFFCURVE",
"795 530 OFFCURVE",
"675 530 CURVE SMOOTH",
"611 530 OFFCURVE",
"555 509 OFFCURVE",
"525 451 CURVE",
"500 502 OFFCURVE",
"452 530 OFFCURVE",
"375 530 CURVE SMOOTH",
"298 530 OFFCURVE",
"240 504 OFFCURVE",
"212 432 CURVE",
"204 522 LINE",
"47 510 LINE",
"47 0 LINE"
);
}
);
width = 888;
},
{
layerId = "508D1370-0BED-4DB0-A4B4-D9F3BBD09B88";
name = Bold;
paths = (
{
closed = 1;
nodes = (
"277 0 LINE",
"277 351 LINE SMOOTH",
"277 393 OFFCURVE",
"270 455 OFFCURVE",
"312 455 CURVE SMOOTH",
"353 455 OFFCURVE",
"349 387 OFFCURVE",
"349 346 CURVE SMOOTH",
"349 0 LINE",
"589 0 LINE",
"589 351 LINE SMOOTH",
"589 389 OFFCURVE",
"585 455 OFFCURVE",
"622 455 CURVE SMOOTH",
"657 455 OFFCURVE",
"653 387 OFFCURVE",
"653 346 CURVE SMOOTH",
"653 131 LINE SMOOTH",
"653 29 OFFCURVE",
"716 -15 OFFCURVE",
"817 -15 CURVE SMOOTH",
"847 -15 OFFCURVE",
"898 -8 OFFCURVE",
"924 10 CURVE",
"900 51 OFFCURVE",
"893 90 OFFCURVE",
"893 134 CURVE SMOOTH",
"893 342 LINE SMOOTH",
"893 463 OFFCURVE",
"840 530 OFFCURVE",
"719 530 CURVE SMOOTH",
"657 530 OFFCURVE",
"597 514 OFFCURVE",
"565 459 CURVE",
"536 505 OFFCURVE",
"483 530 OFFCURVE",
"409 530 CURVE SMOOTH",
"328 530 OFFCURVE",
"268 508 OFFCURVE",
"239 432 CURVE",
"229 522 LINE",
"37 510 LINE",
"37 0 LINE"
);
}
);
width = 931;
}
);
leftKerningGroup = n;
leftMetricsKey = n;
rightMetricsKey = n;
unicode = 006D;
},
{
glyphname = n;
lastChange = "2015-01-28 23:09:48 +0000";
layers = (
{
anchors = (
{
name = bottom;
position = "{284, 0}";
},
{
name = top;
position = "{284, 530}";
}
);
layerId = UUID0;
name = Light;
paths = (
{
closed = 1;
nodes = (
"175 0 LINE",
"175 259 LINE SMOOTH",
"175 350 OFFCURVE",
"187 453 OFFCURVE",
"278 453 CURVE SMOOTH",
"348 453 OFFCURVE",
"354 398 OFFCURVE",
"354 328 CURVE SMOOTH",
"354 69 LINE SMOOTH",
"354 17 OFFCURVE",
"378 -15 OFFCURVE",
"430 -15 CURVE SMOOTH",
"455 -15 OFFCURVE",
"483 -5 OFFCURVE",
"494 16 CURVE",
"470 29 OFFCURVE",
"463 53 OFFCURVE",
"463 82 CURVE SMOOTH",
"463 342 LINE SMOOTH",
"463 460 OFFCURVE",
"431 530 OFFCURVE",
"313 530 CURVE SMOOTH",
"243 530 OFFCURVE",
"188 497 OFFCURVE",
"162 432 CURVE",
"157 522 LINE",
"66 510 LINE",
"66 0 LINE"
);
}
);
width = 527;
},
{
anchors = (
{
name = bottom;
position = "{314, 0}";
},
{
name = top;
position = "{314, 510}";
}
);
layerId = "7A18FD7C-8538-4E93-8010-D52488023CDD";
name = Regular;
paths = (
{
closed = 1;
nodes = (
"241 0 LINE",
"241 319 LINE SMOOTH",
"241 378 OFFCURVE",
"241 454 OFFCURVE",
"300 454 CURVE SMOOTH",
"351 454 OFFCURVE",
"351 391 OFFCURVE",
"351 340 CURVE SMOOTH",
"351 109 LINE SMOOTH",
"351 25 OFFCURVE",
"400 -15 OFFCURVE",
"484 -15 CURVE SMOOTH",
"512 -15 OFFCURVE",
"555 -7 OFFCURVE",
"576 12 CURVE",
"552 43 OFFCURVE",
"545 77 OFFCURVE",
"545 116 CURVE SMOOTH",
"545 342 LINE SMOOTH",
"545 464 OFFCURVE",
"497 530 OFFCURVE",
"375 530 CURVE SMOOTH",
"298 530 OFFCURVE",
"240 504 OFFCURVE",
"212 432 CURVE",
"204 522 LINE",
"47 510 LINE",
"47 0 LINE"
);
}
);
width = 592;
},
{
anchors = (
{
name = bottom;
position = "{330.235, 0}";
},
{
name = top;
position = "{330.235, 499.176}";
}
);
layerId = "508D1370-0BED-4DB0-A4B4-D9F3BBD09B88";
name = Bold;
paths = (
{
closed = 1;
nodes = (
"277 0 LINE",
"277 351 LINE SMOOTH",
"277 393 OFFCURVE",
"270 455 OFFCURVE",
"312 455 CURVE SMOOTH",
"353 455 OFFCURVE",
"349 387 OFFCURVE",
"349 346 CURVE SMOOTH",
"349 131 LINE SMOOTH",
"349 29 OFFCURVE",
"412 -15 OFFCURVE",
"513 -15 CURVE SMOOTH",
"543 -15 OFFCURVE",
"594 -8 OFFCURVE",
"620 10 CURVE",
"596 51 OFFCURVE",
"589 90 OFFCURVE",
"589 134 CURVE SMOOTH",
"589 342 LINE SMOOTH",
"589 466 OFFCURVE",
"533 530 OFFCURVE",
"409 530 CURVE SMOOTH",
"328 530 OFFCURVE",
"268 508 OFFCURVE",
"239 432 CURVE",
"229 522 LINE",
"37 510 LINE",
"37 0 LINE"
);
}
);
width = 627;
}
);
leftKerningGroup = n;
unicode = 006E;
},
{
glyphname = eng;
lastChange = "2015-01-28 23:09:48 +0000";
layers = (
{
layerId = UUID0;
name = Light;
paths = (
{
closed = 1;
nodes = (
"354 7 LINE SMOOTH",
"354 -75 OFFCURVE",
"337 -156 OFFCURVE",
"255 -156 CURVE",
"255 -188 OFFCURVE",
"292 -200 OFFCURVE",
"324 -200 CURVE SMOOTH",
"439 -200 OFFCURVE",
"463 -80 OFFCURVE",
"463 35 CURVE SMOOTH",
"463 342 LINE SMOOTH",
"463 460 OFFCURVE",
"431 530 OFFCURVE",
"313 530 CURVE SMOOTH",
"243 530 OFFCURVE",
"188 497 OFFCURVE",
"162 432 CURVE",
"157 522 LINE",
"66 510 LINE",
"66 0 LINE",
"175 0 LINE",
"175 259 LINE SMOOTH",
"175 350 OFFCURVE",
"187 453 OFFCURVE",
"278 453 CURVE SMOOTH",
"348 453 OFFCURVE",
"354 398 OFFCURVE",
"354 328 CURVE SMOOTH"
);
}
);
width = 507;
},
{
layerId = "7A18FD7C-8538-4E93-8010-D52488023CDD";
name = Regular;
paths = (
{
closed = 1;
nodes = (
"351 21 LINE SMOOTH",
"351 -59 OFFCURVE",
"349 -140 OFFCURVE",
"269 -150 CURVE",
"287 -189 OFFCURVE",
"340 -200 OFFCURVE",
"383 -200 CURVE SMOOTH",
"514 -200 OFFCURVE",
"545 -85 OFFCURVE",
"545 46 CURVE SMOOTH",
"545 342 LINE SMOOTH",
"545 464 OFFCURVE",
"497 530 OFFCURVE",
"375 530 CURVE SMOOTH",
"298 530 OFFCURVE",
"240 504 OFFCURVE",
"212 432 CURVE",
"204 522 LINE",
"47 510 LINE",
"47 0 LINE",
"241 0 LINE",
"241 319 LINE SMOOTH",
"241 378 OFFCURVE",
"241 454 OFFCURVE",
"300 454 CURVE SMOOTH",
"351 454 OFFCURVE",
"351 391 OFFCURVE",
"351 340 CURVE SMOOTH"
);
}
);
width = 586;
},
{
layerId = "508D1370-0BED-4DB0-A4B4-D9F3BBD09B88";
name = Bold;
paths = (
{
closed = 1;
nodes = (
"349 29 LINE SMOOTH",
"349 -50 OFFCURVE",
"355 -131 OFFCURVE",
"277 -147 CURVE",
"304 -190 OFFCURVE",
"366 -200 OFFCURVE",
"415 -200 CURVE SMOOTH",
"555 -200 OFFCURVE",
"589 -88 OFFCURVE",
"589 52 CURVE SMOOTH",
"589 342 LINE SMOOTH",
"589 466 OFFCURVE",
"533 530 OFFCURVE",
"409 530 CURVE SMOOTH",
"328 530 OFFCURVE",
"268 508 OFFCURVE",
"239 432 CURVE",
"229 522 LINE",
"37 510 LINE",
"37 0 LINE",
"277 0 LINE",
"277 351 LINE SMOOTH",
"277 393 OFFCURVE",
"270 455 OFFCURVE",
"312 455 CURVE SMOOTH",
"353 455 OFFCURVE",
"349 387 OFFCURVE",
"349 346 CURVE SMOOTH"
);
}
);
width = 629;
}
);
leftMetricsKey = n;
rightMetricsKey = j;
unicode = 014B;
},
{
glyphname = o;
lastChange = "2015-01-28 23:09:48 +0000";
layers = (
{
anchors = (
{
name = bottom;
position = "{247, 0}";
},
{
name = ogonek;
position = "{356, 0}";
},
{
name = top;
position = "{251, 530}";
}
);
layerId = UUID0;
name = Light;
paths = (
{
closed = 1;
nodes = (
"96 530 OFFCURVE",
"32 407 OFFCURVE",
"32 252 CURVE SMOOTH",
"32 92 OFFCURVE",
"91 -22 OFFCURVE",
"251 -22 CURVE SMOOTH",
"413 -22 OFFCURVE",
"470 100 OFFCURVE",
"470 262 CURVE SMOOTH",
"470 417 OFFCURVE",
"406 530 OFFCURVE",
"251 530 CURVE SMOOTH"
);
},
{
closed = 1;
nodes = (
"157 38 OFFCURVE",
"151 163 OFFCURVE",
"151 257 CURVE SMOOTH",
"151 345 OFFCURVE",
"163 470 OFFCURVE",
"251 470 CURVE SMOOTH",
"340 470 OFFCURVE",
"351 346 OFFCURVE",
"351 257 CURVE SMOOTH",
"351 163 OFFCURVE",
"345 38 OFFCURVE",
"251 38 CURVE SMOOTH"
);
}
);
width = 502;
},
{
anchors = (
{
name = bottom;
position = "{291, 0}";
},
{
name = ogonek;
position = "{404, 0}";
},
{
name = top;
position = "{291, 510}";
}
);
layerId = "7A18FD7C-8538-4E93-8010-D52488023CDD";
name = Regular;
paths = (
{
closed = 1;
nodes = (
"119 530 OFFCURVE",
"28 424 OFFCURVE",
"28 252 CURVE SMOOTH",
"28 88 OFFCURVE",
"127 -22 OFFCURVE",
"291 -22 CURVE SMOOTH",
"460 -22 OFFCURVE",
"554 93 OFFCURVE",
"554 262 CURVE SMOOTH",
"554 434 OFFCURVE",
"463 530 OFFCURVE",
"291 530 CURVE SMOOTH"
);
},
{
closed = 1;
nodes = (
"228 38 OFFCURVE",
"226 167 OFFCURVE",
"226 257 CURVE SMOOTH",
"226 347 OFFCURVE",
"228 470 OFFCURVE",
"291 470 CURVE SMOOTH",
"354 470 OFFCURVE",
"356 347 OFFCURVE",
"356 257 CURVE SMOOTH",
"356 167 OFFCURVE",
"354 38 OFFCURVE",
"291 38 CURVE SMOOTH"
);
}
);
width = 582;
},
{
anchors = (
{
name = bottom;
position = "{314.812, 0}";
},
{
name = ogonek;
position = "{429.976, 0}";
},
{
name = top;
position = "{312.647, 499.176}";
}
);
layerId = "508D1370-0BED-4DB0-A4B4-D9F3BBD09B88";
name = Bold;
paths = (
{
closed = 1;
nodes = (
"131 530 OFFCURVE",
"26 433 OFFCURVE",
"26 252 CURVE SMOOTH",
"26 86 OFFCURVE",
"146 -22 OFFCURVE",
"313 -22 CURVE SMOOTH",
"485 -22 OFFCURVE",
"599 89 OFFCURVE",
"599 262 CURVE SMOOTH",
"599 443 OFFCURVE",
"494 530 OFFCURVE",
"313 530 CURVE SMOOTH"
);
},
{
closed = 1;
nodes = (
"266 38 OFFCURVE",
"267 169 OFFCURVE",
"267 257 CURVE SMOOTH",
"267 348 OFFCURVE",
"263 470 OFFCURVE",
"313 470 CURVE SMOOTH",
"362 470 OFFCURVE",
"359 348 OFFCURVE",
"359 257 CURVE SMOOTH",
"359 169 OFFCURVE",
"359 38 OFFCURVE",
"313 38 CURVE SMOOTH"
);
}
);
width = 625;
}
);
leftKerningGroup = o;
rightKerningGroup = o;
unicode = 006F;
},
{
glyphname = oslash;
lastChange = "2015-01-28 23:09:48 +0000";
layers = (
{
anchors = (
{
name = top;
position = "{263, 530}";
}
);
components = (
{
name = o;
transform = "{1, 0, 0, 1, 0, 0}";
}
);
layerId = UUID0;
name = Light;
paths = (
{
closed = 1;
nodes = (
"39 24 LINE SMOOTH",
"32 14 OFFCURVE",
"24 0 OFFCURVE",
"24 -11 CURVE SMOOTH",
"24 -37 OFFCURVE",
"67 -51 OFFCURVE",
"78 -53 CURVE",
"480 510 LINE SMOOTH",
"487 520 OFFCURVE",
"495 534 OFFCURVE",
"495 545 CURVE SMOOTH",
"495 571 OFFCURVE",
"452 585 OFFCURVE",
"441 587 CURVE"
);
}
);
width = 502;
},
{
anchors = (
{
name = top;
position = "{291, 510}";
}
);
components = (
{
name = o;
transform = "{1, 0, 0, 1, 0, 0}";
}
);
layerId = "7A18FD7C-8538-4E93-8010-D52488023CDD";
name = Regular;
paths = (
{
closed = 1;
nodes = (
"70 27 LINE SMOOTH",
"61 14 OFFCURVE",
"54 -1 OFFCURVE",
"54 -13 CURVE SMOOTH",
"54 -44 OFFCURVE",
"91 -57 OFFCURVE",
"122 -57 CURVE",
"501 516 LINE SMOOTH",
"510 529 OFFCURVE",
"517 544 OFFCURVE",
"517 556 CURVE SMOOTH",
"517 587 OFFCURVE",
"480 600 OFFCURVE",
"449 600 CURVE"
);
}
);
width = 582;
},
{
anchors = (
{
name = top;
position = "{306.153, 499.176}";
}
);
components = (
{
name = o;
transform = "{1, 0, 0, 1, 0, 0}";
}
);
layerId = "508D1370-0BED-4DB0-A4B4-D9F3BBD09B88";
name = Bold;
paths = (
{
closed = 1;
nodes = (
"87 29 LINE SMOOTH",
"77 14 OFFCURVE",
"70 -2 OFFCURVE",
"70 -14 CURVE SMOOTH",
"70 -48 OFFCURVE",
"104 -60 OFFCURVE",
"146 -59 CURVE",
"512 519 LINE SMOOTH",
"522 534 OFFCURVE",
"529 549 OFFCURVE",
"529 562 CURVE SMOOTH",
"529 596 OFFCURVE",
"495 608 OFFCURVE",
"453 607 CURVE"
);
}
);
width = 625;
}
);
leftKerningGroup = o;
rightKerningGroup = o;
unicode = 00F8;
},
{
glyphname = oe;
lastChange = "2015-01-28 23:09:48 +0000";
layers = (
{
anchors = (
{
name = top;
position = "{381, 530}";
}
);
layerId = UUID0;
name = Light;
paths = (
{
closed = 1;
nodes = (
"507 530 OFFCURVE",
"453 503 OFFCURVE",
"415 459 CURVE",
"380 503 OFFCURVE",
"326 530 OFFCURVE",
"251 530 CURVE SMOOTH",
"96 530 OFFCURVE",
"32 407 OFFCURVE",
"32 252 CURVE SMOOTH",
"32 92 OFFCURVE",
"91 -22 OFFCURVE",
"251 -22 CURVE SMOOTH",
"323 -22 OFFCURVE",
"375 2 OFFCURVE",
"409 43 CURVE",
"444 2 OFFCURVE",
"495 -22 OFFCURVE",
"566 -22 CURVE SMOOTH",
"642 -22 OFFCURVE",
"729 22 OFFCURVE",
"729 98 CURVE SMOOTH",
"729 116 OFFCURVE",
"723 133 OFFCURVE",
"706 141 CURVE",
"681 87 OFFCURVE",
"635 54 OFFCURVE",
"576 54 CURVE SMOOTH",
"488 54 OFFCURVE",
"469 140 OFFCURVE",
"466 228 CURVE",
"479 227 OFFCURVE",
"505 226 OFFCURVE",
"521 226 CURVE SMOOTH",
"645 226 OFFCURVE",
"746 259 OFFCURVE",
"746 383 CURVE SMOOTH",
"746 479 OFFCURVE",
"678 530 OFFCURVE",
"582 530 CURVE SMOOTH"
);
},
{
closed = 1;
nodes = (
"340 470 OFFCURVE",
"351 346 OFFCURVE",
"351 257 CURVE SMOOTH",
"351 254 LINE",
"351 242 LINE SMOOTH",
"350 150 OFFCURVE",
"340 38 OFFCURVE",
"251 38 CURVE SMOOTH",
"157 38 OFFCURVE",
"151 163 OFFCURVE",
"151 257 CURVE SMOOTH",
"151 345 OFFCURVE",
"163 470 OFFCURVE",
"251 470 CURVE SMOOTH"
);
},
{
closed = 1;
nodes = (
"616 473 OFFCURVE",
"637 427 OFFCURVE",
"637 377 CURVE SMOOTH",
"637 302 OFFCURVE",
"586 276 OFFCURVE",
"511 276 CURVE SMOOTH",
"488 276 OFFCURVE",
"459 278 OFFCURVE",
"434 284 CURVE",
"466 243 LINE",
"464 331 OFFCURVE",
"474 473 OFFCURVE",
"566 473 CURVE SMOOTH"
);
}
);
width = 776;
},
{
anchors = (
{
name = top;
position = "{428, 510}";
}
);
layerId = "7A18FD7C-8538-4E93-8010-D52488023CDD";
name = Regular;
paths = (
{
closed = 1;
nodes = (
"578 530 OFFCURVE",
"512 514 OFFCURVE",
"459 480 CURVE",
"417 510 OFFCURVE",
"360 530 OFFCURVE",
"291 530 CURVE SMOOTH",
"119 530 OFFCURVE",
"28 424 OFFCURVE",
"28 252 CURVE SMOOTH",
"28 88 OFFCURVE",
"127 -22 OFFCURVE",
"291 -22 CURVE SMOOTH",
"357 -22 OFFCURVE",
"412 0 OFFCURVE",
"454 31 CURVE",
"497 0 OFFCURVE",
"555 -22 OFFCURVE",
"625 -22 CURVE SMOOTH",
"720 -22 OFFCURVE",
"828 20 OFFCURVE",
"828 115 CURVE SMOOTH",
"828 137 OFFCURVE",
"820 160 OFFCURVE",
"800 170 CURVE",
"774 121 OFFCURVE",
"719 98 OFFCURVE",
"664 98 CURVE SMOOTH",
"584 98 OFFCURVE",
"560 155 OFFCURVE",
"555 231 CURVE",
"567 229 OFFCURVE",
"594 228 OFFCURVE",
"606 228 CURVE SMOOTH",
"737 228 OFFCURVE",
"850 254 OFFCURVE",
"850 385 CURVE SMOOTH",
"850 490 OFFCURVE",
"746 530 OFFCURVE",
"641 530 CURVE SMOOTH"
);
},
{
closed = 1;
nodes = (
"350 470 OFFCURVE",
"355 360 OFFCURVE",
"356 272 CURVE SMOOTH",
"356 259 LINE",
"356 257 LINE SMOOTH",
"356 167 OFFCURVE",
"354 38 OFFCURVE",
"291 38 CURVE SMOOTH",
"228 38 OFFCURVE",
"226 167 OFFCURVE",
"226 257 CURVE SMOOTH",
"226 347 OFFCURVE",
"228 470 OFFCURVE",
"291 470 CURVE SMOOTH"
);
},
{
closed = 1;
nodes = (
"668 470 OFFCURVE",
"680 426 OFFCURVE",
"680 385 CURVE SMOOTH",
"680 301 OFFCURVE",
"636 275 OFFCURVE",
"551 276 CURVE SMOOTH",
"537 276 OFFCURVE",
"523 277 OFFCURVE",
"507 278 CURVE",
"554 247 LINE",
"554 292 OFFCURVE",
"550 470 OFFCURVE",
"627 470 CURVE SMOOTH"
);
}
);
width = 865;
},
{
anchors = (
{
name = top;
position = "{453.435, 499.176}";
}
);
layerId = "508D1370-0BED-4DB0-A4B4-D9F3BBD09B88";
name = Bold;
paths = (
{
closed = 1;
nodes = (
"616 530 OFFCURVE",
"544 520 OFFCURVE",
"483 491 CURVE",
"437 514 OFFCURVE",
"378 530 OFFCURVE",
"313 530 CURVE SMOOTH",
"131 530 OFFCURVE",
"26 433 OFFCURVE",
"26 252 CURVE SMOOTH",
"26 86 OFFCURVE",
"146 -22 OFFCURVE",
"313 -22 CURVE SMOOTH",
"375 -22 OFFCURVE",
"432 -1 OFFCURVE",
"478 25 CURVE",
"526 -1 OFFCURVE",
"587 -22 OFFCURVE",
"657 -22 CURVE SMOOTH",
"762 -22 OFFCURVE",
"882 19 OFFCURVE",
"882 124 CURVE SMOOTH",
"882 148 OFFCURVE",
"872 175 OFFCURVE",
"851 186 CURVE",
"824 139 OFFCURVE",
"764 122 OFFCURVE",
"712 122 CURVE SMOOTH",
"636 122 OFFCURVE",
"609 163 OFFCURVE",
"603 233 CURVE",
"615 230 OFFCURVE",
"642 229 OFFCURVE",
"652 229 CURVE SMOOTH",
"787 229 OFFCURVE",
"906 251 OFFCURVE",
"906 386 CURVE SMOOTH",
"906 496 OFFCURVE",
"783 530 OFFCURVE",
"673 530 CURVE SMOOTH"
);
},
{
closed = 1;
nodes = (
"355 470 OFFCURVE",
"357 368 OFFCURVE",
"359 280 CURVE SMOOTH",
"359 262 LINE",
"359 265 LINE SMOOTH",
"359 176 OFFCURVE",
"362 38 OFFCURVE",
"313 38 CURVE SMOOTH",
"266 38 OFFCURVE",
"267 169 OFFCURVE",
"267 257 CURVE SMOOTH",
"267 348 OFFCURVE",
"263 470 OFFCURVE",
"313 470 CURVE SMOOTH"
);
},
{
closed = 1;
nodes = (
"696 468 OFFCURVE",
"703 425 OFFCURVE",
"703 389 CURVE SMOOTH",
"703 300 OFFCURVE",
"663 274 OFFCURVE",
"573 276 CURVE SMOOTH",
"564 276 OFFCURVE",
"558 276 OFFCURVE",
"547 275 CURVE",
"602 249 LINE",
"603 271 OFFCURVE",
"591 468 OFFCURVE",
"660 468 CURVE SMOOTH"
);
}
);
width = 913;
}
);
leftKerningGroup = o;
leftMetricsKey = o;
rightMetricsKey = e;
unicode = 0153;
},
{
glyphname = p;
lastChange = "2015-01-28 23:09:48 +0000";
layers = (
{
layerId = UUID0;
name = Light;
paths = (
{
closed = 1;
nodes = (
"245 530 OFFCURVE",
"194 498 OFFCURVE",
"166 432 CURVE",
"161 522 LINE",
"70 510 LINE",
"70 -193 LINE",
"179 -181 LINE",
"179 -9 LINE",
"206 -18 OFFCURVE",
"238 -22 OFFCURVE",
"267 -22 CURVE SMOOTH",
"426 -22 OFFCURVE",
"490 103 OFFCURVE",
"490 262 CURVE SMOOTH",
"490 398 OFFCURVE",
"452 530 OFFCURVE",
"316 530 CURVE SMOOTH"
);
},
{
closed = 1;
nodes = (
"366 453 OFFCURVE",
"371 345 OFFCURVE",
"371 257 CURVE SMOOTH",
"371 165 OFFCURVE",
"364 38 OFFCURVE",
"272 38 CURVE SMOOTH",
"239 38 OFFCURVE",
"207 50 OFFCURVE",
"179 69 CURVE",
"179 307 LINE SMOOTH",
"179 382 OFFCURVE",
"203 453 OFFCURVE",
"278 453 CURVE SMOOTH"
);
}
);
width = 522;
},
{
layerId = "7A18FD7C-8538-4E93-8010-D52488023CDD";
name = Regular;
paths = (
{
closed = 1;
nodes = (
"305 530 OFFCURVE",
"247 504 OFFCURVE",
"219 432 CURVE",
"211 522 LINE",
"54 510 LINE",
"54 -193 LINE",
"248 -180 LINE",
"248 -19 LINE",
"263 -21 OFFCURVE",
"279 -22 OFFCURVE",
"293 -22 CURVE SMOOTH",
"474 -22 OFFCURVE",
"571 81 OFFCURVE",
"571 262 CURVE SMOOTH",
"571 407 OFFCURVE",
"527 530 OFFCURVE",
"382 530 CURVE SMOOTH"
);
},
{
closed = 1;
nodes = (
"370 454 OFFCURVE",
"373 347 OFFCURVE",
"373 257 CURVE SMOOTH",
"373 162 OFFCURVE",
"370 38 OFFCURVE",
"300 38 CURVE SMOOTH",
"282 38 OFFCURVE",
"263 44 OFFCURVE",
"248 56 CURVE",
"248 319 LINE SMOOTH",
"248 378 OFFCURVE",
"248 454 OFFCURVE",
"307 454 CURVE SMOOTH"
);
}
);
width = 599;
},
{
layerId = "508D1370-0BED-4DB0-A4B4-D9F3BBD09B88";
name = Bold;
paths = (
{
closed = 1;
nodes = (
"337 530 OFFCURVE",
"276 507 OFFCURVE",
"248 432 CURVE",
"238 522 LINE",
"45 510 LINE",
"45 -193 LINE",
"285 -179 LINE",
"285 -22 LINE",
"294 -22 OFFCURVE",
"301 -22 OFFCURVE",
"307 -22 CURVE SMOOTH",
"500 -22 OFFCURVE",
"615 69 OFFCURVE",
"615 262 CURVE SMOOTH",
"615 412 OFFCURVE",
"568 530 OFFCURVE",
"418 530 CURVE SMOOTH"
);
},
{
closed = 1;
nodes = (
"372 455 OFFCURVE",
"374 348 OFFCURVE",
"374 257 CURVE SMOOTH",
"374 160 OFFCURVE",
"373 38 OFFCURVE",
"315 38 CURVE SMOOTH",
"305 38 OFFCURVE",
"293 41 OFFCURVE",
"285 49 CURVE",
"285 325 LINE SMOOTH",
"285 376 OFFCURVE",
"272 455 OFFCURVE",
"323 455 CURVE SMOOTH"
);
}
);
width = 641;
}
);
leftKerningGroup = n;
leftMetricsKey = h;
rightKerningGroup = o;
rightMetricsKey = o;
unicode = 0070;
},
{
glyphname = thorn;
lastChange = "2015-01-28 23:09:48 +0000";
layers = (
{
layerId = UUID0;
name = Light;
paths = (
{
closed = 1;
nodes = (
"70 700 LINE",
"70 -193 LINE",
"179 -181 LINE",
"179 -9 LINE",
"206 -18 OFFCURVE",
"238 -22 OFFCURVE",
"267 -22 CURVE SMOOTH",
"426 -22 OFFCURVE",
"490 103 OFFCURVE",
"490 262 CURVE SMOOTH",
"490 398 OFFCURVE",
"452 530 OFFCURVE",
"316 530 CURVE SMOOTH",
"247 530 OFFCURVE",
"197 500 OFFCURVE",
"169 439 CURVE",
"176 475 OFFCURVE",
"179 532 OFFCURVE",
"179 599 CURVE SMOOTH",
"179 712 LINE"
);
},
{
closed = 1;
nodes = (
"366 453 OFFCURVE",
"371 345 OFFCURVE",
"371 257 CURVE SMOOTH",
"371 165 OFFCURVE",
"364 38 OFFCURVE",
"272 38 CURVE SMOOTH",
"239 38 OFFCURVE",
"207 50 OFFCURVE",
"179 69 CURVE",
"179 307 LINE SMOOTH",
"179 382 OFFCURVE",
"203 453 OFFCURVE",
"278 453 CURVE SMOOTH"
);
}
);
width = 522;
},
{
layerId = "7A18FD7C-8538-4E93-8010-D52488023CDD";
name = Regular;
paths = (
{
closed = 1;
nodes = (
"54 700 LINE",
"54 -193 LINE",
"248 -180 LINE",
"248 -19 LINE",
"263 -21 OFFCURVE",
"279 -22 OFFCURVE",
"293 -22 CURVE SMOOTH",
"474 -22 OFFCURVE",
"571 81 OFFCURVE",
"571 262 CURVE SMOOTH",
"571 407 OFFCURVE",
"527 530 OFFCURVE",
"382 530 CURVE SMOOTH",
"320 530 OFFCURVE",
"270 513 OFFCURVE",
"239 469 CURVE",
"247 502 OFFCURVE",
"248 566 OFFCURVE",
"248 600 CURVE SMOOTH",
"248 720 LINE"
);
},
{
closed = 1;
nodes = (
"370 454 OFFCURVE",
"373 347 OFFCURVE",
"373 257 CURVE SMOOTH",
"373 162 OFFCURVE",
"370 38 OFFCURVE",
"300 38 CURVE SMOOTH",
"282 38 OFFCURVE",
"263 44 OFFCURVE",
"248 56 CURVE",
"248 319 LINE SMOOTH",
"248 378 OFFCURVE",
"248 454 OFFCURVE",
"307 454 CURVE SMOOTH"
);
}
);
width = 599;
},
{
layerId = "508D1370-0BED-4DB0-A4B4-D9F3BBD09B88";
name = Bold;
paths = (
{
closed = 1;
nodes = (
"45 700 LINE",
"45 -193 LINE",
"285 -179 LINE",
"285 -24 LINE",
"294 -23 OFFCURVE",
"301 -22 OFFCURVE",
"307 -22 CURVE SMOOTH",
"500 -22 OFFCURVE",
"615 69 OFFCURVE",
"615 262 CURVE SMOOTH",
"615 412 OFFCURVE",
"568 530 OFFCURVE",
"418 530 CURVE SMOOTH",
"360 530 OFFCURVE",
"310 520 OFFCURVE",
"277 485 CURVE",
"285 517 OFFCURVE",
"285 584 OFFCURVE",
"285 601 CURVE SMOOTH",
"285 724 LINE"
);
},
{
closed = 1;
nodes = (
"372 455 OFFCURVE",
"374 348 OFFCURVE",
"374 257 CURVE SMOOTH",
"374 160 OFFCURVE",
"373 38 OFFCURVE",
"315 38 CURVE SMOOTH",
"305 38 OFFCURVE",
"293 41 OFFCURVE",
"285 49 CURVE",
"285 325 LINE SMOOTH",
"285 376 OFFCURVE",
"272 455 OFFCURVE",
"323 455 CURVE SMOOTH"
);
}
);
width = 641;
}
);
leftMetricsKey = h;
rightKerningGroup = o;
rightMetricsKey = o;
unicode = 00FE;
},
{
glyphname = q;
lastChange = "2015-01-28 23:09:48 +0000";
layers = (
{
layerId = UUID0;
name = Light;
paths = (
{
closed = 1;
nodes = (
"453 -180 LINE",
"453 522 LINE",
"355 511 LINE",
"323 523 OFFCURVE",
"289 530 OFFCURVE",
"255 530 CURVE SMOOTH",
"96 530 OFFCURVE",
"32 415 OFFCURVE",
"32 256 CURVE SMOOTH",
"32 110 OFFCURVE",
"81 -22 OFFCURVE",
"227 -22 CURVE SMOOTH",
"278 -22 OFFCURVE",
"332 0 OFFCURVE",
"355 46 CURVE",
"348 10 OFFCURVE",
"344 -24 OFFCURVE",
"344 -91 CURVE SMOOTH",
"344 -192 LINE"
);
},
{
closed = 1;
nodes = (
"344 162 LINE SMOOTH",
"344 100 OFFCURVE",
"318 45 OFFCURVE",
"256 45 CURVE SMOOTH",
"166 45 OFFCURVE",
"151 171 OFFCURVE",
"151 261 CURVE SMOOTH",
"151 353 OFFCURVE",
"158 470 OFFCURVE",
"250 470 CURVE SMOOTH",
"283 470 OFFCURVE",
"316 457 OFFCURVE",
"344 438 CURVE"
);
}
);
width = 523;
},
{
layerId = "7A18FD7C-8538-4E93-8010-D52488023CDD";
name = Regular;
paths = (
{
closed = 1;
nodes = (
"545 -180 LINE",
"545 530 LINE",
"410 510 LINE",
"372 524 OFFCURVE",
"329 530 OFFCURVE",
"289 530 CURVE SMOOTH",
"116 530 OFFCURVE",
"28 419 OFFCURVE",
"28 246 CURVE SMOOTH",
"28 99 OFFCURVE",
"74 -22 OFFCURVE",
"221 -22 CURVE SMOOTH",
"276 -22 OFFCURVE",
"327 -6 OFFCURVE",
"360 39 CURVE",
"352 6 OFFCURVE",
"351 -58 OFFCURVE",
"351 -92 CURVE SMOOTH",
"351 -200 LINE"
);
},
{
closed = 1;
nodes = (
"351 190 LINE SMOOTH",
"351 131 OFFCURVE",
"351 54 OFFCURVE",
"292 54 CURVE SMOOTH",
"229 54 OFFCURVE",
"226 161 OFFCURVE",
"226 251 CURVE SMOOTH",
"226 346 OFFCURVE",
"229 470 OFFCURVE",
"299 470 CURVE SMOOTH",
"317 470 OFFCURVE",
"336 464 OFFCURVE",
"351 452 CURVE"
);
}
);
width = 592;
},
{
layerId = "508D1370-0BED-4DB0-A4B4-D9F3BBD09B88";
name = Bold;
paths = (
{
closed = 1;
nodes = (
"595 -180 LINE",
"595 534 LINE",
"440 509 LINE",
"399 525 OFFCURVE",
"351 530 OFFCURVE",
"307 530 CURVE SMOOTH",
"127 530 OFFCURVE",
"26 421 OFFCURVE",
"26 241 CURVE SMOOTH",
"26 93 OFFCURVE",
"70 -22 OFFCURVE",
"218 -22 CURVE SMOOTH",
"275 -22 OFFCURVE",
"324 -9 OFFCURVE",
"363 35 CURVE",
"354 4 OFFCURVE",
"355 -76 OFFCURVE",
"355 -93 CURVE SMOOTH",
"355 -204 LINE"
);
},
{
closed = 1;
nodes = (
"355 205 LINE SMOOTH",
"355 148 OFFCURVE",
"369 59 OFFCURVE",
"311 59 CURVE SMOOTH",
"263 59 OFFCURVE",
"267 156 OFFCURVE",
"267 246 CURVE SMOOTH",
"267 342 OFFCURVE",
"267 470 OFFCURVE",
"326 470 CURVE SMOOTH",
"335 470 OFFCURVE",
"347 468 OFFCURVE",
"355 460 CURVE"
);
}
);
width = 629;
}
);
leftKerningGroup = o;
leftMetricsKey = o;
unicode = 0071;
},
{
glyphname = r;
lastChange = "2015-01-28 23:09:48 +0000";
layers = (
{
anchors = (
{
name = bottom;
position = "{121, 0}";
},
{
name = top;
position = "{126, 530}";
}
);
layerId = UUID0;
name = Light;
paths = (
{
closed = 1;
nodes = (
"277 453 OFFCURVE",
"291 431 OFFCURVE",
"291 398 CURVE SMOOTH",
"291 383 OFFCURVE",
"288 368 OFFCURVE",
"283 353 CURVE",
"293 345 OFFCURVE",
"311 342 OFFCURVE",
"323 342 CURVE SMOOTH",
"375 342 OFFCURVE",
"401 370 OFFCURVE",
"401 422 CURVE SMOOTH",
"401 489 OFFCURVE",
"359 530 OFFCURVE",
"292 530 CURVE SMOOTH",
"230 530 OFFCURVE",
"181 491 OFFCURVE",
"162 432 CURVE",
"157 522 LINE",
"66 510 LINE",
"66 0 LINE",
"175 0 LINE",
"175 257 LINE SMOOTH",
"175 324 OFFCURVE",
"177 453 OFFCURVE",
"244 453 CURVE SMOOTH"
);
}
);
width = 394;
},
{
anchors = (
{
name = bottom;
position = "{144, 0}";
},
{
name = top;
position = "{148, 510}";
}
);
layerId = "7A18FD7C-8538-4E93-8010-D52488023CDD";
name = Regular;
paths = (
{
closed = 1;
nodes = (
"326 444 OFFCURVE",
"332 395 OFFCURVE",
"332 354 CURVE SMOOTH",
"332 337 OFFCURVE",
"330 312 OFFCURVE",
"326 295 CURVE",
"337 288 OFFCURVE",
"368 285 OFFCURVE",
"381 285 CURVE SMOOTH",
"452 285 OFFCURVE",
"493 326 OFFCURVE",
"493 397 CURVE SMOOTH",
"493 481 OFFCURVE",
"439 530 OFFCURVE",
"355 530 CURVE SMOOTH",
"288 530 OFFCURVE",
"235 495 OFFCURVE",
"212 432 CURVE",
"204 522 LINE",
"47 510 LINE",
"47 0 LINE",
"241 0 LINE",
"241 319 LINE SMOOTH",
"241 378 OFFCURVE",
"241 444 OFFCURVE",
"285 444 CURVE SMOOTH"
);
}
);
width = 486;
},
{
anchors = (
{
name = bottom;
position = "{156.447, 0}";
},
{
name = top;
position = "{159.906, 499.176}";
}
);
layerId = "508D1370-0BED-4DB0-A4B4-D9F3BBD09B88";
name = Bold;
paths = (
{
closed = 1;
nodes = (
"353 439 OFFCURVE",
"354 376 OFFCURVE",
"354 330 CURVE SMOOTH",
"354 312 OFFCURVE",
"353 282 OFFCURVE",
"349 264 CURVE",
"361 257 OFFCURVE",
"399 254 OFFCURVE",
"412 254 CURVE SMOOTH",
"494 254 OFFCURVE",
"543 302 OFFCURVE",
"543 383 CURVE SMOOTH",
"543 477 OFFCURVE",
"482 530 OFFCURVE",
"389 530 CURVE SMOOTH",
"319 530 OFFCURVE",
"264 497 OFFCURVE",
"239 432 CURVE",
"229 522 LINE",
"37 510 LINE",
"37 0 LINE",
"277 0 LINE",
"277 353 LINE SMOOTH",
"277 407 OFFCURVE",
"276 439 OFFCURVE",
"307 439 CURVE SMOOTH"
);
}
);
width = 536;
}
);
leftKerningGroup = n;
leftMetricsKey = n;
rightKerningGroup = r;
unicode = 0072;
},
{
glyphname = s;
lastChange = "2015-01-28 23:09:48 +0000";
layers = (
{
anchors = (
{
name = bottom;
position = "{224, 0}";
},
{
name = top;
position = "{228, 530}";
}
);
layerId = UUID0;
name = Light;
paths = (
{
closed = 1;
nodes = (
"271 477 OFFCURVE",
"293 450 OFFCURVE",
"293 407 CURVE SMOOTH",
"293 392 OFFCURVE",
"290 377 OFFCURVE",
"285 362 CURVE",
"295 354 OFFCURVE",
"313 351 OFFCURVE",
"325 351 CURVE SMOOTH",
"372 351 OFFCURVE",
"403 374 OFFCURVE",
"403 421 CURVE SMOOTH",
"403 505 OFFCURVE",
"326 530 OFFCURVE",
"242 530 CURVE SMOOTH",
"147 530 OFFCURVE",
"57 484 OFFCURVE",
"57 390 CURVE SMOOTH",
"57 222 OFFCURVE",
"300 234 OFFCURVE",
"300 108 CURVE SMOOTH",
"300 58 OFFCURVE",
"274 31 OFFCURVE",
"224 31 CURVE SMOOTH",
"180 31 OFFCURVE",
"150 56 OFFCURVE",
"150 100 CURVE SMOOTH",
"150 115 OFFCURVE",
"153 130 OFFCURVE",
"158 145 CURVE",
"148 153 OFFCURVE",
"130 156 OFFCURVE",
"118 156 CURVE SMOOTH",
"71 156 OFFCURVE",
"40 133 OFFCURVE",
"40 86 CURVE SMOOTH",
"40 2 OFFCURVE",
"128 -22 OFFCURVE",
"212 -22 CURVE SMOOTH",
"318 -22 OFFCURVE",
"404 30 OFFCURVE",
"404 136 CURVE SMOOTH",
"404 304 OFFCURVE",
"161 291 OFFCURVE",
"161 417 CURVE SMOOTH",
"161 456 OFFCURVE",
"189 477 OFFCURVE",
"228 477 CURVE SMOOTH"
);
}
);
width = 444;
},
{
anchors = (
{
name = bottom;
position = "{253, 0}";
},
{
name = top;
position = "{254, 510}";
}
);
layerId = "7A18FD7C-8538-4E93-8010-D52488023CDD";
name = Regular;
paths = (
{
closed = 1;
nodes = (
"287 473 OFFCURVE",
"300 444 OFFCURVE",
"300 411 CURVE SMOOTH",
"300 400 OFFCURVE",
"298 372 OFFCURVE",
"296 361 CURVE",
"307 354 OFFCURVE",
"336 352 OFFCURVE",
"349 352 CURVE SMOOTH",
"402 352 OFFCURVE",
"461 379 OFFCURVE",
"461 432 CURVE SMOOTH",
"461 510 OFFCURVE",
"339 530 OFFCURVE",
"261 530 CURVE SMOOTH",
"144 530 OFFCURVE",
"32 489 OFFCURVE",
"32 372 CURVE SMOOTH",
"32 219 OFFCURVE",
"288 219 OFFCURVE",
"288 98 CURVE SMOOTH",
"288 62 OFFCURVE",
"268 35 OFFCURVE",
"232 35 CURVE SMOOTH",
"190 35 OFFCURVE",
"179 69 OFFCURVE",
"179 111 CURVE SMOOTH",
"179 127 OFFCURVE",
"181 145 OFFCURVE",
"183 161 CURVE",
"172 168 OFFCURVE",
"143 170 OFFCURVE",
"130 170 CURVE SMOOTH",
"72 170 OFFCURVE",
"18 146 OFFCURVE",
"18 88 CURVE SMOOTH",
"18 0 OFFCURVE",
"137 -22 OFFCURVE",
"225 -22 CURVE SMOOTH",
"352 -22 OFFCURVE",
"461 22 OFFCURVE",
"461 149 CURVE SMOOTH",
"461 302 OFFCURVE",
"205 302 OFFCURVE",
"205 423 CURVE SMOOTH",
"205 453 OFFCURVE",
"224 473 OFFCURVE",
"254 473 CURVE SMOOTH"
);
}
);
width = 482;
},
{
anchors = (
{
name = bottom;
position = "{268.694, 0}";
},
{
name = top;
position = "{268.071, 499.176}";
}
);
layerId = "508D1370-0BED-4DB0-A4B4-D9F3BBD09B88";
name = Bold;
paths = (
{
closed = 1;
nodes = (
"296 471 OFFCURVE",
"304 441 OFFCURVE",
"304 413 CURVE SMOOTH",
"304 404 OFFCURVE",
"302 369 OFFCURVE",
"302 360 CURVE",
"313 354 OFFCURVE",
"348 353 OFFCURVE",
"362 353 CURVE SMOOTH",
"418 353 OFFCURVE",
"492 382 OFFCURVE",
"492 438 CURVE SMOOTH",
"492 513 OFFCURVE",
"346 530 OFFCURVE",
"271 530 CURVE SMOOTH",
"142 530 OFFCURVE",
"18 492 OFFCURVE",
"18 362 CURVE SMOOTH",
"18 217 OFFCURVE",
"282 211 OFFCURVE",
"282 93 CURVE SMOOTH",
"282 64 OFFCURVE",
"265 37 OFFCURVE",
"236 37 CURVE SMOOTH",
"195 37 OFFCURVE",
"195 76 OFFCURVE",
"195 117 CURVE SMOOTH",
"195 133 OFFCURVE",
"196 153 OFFCURVE",
"197 170 CURVE",
"185 176 OFFCURVE",
"150 178 OFFCURVE",
"136 178 CURVE SMOOTH",
"73 178 OFFCURVE",
"6 153 OFFCURVE",
"6 89 CURVE SMOOTH",
"6 -1 OFFCURVE",
"142 -22 OFFCURVE",
"232 -22 CURVE SMOOTH",
"370 -22 OFFCURVE",
"492 18 OFFCURVE",
"492 156 CURVE SMOOTH",
"492 301 OFFCURVE",
"229 308 OFFCURVE",
"229 426 CURVE SMOOTH",
"229 451 OFFCURVE",
"243 471 OFFCURVE",
"268 471 CURVE SMOOTH"
);
}
);
width = 503;
}
);
leftKerningGroup = s;
rightKerningGroup = s;
unicode = 0073;
},
{
glyphname = germandbls;
lastChange = "2015-01-28 23:09:48 +0000";
layers = (
{
layerId = UUID0;
name = Light;
paths = (
{
closed = 1;
nodes = (
"70 68 LINE SMOOTH",
"70 -14 OFFCURVE",
"53 -95 OFFCURVE",
"-29 -95 CURVE",
"-29 -127 OFFCURVE",
"8 -139 OFFCURVE",
"40 -139 CURVE SMOOTH",
"155 -139 OFFCURVE",
"179 -19 OFFCURVE",
"179 96 CURVE SMOOTH",
"179 549 LINE SMOOTH",
"179 627 OFFCURVE",
"197 676 OFFCURVE",
"275 676 CURVE SMOOTH",
"334 676 OFFCURVE",
"372 641 OFFCURVE",
"372 582 CURVE SMOOTH",
"372 515 OFFCURVE",
"241 473 OFFCURVE",
"241 390 CURVE SMOOTH",
"241 222 OFFCURVE",
"484 234 OFFCURVE",
"484 108 CURVE SMOOTH",
"484 58 OFFCURVE",
"458 31 OFFCURVE",
"408 31 CURVE SMOOTH",
"364 31 OFFCURVE",
"334 56 OFFCURVE",
"334 100 CURVE SMOOTH",
"334 115 OFFCURVE",
"337 130 OFFCURVE",
"342 145 CURVE",
"332 153 OFFCURVE",
"314 156 OFFCURVE",
"302 156 CURVE SMOOTH",
"255 156 OFFCURVE",
"224 133 OFFCURVE",
"224 86 CURVE SMOOTH",
"224 2 OFFCURVE",
"312 -22 OFFCURVE",
"396 -22 CURVE SMOOTH",
"502 -22 OFFCURVE",
"588 30 OFFCURVE",
"588 136 CURVE SMOOTH",
"588 304 OFFCURVE",
"345 291 OFFCURVE",
"345 417 CURVE SMOOTH",
"345 484 OFFCURVE",
"476 526 OFFCURVE",
"476 609 CURVE SMOOTH",
"476 697 OFFCURVE",
"369 720 OFFCURVE",
"281 720 CURVE SMOOTH",
"153 720 OFFCURVE",
"70 677 OFFCURVE",
"70 549 CURVE SMOOTH"
);
}
);
width = 598;
},
{
layerId = "7A18FD7C-8538-4E93-8010-D52488023CDD";
name = Regular;
paths = (
{
closed = 1;
nodes = (
"54 21 LINE SMOOTH",
"54 -59 OFFCURVE",
"52 -140 OFFCURVE",
"-28 -150 CURVE",
"-10 -189 OFFCURVE",
"43 -200 OFFCURVE",
"86 -200 CURVE SMOOTH",
"217 -200 OFFCURVE",
"248 -85 OFFCURVE",
"248 46 CURVE",
"248 558 LINE SMOOTH",
"248 631 OFFCURVE",
"275 663 OFFCURVE",
"348 663 CURVE SMOOTH",
"402 663 OFFCURVE",
"453 636 OFFCURVE",
"453 582 CURVE SMOOTH",
"453 515 OFFCURVE",
"322 455 OFFCURVE",
"322 372 CURVE SMOOTH",
"322 219 OFFCURVE",
"578 219 OFFCURVE",
"578 98 CURVE SMOOTH",
"578 62 OFFCURVE",
"558 35 OFFCURVE",
"522 35 CURVE SMOOTH",
"480 35 OFFCURVE",
"469 69 OFFCURVE",
"469 111 CURVE SMOOTH",
"469 127 OFFCURVE",
"471 145 OFFCURVE",
"473 161 CURVE",
"462 168 OFFCURVE",
"433 170 OFFCURVE",
"420 170 CURVE SMOOTH",
"362 170 OFFCURVE",
"308 146 OFFCURVE",
"308 88 CURVE SMOOTH",
"308 0 OFFCURVE",
"427 -22 OFFCURVE",
"515 -22 CURVE SMOOTH",
"642 -22 OFFCURVE",
"751 22 OFFCURVE",
"751 149 CURVE SMOOTH",
"751 302 OFFCURVE",
"495 302 OFFCURVE",
"495 423 CURVE SMOOTH",
"495 490 OFFCURVE",
"617 526 OFFCURVE",
"617 609 CURVE SMOOTH",
"617 697 OFFCURVE",
"443 720 OFFCURVE",
"355 720 CURVE SMOOTH",
"203 720 OFFCURVE",
"54 681 OFFCURVE",
"54 529 CURVE SMOOTH"
);
}
);
width = 758;
},
{
layerId = "508D1370-0BED-4DB0-A4B4-D9F3BBD09B88";
name = Bold;
paths = (
{
closed = 1;
nodes = (
"45 -4 LINE SMOOTH",
"45 -83 OFFCURVE",
"51 -164 OFFCURVE",
"-27 -180 CURVE",
"0 -223 OFFCURVE",
"62 -233 OFFCURVE",
"111 -233 CURVE SMOOTH",
"251 -233 OFFCURVE",
"285 -121 OFFCURVE",
"285 19 CURVE",
"285 563 LINE SMOOTH",
"285 633 OFFCURVE",
"317 656 OFFCURVE",
"388 656 CURVE SMOOTH",
"439 656 OFFCURVE",
"497 633 OFFCURVE",
"497 582 CURVE SMOOTH",
"497 515 OFFCURVE",
"366 445 OFFCURVE",
"366 362 CURVE SMOOTH",
"366 217 OFFCURVE",
"629 211 OFFCURVE",
"629 93 CURVE SMOOTH",
"629 64 OFFCURVE",
"612 37 OFFCURVE",
"584 37 CURVE SMOOTH",
"543 37 OFFCURVE",
"542 76 OFFCURVE",
"542 117 CURVE SMOOTH",
"542 133 OFFCURVE",
"544 153 OFFCURVE",
"544 170 CURVE",
"532 176 OFFCURVE",
"497 178 OFFCURVE",
"484 178 CURVE SMOOTH",
"420 178 OFFCURVE",
"353 153 OFFCURVE",
"353 89 CURVE SMOOTH",
"353 -1 OFFCURVE",
"489 -22 OFFCURVE",
"579 -22 CURVE SMOOTH",
"718 -22 OFFCURVE",
"839 18 OFFCURVE",
"839 156 CURVE SMOOTH",
"839 301 OFFCURVE",
"576 308 OFFCURVE",
"576 426 CURVE SMOOTH",
"576 493 OFFCURVE",
"693 526 OFFCURVE",
"693 609 CURVE SMOOTH",
"693 697 OFFCURVE",
"483 720 OFFCURVE",
"395 720 CURVE SMOOTH",
"230 720 OFFCURVE",
"45 683 OFFCURVE",
"45 518 CURVE SMOOTH"
);
}
);
width = 845;
}
);
leftMetricsKey = dotlessj;
unicode = 00DF;
},
{
glyphname = longs;
lastChange = "2015-01-28 23:09:48 +0000";
layers = (
{
layerId = UUID0;
name = Light;
paths = (
{
closed = 1;
nodes = (
"175 564 LINE SMOOTH",
"175 622 OFFCURVE",
"183 676 OFFCURVE",
"241 676 CURVE SMOOTH",
"275 676 OFFCURVE",
"291 655 OFFCURVE",
"291 621 CURVE SMOOTH",
"291 606 OFFCURVE",
"288 591 OFFCURVE",
"283 576 CURVE",
"293 568 OFFCURVE",
"311 565 OFFCURVE",
"323 565 CURVE SMOOTH",
"370 565 OFFCURVE",
"401 588 OFFCURVE",
"401 635 CURVE SMOOTH",
"401 703 OFFCURVE",
"315 720 OFFCURVE",
"247 720 CURVE SMOOTH",
"139 720 OFFCURVE",
"68 672 OFFCURVE",
"68 564 CURVE SMOOTH",
"68 -12 LINE",
"175 0 LINE"
);
}
);
width = 275;
},
{
layerId = "7A18FD7C-8538-4E93-8010-D52488023CDD";
name = Regular;
paths = (
{
closed = 1;
nodes = (
"241 568 LINE",
"241 616 OFFCURVE",
"243 673 OFFCURVE",
"291 673 CURVE SMOOTH",
"323 673 OFFCURVE",
"331 643 OFFCURVE",
"331 611 CURVE SMOOTH",
"331 595 OFFCURVE",
"329 579 OFFCURVE",
"327 566 CURVE",
"338 559 OFFCURVE",
"367 557 OFFCURVE",
"380 557 CURVE SMOOTH",
"433 557 OFFCURVE",
"492 576 OFFCURVE",
"492 629 CURVE SMOOTH",
"492 707 OFFCURVE",
"376 720 OFFCURVE",
"298 720 CURVE SMOOTH",
"166 720 OFFCURVE",
"47 681 OFFCURVE",
"47 549 CURVE SMOOTH",
"47 -15 LINE",
"241 0 LINE"
);
}
);
width = 316;
},
{
layerId = "508D1370-0BED-4DB0-A4B4-D9F3BBD09B88";
name = Bold;
paths = (
{
closed = 1;
nodes = (
"277 570 LINE",
"277 613 OFFCURVE",
"275 671 OFFCURVE",
"318 671 CURVE SMOOTH",
"349 671 OFFCURVE",
"353 637 OFFCURVE",
"353 606 CURVE SMOOTH",
"353 589 OFFCURVE",
"351 573 OFFCURVE",
"351 561 CURVE",
"362 554 OFFCURVE",
"397 553 OFFCURVE",
"411 553 CURVE SMOOTH",
"467 553 OFFCURVE",
"541 570 OFFCURVE",
"541 626 CURVE SMOOTH",
"541 709 OFFCURVE",
"409 720 OFFCURVE",
"326 720 CURVE SMOOTH",
"181 720 OFFCURVE",
"36 686 OFFCURVE",
"36 541 CURVE SMOOTH",
"36 -17 LINE",
"277 0 LINE"
);
}
);
width = 338;
}
);
rightKerningGroup = f;
unicode = 017F;
},
{
glyphname = schwa;
lastChange = "2015-01-28 23:09:48 +0000";
layers = (
{
layerId = UUID0;
name = Light;
paths = (
{
closed = 1;
nodes = (
"356 -22 OFFCURVE",
"425 104 OFFCURVE",
"425 266 CURVE SMOOTH",
"425 418 OFFCURVE",
"362 530 OFFCURVE",
"210 530 CURVE SMOOTH",
"134 530 OFFCURVE",
"47 486 OFFCURVE",
"47 410 CURVE SMOOTH",
"47 392 OFFCURVE",
"53 375 OFFCURVE",
"70 367 CURVE",
"95 421 OFFCURVE",
"141 454 OFFCURVE",
"200 454 CURVE SMOOTH",
"288 454 OFFCURVE",
"307 368 OFFCURVE",
"310 280 CURVE",
"297 281 OFFCURVE",
"271 282 OFFCURVE",
"255 282 CURVE SMOOTH",
"131 282 OFFCURVE",
"30 249 OFFCURVE",
"30 125 CURVE SMOOTH",
"30 29 OFFCURVE",
"98 -22 OFFCURVE",
"194 -22 CURVE SMOOTH"
);
},
{
closed = 1;
nodes = (
"160 35 OFFCURVE",
"139 81 OFFCURVE",
"139 131 CURVE SMOOTH",
"139 206 OFFCURVE",
"190 232 OFFCURVE",
"265 232 CURVE SMOOTH",
"288 232 OFFCURVE",
"317 230 OFFCURVE",
"342 224 CURVE",
"310 265 LINE",
"312 177 OFFCURVE",
"302 35 OFFCURVE",
"210 35 CURVE SMOOTH"
);
}
);
width = 457;
},
{
layerId = "7A18FD7C-8538-4E93-8010-D52488023CDD";
name = Regular;
paths = (
{
closed = 1;
nodes = (
"399 -22 OFFCURVE",
"504 69 OFFCURVE",
"504 249 CURVE SMOOTH",
"504 423 OFFCURVE",
"409 530 OFFCURVE",
"235 530 CURVE SMOOTH",
"140 530 OFFCURVE",
"32 488 OFFCURVE",
"32 393 CURVE SMOOTH",
"32 371 OFFCURVE",
"40 348 OFFCURVE",
"60 338 CURVE",
"86 387 OFFCURVE",
"141 410 OFFCURVE",
"196 410 CURVE SMOOTH",
"276 410 OFFCURVE",
"300 353 OFFCURVE",
"305 277 CURVE",
"293 279 OFFCURVE",
"266 280 OFFCURVE",
"254 280 CURVE SMOOTH",
"123 280 OFFCURVE",
"10 254 OFFCURVE",
"10 123 CURVE SMOOTH",
"10 18 OFFCURVE",
"114 -22 OFFCURVE",
"219 -22 CURVE SMOOTH"
);
},
{
closed = 1;
nodes = (
"192 38 OFFCURVE",
"180 82 OFFCURVE",
"180 123 CURVE SMOOTH",
"180 207 OFFCURVE",
"224 233 OFFCURVE",
"309 232 CURVE SMOOTH",
"323 232 OFFCURVE",
"337 231 OFFCURVE",
"353 230 CURVE",
"306 261 LINE",
"306 216 OFFCURVE",
"310 38 OFFCURVE",
"233 38 CURVE SMOOTH"
);
}
);
width = 532;
},
{
layerId = "508D1370-0BED-4DB0-A4B4-D9F3BBD09B88";
name = Bold;
paths = (
{
closed = 1;
nodes = (
"422 -22 OFFCURVE",
"547 50 OFFCURVE",
"547 240 CURVE SMOOTH",
"547 426 OFFCURVE",
"434 530 OFFCURVE",
"249 530 CURVE SMOOTH",
"143 530 OFFCURVE",
"24 489 OFFCURVE",
"24 384 CURVE SMOOTH",
"24 360 OFFCURVE",
"33 333 OFFCURVE",
"55 322 CURVE",
"81 369 OFFCURVE",
"141 386 OFFCURVE",
"194 386 CURVE SMOOTH",
"270 386 OFFCURVE",
"296 345 OFFCURVE",
"302 275 CURVE",
"291 278 OFFCURVE",
"263 279 OFFCURVE",
"253 279 CURVE SMOOTH",
"119 279 OFFCURVE",
"-1 257 OFFCURVE",
"-1 122 CURVE SMOOTH",
"-1 12 OFFCURVE",
"123 -22 OFFCURVE",
"233 -22 CURVE SMOOTH"
);
},
{
closed = 1;
nodes = (
"209 40 OFFCURVE",
"202 83 OFFCURVE",
"202 119 CURVE SMOOTH",
"202 208 OFFCURVE",
"242 234 OFFCURVE",
"333 232 CURVE SMOOTH",
"342 232 OFFCURVE",
"348 232 OFFCURVE",
"359 233 CURVE",
"304 259 LINE",
"303 237 OFFCURVE",
"314 40 OFFCURVE",
"245 40 CURVE SMOOTH"
);
}
);
width = 573;
}
);
rightKerningGroup = o;
rightMetricsKey = o;
unicode = 0259;
},
{
glyphname = t;
lastChange = "2015-01-28 23:09:48 +0000";
layers = (
{
anchors = (
{
name = bottom;
position = "{158, 0}";
},
{
name = center;
position = "{135, 265}";
},
{
name = topright;
position = "{271, 660}";
}
);
layerId = UUID0;
name = Light;
paths = (
{
closed = 1;
nodes = (
"76 77 LINE SMOOTH",
"76 19 OFFCURVE",
"100 -15 OFFCURVE",
"157 -15 CURVE SMOOTH",
"192 -15 OFFCURVE",
"225 5 OFFCURVE",
"232 37 CURVE",
"199 42 OFFCURVE",
"186 62 OFFCURVE",
"186 101 CURVE SMOOTH",
"186 465 LINE",
"280 465 LINE",
"280 510 LINE",
"188 510 LINE",
"188 609 LINE",
"157 609 LINE",
"120 560 OFFCURVE",
"63 519 OFFCURVE",
"4 495 CURVE",
"5 465 LINE",
"76 465 LINE"
);
}
);
width = 284;
},
{
anchors = (
{
name = bottom;
position = "{195, 0}";
},
{
name = center;
position = "{169, 255}";
},
{
name = topright;
position = "{347, 660}";
}
);
layerId = "7A18FD7C-8538-4E93-8010-D52488023CDD";
name = Regular;
paths = (
{
closed = 1;
nodes = (
"68 109 LINE SMOOTH",
"68 28 OFFCURVE",
"114 -15 OFFCURVE",
"195 -15 CURVE SMOOTH",
"242 -15 OFFCURVE",
"292 1 OFFCURVE",
"314 43 CURVE",
"275 52 OFFCURVE",
"262 76 OFFCURVE",
"262 116 CURVE SMOOTH",
"262 465 LINE",
"353 465 LINE",
"353 510 LINE",
"262 510 LINE",
"262 619 LINE",
"207 619 LINE",
"157 570 OFFCURVE",
"70 519 OFFCURVE",
"5 496 CURVE",
"5 465 LINE",
"68 465 LINE"
);
}
);
width = 337;
},
{
anchors = (
{
name = bottom;
position = "{215.024, 0}";
},
{
name = center;
position = "{187.4, 249.588}";
},
{
name = topright;
position = "{423, 660}";
}
);
layerId = "508D1370-0BED-4DB0-A4B4-D9F3BBD09B88";
name = Bold;
paths = (
{
closed = 1;
nodes = (
"64 126 LINE SMOOTH",
"64 33 OFFCURVE",
"122 -15 OFFCURVE",
"216 -15 CURVE SMOOTH",
"269 -15 OFFCURVE",
"328 -1 OFFCURVE",
"358 46 CURVE",
"316 57 OFFCURVE",
"303 84 OFFCURVE",
"303 124 CURVE SMOOTH",
"303 465 LINE",
"393 465 LINE",
"393 510 LINE",
"302 510 LINE",
"302 624 LINE",
"234 624 LINE",
"177 575 OFFCURVE",
"74 519 OFFCURVE",
"6 497 CURVE",
"5 465 LINE",
"64 465 LINE"
);
}
);
width = 366;
}
);
leftKerningGroup = t;
unicode = 0074;
},
{
glyphname = tbar;
lastChange = "2015-01-28 23:09:48 +0000";
layers = (
{
components = (
{
name = t;
transform = "{1, 0, 0, 1, 0, 0}";
}
);
layerId = UUID0;
name = Light;
paths = (
{
closed = 1;
nodes = (
"68 330 LINE SMOOTH",
"36 330 OFFCURVE",
"20 316 OFFCURVE",
"20 292 CURVE SMOOTH",
"20 279 OFFCURVE",
"24 267 OFFCURVE",
"28 258 CURVE",
"227 258 LINE SMOOTH",
"267 258 OFFCURVE",
"282 272 OFFCURVE",
"282 295 CURVE SMOOTH",
"282 309 OFFCURVE",
"277 321 OFFCURVE",
"273 330 CURVE"
);
}
);
width = 284;
},
{
components = (
{
name = t;
transform = "{1, 0, 0, 1, 22, 0}";
}
);
layerId = "7A18FD7C-8538-4E93-8010-D52488023CDD";
name = Regular;
paths = (
{
closed = 1;
nodes = (
"74 348 LINE SMOOTH",
"33 348 OFFCURVE",
"7 328 OFFCURVE",
"7 286 CURVE SMOOTH",
"7 278 OFFCURVE",
"8 265 OFFCURVE",
"11 256 CURVE",
"328 256 LINE SMOOTH",
"370 256 OFFCURVE",
"396 276 OFFCURVE",
"396 318 CURVE SMOOTH",
"396 324 OFFCURVE",
"395 339 OFFCURVE",
"392 348 CURVE"
);
}
);
width = 403;
},
{
components = (
{
name = t;
transform = "{1, 0, 0, 1, 33.906, 0}";
}
);
layerId = "508D1370-0BED-4DB0-A4B4-D9F3BBD09B88";
name = Bold;
paths = (
{
closed = 1;
nodes = (
"77 358 LINE SMOOTH",
"31 358 OFFCURVE",
"0 334 OFFCURVE",
"0 283 CURVE SMOOTH",
"0 277 OFFCURVE",
"-1 264 OFFCURVE",
"2 255 CURVE",
"383 255 LINE SMOOTH",
"426 255 OFFCURVE",
"458 278 OFFCURVE",
"458 330 CURVE SMOOTH",
"458 332 OFFCURVE",
"459 349 OFFCURVE",
"456 358 CURVE"
);
}
);
width = 467;
}
);
leftKerningGroup = t;
unicode = 0167;
},
{
glyphname = u;
lastChange = "2015-01-28 23:09:48 +0000";
layers = (
{
anchors = (
{
name = bottom;
position = "{274, 0}";
},
{
name = ogonek;
position = "{489, 10}";
},
{
name = top;
position = "{264, 530}";
}
);
layerId = UUID0;
name = Light;
paths = (
{
closed = 1;
nodes = (
"352 510 LINE",
"352 162 LINE SMOOTH",
"352 100 OFFCURVE",
"326 45 OFFCURVE",
"264 45 CURVE SMOOTH",
"174 45 OFFCURVE",
"173 151 OFFCURVE",
"173 241 CURVE SMOOTH",
"173 510 LINE",
"64 510 LINE",
"64 236 LINE SMOOTH",
"64 85 OFFCURVE",
"84 -22 OFFCURVE",
"235 -22 CURVE SMOOTH",
"286 -22 OFFCURVE",
"340 0 OFFCURVE",
"363 46 CURVE",
"368 8 OFFCURVE",
"395 -15 OFFCURVE",
"433 -15 CURVE SMOOTH",
"458 -15 OFFCURVE",
"481 -5 OFFCURVE",
"492 16 CURVE",
"468 29 OFFCURVE",
"461 53 OFFCURVE",
"461 82 CURVE SMOOTH",
"461 510 LINE"
);
}
);
width = 531;
},
{
anchors = (
{
name = bottom;
position = "{296, 0}";
},
{
name = ogonek;
position = "{578, 10}";
},
{
name = top;
position = "{296, 510}";
}
);
layerId = "7A18FD7C-8538-4E93-8010-D52488023CDD";
name = Regular;
paths = (
{
closed = 1;
nodes = (
"355 510 LINE",
"355 162 LINE SMOOTH",
"355 112 OFFCURVE",
"346 54 OFFCURVE",
"296 54 CURVE SMOOTH",
"245 54 OFFCURVE",
"245 137 OFFCURVE",
"245 241 CURVE SMOOTH",
"245 510 LINE",
"47 510 LINE",
"47 236 LINE SMOOTH",
"47 81 OFFCURVE",
"73 -22 OFFCURVE",
"228 -22 CURVE SMOOTH",
"286 -22 OFFCURVE",
"336 -4 OFFCURVE",
"368 45 CURVE",
"387 4 OFFCURVE",
"429 -15 OFFCURVE",
"488 -15 CURVE SMOOTH",
"516 -15 OFFCURVE",
"559 -7 OFFCURVE",
"580 12 CURVE",
"556 43 OFFCURVE",
"549 77 OFFCURVE",
"549 116 CURVE SMOOTH",
"549 510 LINE"
);
}
);
width = 603;
},
{
anchors = (
{
name = bottom;
position = "{307.906, 0}";
},
{
name = ogonek;
position = "{626.165, 10}";
},
{
name = top;
position = "{313.318, 499.176}";
}
);
layerId = "508D1370-0BED-4DB0-A4B4-D9F3BBD09B88";
name = Bold;
paths = (
{
closed = 1;
nodes = (
"357 510 LINE",
"357 162 LINE SMOOTH",
"357 118 OFFCURVE",
"357 59 OFFCURVE",
"313 59 CURVE SMOOTH",
"283 59 OFFCURVE",
"284 129 OFFCURVE",
"284 241 CURVE SMOOTH",
"284 510 LINE",
"38 510 LINE",
"38 236 LINE SMOOTH",
"38 79 OFFCURVE",
"67 -22 OFFCURVE",
"224 -22 CURVE SMOOTH",
"286 -22 OFFCURVE",
"334 -6 OFFCURVE",
"371 44 CURVE",
"397 2 OFFCURVE",
"447 -15 OFFCURVE",
"518 -15 CURVE SMOOTH",
"547 -15 OFFCURVE",
"601 -8 OFFCURVE",
"628 10 CURVE",
"604 51 OFFCURVE",
"597 90 OFFCURVE",
"597 134 CURVE SMOOTH",
"597 510 LINE"
);
}
);
width = 642;
}
);
leftKerningGroup = u;
rightMetricsKey = dotlessi;
unicode = 0075;
},
{
glyphname = v;
lastChange = "2015-01-28 23:09:48 +0000";
layers = (
{
layerId = UUID0;
name = Light;
paths = (
{
closed = 1;
nodes = (
"317 510 LINE",
"215 67 LINE",
"113 510 LINE",
"0 510 LINE",
"138 0 LINE",
"273 0 LINE",
"421 510 LINE"
);
}
);
width = 421;
},
{
layerId = "7A18FD7C-8538-4E93-8010-D52488023CDD";
name = Regular;
paths = (
{
closed = 1;
nodes = (
"383 510 LINE",
"298 78 LINE",
"213 510 LINE",
"10 510 LINE",
"147 0 LINE",
"394 0 LINE",
"556 510 LINE"
);
}
);
width = 547;
},
{
layerId = "508D1370-0BED-4DB0-A4B4-D9F3BBD09B88";
name = Bold;
paths = (
{
closed = 1;
nodes = (
"419 510 LINE",
"343 84 LINE",
"267 510 LINE",
"15 510 LINE",
"152 0 LINE",
"459 0 LINE",
"629 510 LINE"
);
}
);
width = 615;
}
);
leftKerningGroup = v;
rightKerningGroup = v;
unicode = 0076;
},
{
glyphname = w;
lastChange = "2015-01-28 23:09:48 +0000";
layers = (
{
anchors = (
{
name = top;
position = "{350, 530}";
}
);
layerId = UUID0;
name = Light;
paths = (
{
closed = 1;
nodes = (
"586 510 LINE",
"495 67 LINE",
"404 510 LINE",
"295 510 LINE",
"204 67 LINE",
"113 510 LINE",
"0 510 LINE",
"127 0 LINE",
"262 0 LINE",
"338 360 LINE",
"418 0 LINE",
"553 0 LINE",
"690 510 LINE"
);
}
);
width = 690;
},
{
anchors = (
{
name = top;
position = "{434, 510}";
}
);
layerId = "7A18FD7C-8538-4E93-8010-D52488023CDD";
name = Regular;
paths = (
{
closed = 1;
nodes = (
"656 510 LINE",
"585 78 LINE",
"514 510 LINE",
"355 510 LINE",
"284 78 LINE",
"213 510 LINE",
"10 510 LINE",
"133 0 LINE",
"350 0 LINE",
"400 236 LINE",
"454 0 LINE",
"671 0 LINE",
"819 510 LINE"
);
}
);
width = 810;
},
{
anchors = (
{
name = top;
position = "{461, 499}";
}
);
layerId = "508D1370-0BED-4DB0-A4B4-D9F3BBD09B88";
name = Bold;
paths = (
{
closed = 1;
nodes = (
"694 510 LINE",
"634 84 LINE",
"574 510 LINE",
"387 510 LINE",
"327 84 LINE",
"267 510 LINE",
"15 510 LINE",
"136 0 LINE",
"398 0 LINE",
"434 169 LINE",
"473 0 LINE",
"735 0 LINE",
"889 510 LINE"
);
}
);
width = 875;
}
);
leftKerningGroup = v;
leftMetricsKey = v;
rightKerningGroup = v;
rightMetricsKey = v;
unicode = 0077;
},
{
glyphname = x;
lastChange = "2015-01-28 23:09:48 +0000";
layers = (
{
layerId = UUID0;
name = Light;
paths = (
{
closed = 1;
nodes = (
"314 0 LINE",
"441 0 LINE",
"279 269 LINE",
"436 510 LINE",
"321 510 LINE",
"236 344 LINE",
"144 510 LINE",
"17 510 LINE",
"172 253 LINE",
"5 0 LINE",
"120 0 LINE",
"214 179 LINE"
);
}
);
width = 446;
},
{
layerId = "7A18FD7C-8538-4E93-8010-D52488023CDD";
name = Regular;
paths = (
{
closed = 1;
nodes = (
"279 0 LINE",
"489 0 LINE",
"345 258 LINE",
"483 510 LINE",
"317 510 LINE",
"283 367 LINE",
"217 510 LINE",
"7 510 LINE",
"140 268 LINE",
"-7 0 LINE",
"159 0 LINE",
"206 164 LINE"
);
}
);
width = 485;
},
{
layerId = "508D1370-0BED-4DB0-A4B4-D9F3BBD09B88";
name = Bold;
paths = (
{
closed = 1;
nodes = (
"260 0 LINE",
"515 0 LINE",
"381 252 LINE",
"508 510 LINE",
"315 510 LINE",
"308 379 LINE",
"257 510 LINE",
"2 510 LINE",
"123 276 LINE",
"-13 0 LINE",
"180 0 LINE",
"202 156 LINE"
);
}
);
width = 506;
}
);
unicode = 0078;
},
{
glyphname = y;
lastChange = "2015-01-28 23:09:48 +0000";
layers = (
{
anchors = (
{
name = top;
position = "{217, 530}";
}
);
layerId = UUID0;
name = Light;
paths = (
{
closed = 1;
nodes = (
"318 510 LINE",
"216 115 LINE",
"121 510 LINE",
"8 510 LINE",
"135 48 LINE",
"185 48 LINE",
"86 -180 LINE",
"195 -193 LINE",
"422 510 LINE"
);
}
);
width = 422;
},
{
anchors = (
{
name = top;
position = "{291, 510}";
}
);
layerId = "7A18FD7C-8538-4E93-8010-D52488023CDD";
name = Regular;
paths = (
{
closed = 1;
nodes = (
"376 510 LINE",
"291 137 LINE",
"213 510 LINE",
"10 510 LINE",
"136 59 LINE",
"210 59 LINE",
"93 -180 LINE",
"287 -193 LINE",
"535 510 LINE"
);
}
);
width = 530;
},
{
anchors = (
{
name = top;
position = "{309, 499}";
}
);
layerId = "508D1370-0BED-4DB0-A4B4-D9F3BBD09B88";
name = Bold;
paths = (
{
closed = 1;
nodes = (
"407 510 LINE",
"332 149 LINE",
"263 510 LINE",
"11 510 LINE",
"137 65 LINE",
"224 65 LINE",
"97 -180 LINE",
"337 -193 LINE",
"596 510 LINE"
);
}
);
width = 588;
}
);
leftKerningGroup = y;
rightKerningGroup = y;
unicode = 0079;
},
{
glyphname = z;
lastChange = "2015-01-28 23:09:48 +0000";
layers = (
{
anchors = (
{
name = bottom;
position = "{179, 0}";
},
{
name = top;
position = "{187, 530}";
}
);
layerId = UUID0;
name = Light;
paths = (
{
closed = 1;
nodes = (
"27 510 LINE",
"19 429 LINE",
"242 442 LINE",
"10 61 LINE",
"17 0 LINE",
"362 0 LINE",
"369 75 LINE",
"128 67 LINE",
"362 451 LINE",
"355 510 LINE"
);
}
);
width = 379;
},
{
anchors = (
{
name = bottom;
position = "{201, 0}";
},
{
name = top;
position = "{216, 510}";
}
);
layerId = "7A18FD7C-8538-4E93-8010-D52488023CDD";
name = Regular;
paths = (
{
closed = 1;
nodes = (
"30 510 LINE",
"20 412 LINE",
"194 425 LINE",
"1 59 LINE",
"7 0 LINE",
"408 0 LINE",
"418 98 LINE",
"222 84 LINE",
"416 451 LINE",
"410 510 LINE"
);
}
);
width = 431;
},
{
anchors = (
{
name = bottom;
position = "{212.906, 0}";
},
{
name = top;
position = "{231.694, 499.176}";
}
);
layerId = "508D1370-0BED-4DB0-A4B4-D9F3BBD09B88";
name = Bold;
paths = (
{
closed = 1;
nodes = (
"32 510 LINE",
"21 403 LINE",
"168 416 LINE",
"-4 58 LINE",
"2 0 LINE",
"433 0 LINE",
"445 110 LINE",
"273 93 LINE",
"445 451 LINE",
"440 510 LINE"
);
}
);
width = 459;
}
);
unicode = 007A;
},
{
glyphname = y.loclGUA;
lastChange = "2015-01-28 23:09:48 +0000";
layers = (
{
anchors = (
{
name = top;
position = "{263, 530}";
}
);
layerId = UUID0;
name = Light;
paths = (
{
closed = 1;
nodes = (
"348 510 LINE",
"348 232 LINE SMOOTH",
"348 170 OFFCURVE",
"322 115 OFFCURVE",
"260 115 CURVE SMOOTH",
"170 115 OFFCURVE",
"173 221 OFFCURVE",
"173 311 CURVE SMOOTH",
"173 510 LINE",
"64 510 LINE",
"64 306 LINE SMOOTH",
"64 155 OFFCURVE",
"80 48 OFFCURVE",
"231 48 CURVE SMOOTH",
"277 48 OFFCURVE",
"326 66 OFFCURVE",
"352 104 CURVE",
"352 77 LINE SMOOTH",
"352 -22 OFFCURVE",
"352 -141 OFFCURVE",
"254 -141 CURVE SMOOTH",
"209 -141 OFFCURVE",
"185 -117 OFFCURVE",
"185 -72 CURVE SMOOTH",
"185 -57 OFFCURVE",
"188 -42 OFFCURVE",
"193 -27 CURVE",
"183 -19 OFFCURVE",
"165 -16 OFFCURVE",
"153 -16 CURVE SMOOTH",
"106 -16 OFFCURVE",
"75 -39 OFFCURVE",
"75 -86 CURVE SMOOTH",
"75 -169 OFFCURVE",
"162 -200 OFFCURVE",
"245 -200 CURVE SMOOTH",
"421 -200 OFFCURVE",
"457 -75 OFFCURVE",
"457 101 CURVE SMOOTH",
"457 510 LINE"
);
}
);
width = 523;
},
{
anchors = (
{
name = top;
position = "{300, 510}";
}
);
layerId = "7A18FD7C-8538-4E93-8010-D52488023CDD";
name = Regular;
paths = (
{
closed = 1;
nodes = (
"351 510 LINE",
"351 243 LINE SMOOTH",
"351 193 OFFCURVE",
"342 135 OFFCURVE",
"292 135 CURVE SMOOTH",
"245 135 OFFCURVE",
"245 198 OFFCURVE",
"245 282 CURVE SMOOTH",
"245 510 LINE",
"47 510 LINE",
"47 277 LINE SMOOTH",
"47 132 OFFCURVE",
"79 59 OFFCURVE",
"224 59 CURVE SMOOTH",
"276 59 OFFCURVE",
"322 74 OFFCURVE",
"354 113 CURVE",
"354 77 LINE SMOOTH",
"354 -48 OFFCURVE",
"353 -143 OFFCURVE",
"278 -143 CURVE SMOOTH",
"232 -143 OFFCURVE",
"221 -99 OFFCURVE",
"221 -53 CURVE SMOOTH",
"221 -37 OFFCURVE",
"223 -19 OFFCURVE",
"225 -3 CURVE",
"214 4 OFFCURVE",
"185 6 OFFCURVE",
"172 6 CURVE SMOOTH",
"114 6 OFFCURVE",
"60 -18 OFFCURVE",
"60 -76 CURVE SMOOTH",
"60 -164 OFFCURVE",
"183 -200 OFFCURVE",
"271 -200 CURVE SMOOTH",
"478 -200 OFFCURVE",
"545 -106 OFFCURVE",
"545 101 CURVE SMOOTH",
"545 510 LINE"
);
}
);
width = 599;
},
{
anchors = (
{
name = top;
position = "{320.024, 499.176}";
}
);
layerId = "508D1370-0BED-4DB0-A4B4-D9F3BBD09B88";
name = Bold;
paths = (
{
closed = 1;
nodes = (
"353 510 LINE",
"353 249 LINE SMOOTH",
"353 205 OFFCURVE",
"353 146 OFFCURVE",
"309 146 CURVE SMOOTH",
"286 146 OFFCURVE",
"284 186 OFFCURVE",
"284 266 CURVE SMOOTH",
"284 510 LINE",
"38 510 LINE",
"38 261 LINE SMOOTH",
"38 120 OFFCURVE",
"78 65 OFFCURVE",
"220 65 CURVE SMOOTH",
"275 65 OFFCURVE",
"320 78 OFFCURVE",
"355 118 CURVE",
"355 77 LINE SMOOTH",
"355 -62 OFFCURVE",
"354 -144 OFFCURVE",
"291 -144 CURVE SMOOTH",
"244 -144 OFFCURVE",
"240 -89 OFFCURVE",
"240 -43 CURVE SMOOTH",
"240 -26 OFFCURVE",
"242 -7 OFFCURVE",
"242 10 CURVE",
"231 16 OFFCURVE",
"196 18 OFFCURVE",
"182 18 CURVE SMOOTH",
"118 18 OFFCURVE",
"52 -7 OFFCURVE",
"52 -71 CURVE SMOOTH",
"52 -161 OFFCURVE",
"194 -200 OFFCURVE",
"285 -200 CURVE SMOOTH",
"509 -200 OFFCURVE",
"593 -123 OFFCURVE",
"593 101 CURVE SMOOTH",
"593 510 LINE"
);
}
);
width = 640;
}
);
leftMetricsKey = u;
rightMetricsKey = g;
},
